<?xml version="1.0" encoding="utf-8"?>
<!-- Generator: Adobe Illustrator 21.0.0, SVG Export Plug-In . SVG Version: 6.00 Build 0)  -->
<svg version="1.1" xmlns="http://www.w3.org/2000/svg" xmlns:xlink="http://www.w3.org/1999/xlink" x="0px" y="0px"
	 viewBox="0 0 574.4 350" style="enable-background:new 0 0 574.4 350;" xml:space="preserve">
<style type="text/css">
  
  .Light {   
  transform-origin:right;
  animation: lightflicker 1s 
    alternate
    infinite
   ;
}
  
  .Light2 {   
  transform-origin:right;
  animation: lightflicker2 3s 
    alternate
    infinite
   ;
}
  
  
  @keyframes lightflicker {
  to{
    opacity:0.2;
    animation-timing-function:
      linear
      ease;
  }
}    
  
  @keyframes lightflicker2 {
  to{
    opacity:0.1;
    animation-timing-function:
      linear
      ease;
  }
}    
  
    @keyframes lightflicker3 {
  to{
    opacity:0.1;
    animation-timing-function:
      linear
      ease;
  }
} 
  
  .Hologram {
  animation: hologramfloat 2s 
    alternate
    infinite
   ;
}
  
   .Hologram2 {
     
      animation: lightflicker2 0.9s alternate infinite,
     
      hologramfloat 2s alternate infinite
   
   ;
}
  
  .Hologram3 {
     
      animation: lightflicker3 0.4s alternate infinite,
     
      hologramfloat 2s alternate infinite;
   
   ;
}
  
  @keyframes hologramfloat {
  to{
    transform: translate3d(0px, 4px, 0px);
    animation-timing-function:
      linear;
    animation-timing-function:
      ease;
  }
}
  
  
	.st0{fill:#383838;}
	.st1{fill:#12678F;}
	.st2{fill:#55A6C4;}
	.st3{fill:#095C85;}
	.st4{fill:#237CA4;}
	.st5{fill:#52B0D1;}
	.st6{fill:#6DBAD4;}
	.st7{fill:#246A8E;}
	.st8{fill:#3C91B7;}
	.st9{fill:url(#SVGID_1_);}
	.st10{fill:#86CFE4;}
	.st11{fill:#00517A;}
	.st12{fill:url(#SVGID_2_);}
	.st13{fill:url(#SVGID_3_);}
	.st14{fill:#A83592;}
	.st15{fill:#9FE4F4;}
	.st16{fill:#3C91B4;}
	.st17{fill:#81C8DF;}
	.st18{fill:#6BB6CF;}
	.st19{fill:none;}
	.st20{fill:url(#SVGID_4_);}
	.st21{opacity:0.6;fill:url(#SVGID_5_);}
	.st22{opacity:0.25;fill:#9FE4F4;}
	.st23{opacity:0.71;}
</style>
<g id="Layer_1">
	<rect x="574.4" y="1050" class="st0" width="279.6" height="410"/>
	<polygon class="st1" points="287.8,0 574.4,163.7 574.4,0 	"/>
	<polygon class="st2" points="414.2,0 574.4,91.5 574.4,0 	"/>
	<g>
		<polygon class="st3" points="376.2,95.7 439.4,59.6 439.4,48.3 376.2,84.4 		"/>
		<polygon class="st4" points="439.4,48.3 429.3,42.6 366.2,78.7 376.2,84.4 		"/>
		<polygon class="st3" points="386.2,112.7 449.4,76.6 449.4,65.3 386.2,101.4 		"/>
		<polygon class="st4" points="449.4,65.3 439.4,59.6 376.2,95.7 386.2,101.4 		"/>
	</g>
	<g>
		<g>
			<g>
				<path class="st5" d="M512.1,177.1l-1.7,1l0,0c-1.3,0.8-2.2,2.2-2.2,3.8c0,1.6,2,2.8,4.4,2.8c1.1,0,2.2-0.3,3-0.7l0,0l3.3-1.9
					c0.7-0.4,1.2-1.2,1.2-2.1v-2.8H512.1z"/>
			</g>
		</g>
		<g>
			<g>
				<path class="st5" d="M500.9,171l-1.7,1l0,0c-1.3,0.8-2.2,2.2-2.2,3.8c0,1.6,2,2.8,4.4,2.8c1.1,0,2.2-0.3,3-0.7l0,0l3.3-1.9
					c0.7-0.4,1.2-1.2,1.2-2.1V171H500.9z"/>
			</g>
		</g>
		<path class="st6" d="M499.8,110.2v19.4c0,1.6,1,3.4,2.1,4.1l1.2-5.1v-18.4H499.8z"/>
		<path class="st7" d="M500.9,125.8V171c0,1.3,1.8,2.4,4,2.4s4-1.1,4-2.4v-45.2H500.9z"/>
		<path class="st4" d="M513,134.7l-4.5-2.6v7.2c2.1,1.2,3.5,3.5,3.5,6.1v31.7c0,1.3,1.8,2.4,4,2.4s4-1.1,4-2.4v-42.4H513z"/>
		<path class="st6" d="M518.1,116.1V142c0,0.4,0.2,0.7,0.6,0.8c0,0,0,0,0,0v0c0,0,0,0,0,0c0,0,0,0,0,0c0.3,0.1,0.5,0.1,0.8,0.1
			c1.8,0,3.4-1.3,3.7-3.1c0-0.2,0.1-0.4,0.1-0.6c0,0,0,0,0,0c0,0,0-19.3,0-23.1c0-0.4-0.4-0.8-0.8-0.8h-3.7
			C518.5,115.3,518.1,115.7,518.1,116.1z"/>
		<path class="st8" d="M517.5,99.8L517.5,99.8l-5-2.8c-0.5-0.3-1-0.5-1.5-0.6v0c0,0,0,0,0,0c0,0-0.1,0-0.1,0
			c-0.7-0.2-1.4-0.2-2.2-0.2c-4.8,0-8.9,3.5-9.7,8.1c-0.1,0.5-0.2,1-0.2,1.6c0,0,0,0,0,0c0,0.1,0,0.1,0,0.2c0,0,0,0,0,0h0
			c0,0,0,0,0,0v4.1c0.6,0.6,1.2,1.1,1.6,1.3l0.5,0.3V130l12.7,7.3c1.3,0.7,3,1.1,4.5,1v-17.6c1.9,0.3,3.9,0,5.3-0.8
			c1-0.6,1.5-1.4,1.5-2.2v-3.5C525,108.6,521.6,102.2,517.5,99.8z"/>
		<path class="st4" d="M515.1,98.4c-2.6-1.5-6.5-1.7-8.8-0.4c-2.2,1.3-2,3.6,0.6,5.1c2.6,1.5,6.5,1.7,8.8,0.4
			C518,102.2,517.7,99.9,515.1,98.4z"/>
		<g>
			<path class="st8" d="M502,87.9v9.4c0,0,7.3-1.7,7.3-11.3L502,87.9z"/>
			<path class="st6" d="M512.4,90.4c-0.5-0.9-0.7-1.8-0.9-2.4c-0.4,0.8-0.7,1.8-0.9,2.9c-4.2-0.5-7.2-2.1-8.7-3
				c-0.1,1.2,0,2.6,0.3,4.1c0.6,2.9,1.5,5.3,2.7,7.1l0,0c0.5,0.8,1.4,1.4,2.5,1.4c0.5,0,0.9-0.1,1.3-0.3l0,0
				c1.3-0.7,3.1-1.8,4.5-3.6c0.7-0.8,1.3-1.7,1.8-2.8C513.9,92.7,513,91.5,512.4,90.4z"/>
			<path class="st8" d="M510.7,80.1c-0.3-0.1-0.6-0.1-1-0.1c-0.2,0-0.3,0-0.3,0l0,0c-3.5,0-7.2,2.5-7.5,7.9c1.5,1,4.4,2.5,8.6,3v9.9
				c0,0,7.3-1.7,7.3-11.3C517.9,82.2,513.1,80.5,510.7,80.1z"/>
		</g>
	</g>
	<g>
		<path class="st5" d="M554.7,201.6l-1.7,1l0,0c-1.3,0.8-2.2,2.2-2.2,3.8c0,1.6,2,2.8,4.4,2.8c1.1,0,2.2-0.3,3-0.7l0,0l3.3-1.9
			c0.7-0.4,1.2-1.2,1.2-2.1v-2.8H554.7z"/>
		<path class="st5" d="M544,195.5l-1.7,1l0,0c-1.3,0.8-2.2,2.2-2.2,3.8c0,1.6,2,2.8,4.4,2.8c1.1,0,2.2-0.3,3-0.7l0,0l3.3-1.9
			c0.7-0.4,1.2-1.2,1.2-2.1v-2.8H544z"/>
		<path class="st6" d="M541.8,133.9v18.8c0,2.1,1.3,4.5,2.8,5.4l1.5-6.7v-17.5H541.8z"/>
		<path class="st7" d="M544,150.3v45.2c0,1.3,1.8,2.4,4,2.4c2.2,0,4-1.1,4-2.4v-45.2H544z"/>
		<path class="st4" d="M555.6,159.2l-4.5-2.6v7.2c2.1,1.2,3.5,3.5,3.5,6.1v31.7c0,1.3,1.8,2.4,4,2.4c2.2,0,4-1.1,4-2.4v-42.4H555.6z
			"/>
		<path class="st6" d="M568.1,140.4h-6.8v25.9c0,0.5,0.3,0.9,0.8,1l0,0v0c0,0,0,0,0,0c0,0,0,0,0,0c0.4,0.1,0.7,0.1,1.1,0.1
			c2.4,0,4.4-1.7,4.8-4c0-0.2,0.1-0.5,0.1-0.8c0,0,0,0,0,0L568.1,140.4z"/>
		<path class="st8" d="M560.5,124.3L560.5,124.3l-5-2.8c-0.5-0.3-1-0.5-1.5-0.6v0c0,0,0,0,0,0c0,0-0.1,0-0.1,0
			c-0.7-0.2-1.4-0.2-2.2-0.2c-4.8,0-8.9,3.5-9.7,8.1c-0.1,0.5-0.2,1-0.2,1.6c0,0,0,0,0,0c0,0.1,0,0.1,0,0.2c0,0,0,0,0,0h0
			c0,0,0,0,0,0v4.1c0.6,0.6,1.2,1.1,1.6,1.3l0.5,0.3v18.3l1.3,0.7c0,0,0,0,0,0l0.4,0.2l11,6.3c1.3,0.7,3,1.1,4.5,1v-17.6
			c1.9,0.3,3.9,0,5.3-0.8c1-0.6,1.5-1.4,1.5-2.2v-3.5C568.1,133.1,564.7,126.7,560.5,124.3z"/>
		<path class="st4" d="M558.2,123c-0.2-0.1-0.4-0.2-0.6-0.3l-0.7-7.1l-8.4,2.6l0.9,4.5c-2.2,1.3-1.9,3.6,0.7,5
			c2.6,1.5,6.5,1.7,8.8,0.4C561.1,126.7,560.8,124.5,558.2,123z"/>
		<g>
			<path class="st6" d="M551.9,124.7c3-1.5,7.7-5.1,7.7-12.6c0-10.9-17.2-10.5-14.2,4.5c0.6,2.9,1.5,5.3,2.7,7.1l0,0
				c0.5,0.8,1.4,1.4,2.5,1.4C551,125,551.5,124.9,551.9,124.7L551.9,124.7z"/>
			<path class="st6" d="M556.8,117.6c-0.5,0-0.9-0.4-0.9-1.2c0-0.9,0.5-1.8,1.2-2.2c0.2-0.1,0.4-0.2,0.6-0.2c0.5,0,0.9,0.4,0.9,1.2
				c0,0.9-0.5,1.8-1.2,2.2C557.1,117.5,556.9,117.6,556.8,117.6z"/>
			<path class="st8" d="M546.2,108.2L546.2,108.2C546.2,108.2,546.2,108.1,546.2,108.2C546.2,108.1,546.2,108.1,546.2,108.2
				L546.2,108.2c0.1-0.2,0.2-0.3,0.3-0.5c3.4-5.1,11.5-4,12.9,2.4l0,0c0,0,0,0,0,0c0,0,0,0.1,0,0.1c0,0,0,0,0,0.1c0,0,0,0.1,0,0.1
				c0,0,0,0.1,0,0.1c0,0,0,0.1,0,0.1c0,0,0,0.1,0,0.1c0,0,0,0,0,0.1c0,0,0,0.1,0,0.1c0,0,0,0.1,0,0.1c0,0,0,0.1,0,0.1c0,0,0,0,0,0.1
				c0,0,0,0.1,0,0.1c0,0,0,0,0,0.1c0,0,0,0.1,0,0.1c0,0,0,0,0,0.1c0,0,0,0.1,0,0.1c0,0,0,0,0,0c0,0.1,0,0.1,0,0.2c0,0,0,0,0,0
				c0,0,0,0.1,0,0.1c0,0,0,0,0,0c0,0.1,0,0.1,0,0.2v0c0,0.1,0,0.2,0,0.3c0,0,0,0,0,0c0,0.1,0,0.2,0,0.3c0,0,0,0,0,0
				c0,0.1,0,0.2,0,0.3l0,0c0,0.1,0,0.2,0,0.3l0,0l0,0c-0.1,1.1-0.2,2-0.5,2.9l-0.9,0.5c0.3-0.4,0.4-1,0.4-1.4c0-0.8-0.5-1.2-0.9-1.2
				c-0.2,0-0.4,0.1-0.6,0.2c-0.5,0.3-0.9,0.9-1.1,1.6l-1.5,0.8v-1.4c0-1.3-0.8-2.8-1.8-3.4l0,0l-5.2-3v0v0l-0.1-0.1
				c-0.2-0.1-0.8-0.4-1.4-0.2C546,108.5,546.1,108.3,546.2,108.2z"/>
		</g>
	</g>
	<g>
		<path class="st6" d="M468.5,152.6l-1.7,1l0,0c-1.3,0.8-2.2,2.2-2.2,3.8c0,1.6,2,2.8,4.4,2.8c1.1,0,2.2-0.3,3-0.7l0,0l3.3-1.9
			c0.7-0.4,1.2-1.2,1.2-2.1v-2.8H468.5z"/>
		<path class="st6" d="M457.8,146.5l-1.7,1l0,0c-1.3,0.8-2.2,2.2-2.2,3.8c0,1.6,2,2.8,4.4,2.8c1.1,0,2.2-0.3,3-0.7l0,0l3.3-1.9
			c0.7-0.4,1.2-1.2,1.2-2.1v-2.8H457.8z"/>
		<path class="st6" d="M455.6,84.9v18.8c0,2.1,1.3,4.5,2.8,5.4l1.5-6.7V84.9H455.6z"/>
		<path class="st7" d="M457.8,101.3v45.2c0,1.3,1.8,2.4,4,2.4c2.2,0,4-1.1,4-2.4v-45.2H457.8z"/>
		<path class="st4" d="M469.4,110.1l-4.5-2.6v7.2c2.1,1.2,3.5,3.5,3.5,6.1v31.7c0,1.3,1.8,2.4,4,2.4c2.2,0,4-1.1,4-2.4v-42.4H469.4z
			"/>
		<path class="st6" d="M481.9,91.3H475v25.9c0,0.5,0.3,0.9,0.8,1l0,0v0c0,0,0,0,0,0c0,0,0,0,0,0c0.4,0.1,0.7,0.1,1.1,0.1
			c2.4,0,4.4-1.7,4.8-4c0-0.2,0.1-0.5,0.1-0.8c0,0,0,0,0,0L481.9,91.3z"/>
		<path class="st8" d="M474.4,75.2L474.4,75.2l-5-2.8c-0.5-0.3-1-0.5-1.5-0.6v0c0,0,0,0,0,0c0,0-0.1,0-0.1,0
			c-0.7-0.2-1.4-0.2-2.2-0.2c-4.8,0-8.9,3.5-9.7,8.1c-0.1,0.5-0.2,1-0.2,1.6c0,0,0,0,0,0c0,0.1,0,0.1,0,0.2c0,0,0,0,0,0h0
			c0,0,0,0,0,0v4.1c0.6,0.6,1.2,1.1,1.7,1.3l0.5,0.3v18.3l1.3,0.7c0,0,0,0,0,0l0.4,0.2l11,6.3c1.3,0.7,3,1.1,4.5,1V96.1
			c1.9,0.3,3.9,0,5.3-0.8c1-0.6,1.5-1.4,1.5-2.2v-3.5C481.9,84.1,478.5,77.6,474.4,75.2z"/>
		<path class="st4" d="M472,73.9c-0.2-0.1-0.4-0.2-0.6-0.3l-0.7-7.1l-8.4,2.6l0.9,4.5c-2.2,1.3-1.9,3.6,0.7,5
			c2.6,1.5,6.5,1.7,8.8,0.4C474.9,77.7,474.6,75.4,472,73.9z"/>
		<g>
			<path class="st6" d="M465.7,75.7c3-1.5,7.7-5.1,7.7-12.6c0-11-17.2-10.5-14.2,4.5c0.6,2.9,1.5,5.3,2.7,7.1l0,0
				c0.5,0.8,1.4,1.4,2.5,1.4C464.8,76,465.3,75.9,465.7,75.7L465.7,75.7z"/>
			<path class="st8" d="M468.2,63.8l-7.7-4.4c0,0-3.2-1.7-3.2-5.7l7.7,4.4C465.1,58.1,468.2,59.8,468.2,63.8z"/>
			<path class="st6" d="M470.6,68.6c-0.5,0-0.9-0.4-0.9-1.2c0-0.9,0.5-1.8,1.2-2.2c0.2-0.1,0.4-0.2,0.6-0.2c0.5,0,0.9,0.4,0.9,1.2
				c0,0.9-0.5,1.8-1.2,2.2C470.9,68.5,470.8,68.6,470.6,68.6z"/>
			<g>
				<path class="st8" d="M473.3,63c0-0.7-0.1-1.4-0.2-2l-4.9,2.8v3.8l1.5-0.8c0.2-0.7,0.6-1.3,1.1-1.6c0.2-0.1,0.4-0.2,0.6-0.2
					c0.5,0,0.9,0.4,0.9,1.2c0,0.5-0.2,1-0.4,1.4l0.9-0.5C473.2,65.9,473.3,64.5,473.3,63L473.3,63z"/>
			</g>
			<polygon class="st8" points="473.3,60.9 473.3,63.2 472.2,63.2 472.2,61.6 			"/>
			<path class="st4" d="M462.5,50.8l7.7,4.4c0,0,3.2,1.7,3.2,5.7l-5.1,2.9c0-4.1-3.2-5.7-3.2-5.7l-7.7-4.4L462.5,50.8z"/>
			<path class="st8" d="M468.2,66.2v-2.3l-1.8-1C467.4,63.4,468.2,64.9,468.2,66.2"/>
		</g>
	</g>
	<g>
    <g id = "Light2">
		<linearGradient id="SVGID_1_" gradientUnits="userSpaceOnUse" x1="494.2145" y1="118.3758" x2="511.0958" y2="89.1365">
			<stop  offset="0.1591" style="stop-color:#9FE4F4"/>
			<stop  offset="0.3102" style="stop-color:#97DCEE;stop-opacity:0.8203"/>
			<stop  offset="0.6988" style="stop-color:#87CDE3;stop-opacity:0.3582"/>
			<stop  offset="1" style="stop-color:#81C8DF;stop-opacity:0"/>
		</linearGradient>
		<polygon class="st9" points="574.4,163.7 574.4,125.7 447.6,53.2 414.5,72.3 		"/>
	</g>
	<g>
		<polygon class="st3" points="346.1,44.6 409.3,8.5 409.3,0 404.4,0 346.1,33.3 		"/>
		<polygon class="st3" points="356.1,61.6 419.3,25.5 419.3,14.2 356.1,50.3 		"/>
		<polygon class="st4" points="419.3,14.2 409.3,8.5 346.1,44.6 356.1,50.3 		"/>
		<polygon class="st3" points="366.2,78.7 429.3,42.6 429.3,31.3 366.2,67.3 		"/>
		<polygon class="st4" points="429.3,31.3 419.3,25.5 356.1,61.6 366.2,67.3 		"/>
	</g>
	<polygon class="st10" points="574.4,169.7 574.4,150 426.4,65.5 409.2,75.4 	"/>
	<polygon class="st2" points="314.6,0 297,10.1 341.9,35.7 404.4,0 	"/>
	<polygon class="st2" points="574.4,350 0,350 0,0 287.8,0 574.4,163.7 	"/>
	<polygon class="st4" points="314.6,0 0,179.7 0,0 	"/>
	<polygon class="st11" points="262.5,0 0,150 0,0 	"/>
</g>
	<g class = "Light">
		
			<linearGradient id="SVGID_2_" gradientUnits="userSpaceOnUse" x1="48.1678" y1="2851.5601" x2="48.1678" y2="2884.0105" gradientTransform="matrix(-0.866 0.5 0 -1.1547 222.4846 3283.6362)">
			<stop  offset="0" style="stop-color:#9FE4F4"/>
			<stop  offset="6.654704e-02" style="stop-color:#99DEEF;stop-opacity:0.9335"/>
			<stop  offset="0.2659" style="stop-color:#8BD1E6;stop-opacity:0.7341"/>
			<stop  offset="0.519" style="stop-color:#83CAE1;stop-opacity:0.481"/>
			<stop  offset="1" style="stop-color:#81C8DF;stop-opacity:0"/>
		</linearGradient>
		<path class="st12" d="M187.8,0l-8.2,15.7L187.8,0h-14c0,0.1,0,0.2,0,0.3c0,7.3,2.2,12.7,5.8,15.4L187.8,0L187.8,0z"/>
	</g>

	<g>
		<g>
			<path class="st2" d="M31.7,106.1c-1.9,0-3.7-0.5-5.3-1.4c-4.5-2.6-7.1-8.6-7.1-16.4c0-14.7,9-31.9,20.1-38.3
				c4.9-2.8,9.7-3.2,13.4-1c4.5,2.6,7.1,8.6,7.1,16.4c0,14.7-9,31.9-20.1,38.3C37,105.3,34.3,106.1,31.7,106.1z M47.5,48.3
				c-2.4,0-5,0.8-7.7,2.3C29,56.9,20.1,73.8,20.1,88.3c0,7.6,2.4,13.3,6.7,15.7c3.5,2,8,1.6,12.6-1c10.9-6.3,19.7-23.2,19.7-37.6
				c0-7.6-2.4-13.3-6.7-15.7C51,48.8,49.3,48.3,47.5,48.3z"/>
			<path class="st2" d="M34.5,96.1c-1.3,0-2.5-0.3-3.5-0.9c-3-1.7-4.7-5.7-4.7-10.8c0-9.7,5.9-20.9,13.2-25.1
				c3.2-1.9,6.4-2.1,8.9-0.7c3,1.7,4.7,5.7,4.7,10.8c0,9.7-5.9,20.9-13.2,25.1C38,95.5,36.1,96.1,34.5,96.1z M44.8,58.4
				c-1.5,0-3.2,0.5-5,1.5C32.8,64,27,74.9,27,84.3c0,4.9,1.6,8.6,4.3,10.2c2.2,1.3,5.1,1,8.1-0.7c7-4.1,12.8-15,12.8-24.5
				c0-4.9-1.6-8.6-4.3-10.2C47,58.7,45.9,58.4,44.8,58.4z"/>
			<path class="st2" d="M37.2,86c-0.6,0-1.2-0.2-1.7-0.5c-1.5-0.8-2.3-2.7-2.3-5.2c0-4.6,2.8-9.9,6.2-11.9c1.6-0.9,3.1-1,4.3-0.3
				c1.5,0.8,2.3,2.7,2.3,5.2c0,4.6-2.8,9.9-6.2,11.9C38.9,85.8,38,86,37.2,86z M42,68.4c-0.7,0-1.4,0.2-2.2,0.7
				c-3.2,1.9-5.9,6.9-5.9,11.3c0,2.2,0.7,3.9,1.9,4.6c1,0.6,2.3,0.5,3.6-0.3c3.2-1.9,5.9-6.9,5.9-11.3c0-2.2-0.7-3.9-1.9-4.6
				C43,68.5,42.5,68.4,42,68.4z"/>
			<g class = "Light">
				
					<linearGradient id="SVGID_3_" gradientUnits="userSpaceOnUse" x1="72.0011" y1="333.0426" x2="72.0011" y2="365.4931" gradientTransform="matrix(0.866 -0.5 0 1.1547 -12.7937 -296.1894)">
					<stop  offset="0" style="stop-color:#9FE4F4"/>
					<stop  offset="6.654704e-02" style="stop-color:#99DEEF;stop-opacity:0.9335"/>
					<stop  offset="0.2659" style="stop-color:#8BD1E6;stop-opacity:0.7341"/>
					<stop  offset="0.519" style="stop-color:#83CAE1;stop-opacity:0.481"/>
					<stop  offset="1" style="stop-color:#81C8DF;stop-opacity:0"/>
				</linearGradient>
				<path class="st13" d="M53.7,50L39.6,76.8l14.1,10.6c3.6-6.9,5.8-14.8,5.8-22.1C59.5,58.1,57.3,52.7,53.7,50z"/>
			</g>
			<path class="st2" d="M39.6,77.2c-0.1,0-0.1,0-0.2,0c-0.2-0.1-0.3-0.3-0.2-0.5l14-26.8c0.1-0.2,0.3-0.3,0.5-0.2
				c0.2,0.1,0.3,0.3,0.2,0.5L40,77C39.9,77.1,39.8,77.2,39.6,77.2z"/>
		</g>
		<path class="st14" d="M55.6,61.1c0,0.7-0.4,1.5-1,1.8c-0.5,0.3-1,0-1-0.7c0-0.7,0.4-1.5,1-1.8C55.1,60.1,55.6,60.4,55.6,61.1z"/>
		<path class="st14" d="M31.8,85.1c0,0.7-0.4,1.5-1,1.8c-0.5,0.3-1,0-1-0.7c0-0.7,0.4-1.5,1-1.8C31.3,84.1,31.8,84.4,31.8,85.1z"/>
		<path class="st14" d="M41,97.2c0,0.7-0.4,1.5-1,1.8c-0.5,0.3-1,0-1-0.7c0-0.7,0.4-1.5,1-1.8C40.6,96.2,41,96.5,41,97.2z"/>
		<path class="st14" d="M56.5,69.6c0,0.7-0.4,1.5-1,1.8c-0.5,0.3-1,0-1-0.7s0.4-1.5,1-1.8C56.1,68.5,56.5,68.9,56.5,69.6z"/>
	</g>
	<g>
		<path class="st15" d="M205.7,126.3v19.3c0,1.6,1,3.4,2.1,4.1l1.2-5.1v-18.3H205.7z"/>
		<g>
			<g>
				<path class="st15" d="M217.9,193.1l-1.7,1l0,0c-1.3,0.8-2.2,2.2-2.2,3.8c0,1.6,2,2.8,4.4,2.8c1.1,0,2.2-0.3,3-0.7l0,0l3.3-1.9
					c0.7-0.4,1.2-1.2,1.2-2.1v-2.8H217.9z"/>
			</g>
		</g>
		<g>
			<g>
				<path class="st15" d="M206.7,187l-1.7,1l0,0c-1.3,0.8-2.2,2.2-2.2,3.8c0,1.6,2,2.8,4.4,2.8c1.1,0,2.2-0.3,3-0.7l0,0l3.3-1.9
					c0.7-0.4,1.2-1.2,1.2-2.1V187H206.7z"/>
			</g>
		</g>
		<path class="st6" d="M206.7,141.9V187c0,1.3,1.8,2.4,4,2.4s4-1.1,4-2.4v-45.2H206.7z"/>
		<path class="st10" d="M218.9,150.7l-4.5-2.6v7.2c2.1,1.2,3.5,3.5,3.5,6.1v31.6c0,1.3,1.8,2.4,4,2.4c2.2,0,4-1.1,4-2.4v-42.4H218.9
			z"/>
		<g>
			<path class="st16" d="M219.5,160.8l0,1.4c-0.6-0.1-1,0.3-1,1c0,0.7,0.4,1.5,1,2.1l0,1.3c0,0-0.1,1.5,1.4,2.3l0-8.6
				C220.1,159.7,219.5,160,219.5,160.8z"/>
			<path class="st6" d="M220.1,159.2l0,10.9c0,0.6,0.6,1,1.1,0.7l12.8-7.5c0.4-0.2,0.6-0.6,0.6-1l0-10.9c0-0.6-0.6-1-1.1-0.7
				l-12.7,7.4C220.4,158.4,220.1,158.7,220.1,159.2z"/>
		</g>
		<path class="st15" d="M223.9,132.2v25.9c0,0.4,0.2,0.7,0.6,0.8c0,0,0,0,0,0v0c0,0,0,0,0,0c0,0,0,0,0,0c0.3,0.1,0.5,0.1,0.8,0.1
			c1.8,0,3.4-1.3,3.7-3.1c0-0.2,0.1-0.4,0.1-0.6c0,0,0,0,0,0c0,0,0-19.3,0-23c0-0.4-0.4-0.8-0.8-0.8h-3.7
			C224.3,131.4,223.9,131.8,223.9,132.2z"/>
		<path class="st17" d="M223.3,115.9L223.3,115.9l-5-2.8c-0.5-0.3-1-0.5-1.5-0.6v0c0,0,0,0,0,0c0,0-0.1,0-0.1,0
			c-0.7-0.2-1.4-0.2-2.2-0.2c-4.8,0-8.9,3.5-9.7,8.1c-0.1,0.5-0.2,1-0.2,1.6c0,0,0,0,0,0c0,0.1,0,0.1,0,0.2c0,0,0,0,0,0h0
			c0,0,0,0,0,0v4.1c0.6,0.6,1.2,1.1,1.6,1.3l0.5,0.3v18.3l12.7,7.3c1.3,0.7,3,1.1,4.5,1v-17.6c1.9,0.3,3.9,0,5.3-0.8
			c1-0.6,1.5-1.4,1.5-2.2v-3.5C230.8,124.7,227.4,118.3,223.3,115.9z"/>
		<path class="st18" d="M221,114.6c-2.6-1.5-6.5-1.7-8.8-0.4c-2.2,1.3-2,3.6,0.6,5.1c2.6,1.5,6.5,1.7,8.8,0.4
			C223.8,118.3,223.6,116.1,221,114.6z"/>
		<g>
			<path class="st17" d="M207.8,104v9.4c0,0,7.3-1.7,7.3-11.3L207.8,104z"/>
			<path class="st15" d="M218.2,106.5c-0.5-0.9-0.7-1.8-0.9-2.4c-0.4,0.8-0.7,1.8-0.9,2.9c-4.2-0.5-7.2-2.1-8.6-3
				c-0.1,1.2,0,2.6,0.3,4.1c0.6,2.9,1.5,5.3,2.7,7.1l0,0c0.5,0.8,1.4,1.4,2.5,1.4c0.5,0,0.9-0.1,1.3-0.3l0,0
				c1.3-0.7,3.1-1.8,4.5-3.6c0.7-0.8,1.3-1.7,1.8-2.8C219.7,108.9,218.8,107.7,218.2,106.5z"/>
			<path class="st17" d="M216.5,96.2c-0.3-0.1-0.6-0.1-1-0.1c-0.2,0-0.3,0-0.3,0l0,0c-3.5,0-7.2,2.5-7.5,7.9c1.5,1,4.4,2.5,8.6,3
				v9.9c0,0,7.3-1.7,7.3-11.3C223.7,98.3,218.9,96.6,216.5,96.2z"/>
		</g>
		<path id="XMLID_402_" class="st18" d="M214.5,126.7c0.6,0.3,1.1,0.6,1.7,0.7v-2.1c-0.5-0.5-1.1-0.9-1.7-1.3
			c-0.6-0.3-1.1-0.6-1.7-0.7c-0.6-0.1-1.2-0.1-1.6,0.1c-0.1,0-0.1,0.1-0.2,0.1v6c0.1,0,0.1-0.1,0.2-0.1c0.5-0.2,1-0.2,1.6-0.1v-3.9
			C213.4,125.9,213.9,126.3,214.5,126.7z M217.8,127.2c-0.5,0.2-1,0.2-1.6,0.1v3.9c-0.5-0.5-1.1-0.9-1.7-1.3s-1.1-0.6-1.7-0.7v2.1
			c0.5,0.5,1.1,0.9,1.7,1.3s1.1,0.6,1.7,0.7c0.6,0.1,1.2,0.1,1.6-0.1c0.1,0,0.1-0.1,0.2-0.1v-6C218,127.2,217.9,127.2,217.8,127.2z"
			/>
	</g>
	<g>
		<path class="st15" d="M60.7,217l1.7,1l0,0c1.3,0.8,2.2,2.2,2.2,3.8c0,1.6-2,2.8-4.4,2.8c-1.1,0-2.2-0.3-3-0.7l0,0l-3.3-1.9
			c-0.7-0.4-1.2-1.2-1.2-2.1V217H60.7z"/>
		<path class="st15" d="M71.3,210.9l1.7,1l0,0c1.3,0.8,2.2,2.2,2.2,3.8c0,1.6-2,2.8-4.4,2.8c-1.1,0-2.2-0.3-3-0.7l0,0l-3.3-1.9
			c-0.7-0.4-1.2-1.2-1.2-2.1v-2.8H71.3z"/>
		<path class="st15" d="M73.5,149.4v18.8c0,2.1-1.3,4.5-2.8,5.4l-1.5-6.7v-17.5H73.5z"/>
		<path class="st6" d="M71.3,165.7v45.2c0,1.3-1.8,2.4-4,2.4s-4-1.1-4-2.4v-45.2H71.3z"/>
		<path class="st10" d="M59.7,174.6l4.5-2.6v7.2c-2.1,1.2-3.5,3.5-3.5,6.1V217c0,1.3-1.8,2.4-4,2.4c-2.2,0-4-1.1-4-2.4v-42.4H59.7z"
			/>
		<polygon class="st15" points="47.3,162.6 47.3,155.8 54.1,155.8 54.1,167.4 		"/>
		<path class="st17" d="M54.8,139.7L54.8,139.7l5-2.8c0.5-0.3,1-0.5,1.5-0.6v0c0,0,0,0,0,0c0,0,0.1,0,0.1,0c0.7-0.2,1.4-0.2,2.2-0.2
			c4.8,0,8.9,3.5,9.7,8.1c0.1,0.5,0.2,1,0.2,1.6c0,0,0,0,0,0c0,0.1,0,0.1,0,0.2c0,0,0,0,0,0h0c0,0,0,0,0,0v4.1
			c-0.6,0.6-1.2,1.1-1.6,1.3l-0.5,0.3v18.3l-1.3,0.7c0,0,0,0,0,0l-0.4,0.2l-11,6.3c-1.3,0.7-3,1.1-4.5,1v-17.6
			c-1.9,0.3-3.9,0-5.3-0.8c-1-0.6-1.5-1.4-1.5-2.2v-3.5C47.3,148.6,50.6,142.1,54.8,139.7z"/>
		<rect x="52.6" y="163.9" class="st17" width="1.5" height="14.3"/>
		<path id="XMLID_399_" class="st18" d="M65.2,149.3v3.9c0.6-0.1,1.2-0.1,1.6,0.1c0.1,0,0.1,0.1,0.2,0.1v-6c-0.1,0-0.1-0.1-0.2-0.1
			c-0.5-0.2-1-0.2-1.6-0.1c-0.5,0.1-1.1,0.3-1.7,0.7c-0.6,0.3-1.1,0.8-1.7,1.3v2.1c0.5-0.1,1.1-0.3,1.7-0.7S64.7,149.8,65.2,149.3z
			 M60,151v6c0.1,0,0.1,0.1,0.2,0.1c0.5,0.2,1,0.2,1.6,0.1c0.5-0.1,1.1-0.3,1.7-0.7c0.6-0.3,1.1-0.8,1.7-1.3v-2.1
			c-0.5,0.1-1.1,0.3-1.7,0.7c-0.6,0.3-1.1,0.8-1.7,1.3v-3.9c-0.6,0.1-1.2,0.1-1.6-0.1C60.1,151.1,60.1,151.1,60,151z"/>
		<path class="st18" d="M57.1,138.4c0.2-0.1,0.4-0.2,0.6-0.3l0.7-7.1l8.4,2.6l-0.9,4.5c2.2,1.3,1.9,3.5-0.7,5
			c-2.6,1.5-6.5,1.7-8.8,0.4C54.2,142.2,54.5,139.9,57.1,138.4z"/>
		<g>
			<path class="st15" d="M63.4,140.2c-3-1.5-7.7-5.1-7.7-12.6C55.8,116.6,73,117,70,132c-0.6,2.9-1.5,5.3-2.7,7.1l0,0
				c-0.5,0.8-1.4,1.4-2.5,1.4C64.3,140.5,63.8,140.4,63.4,140.2L63.4,140.2z"/>
			<path class="st15" d="M58.6,133.1c0.5,0,0.9-0.4,0.9-1.2c0-0.9-0.5-1.8-1.2-2.2c-0.2-0.1-0.4-0.2-0.6-0.2c-0.5,0-0.9,0.4-0.9,1.2
				c0,0.9,0.5,1.8,1.2,2.2C58.2,133,58.4,133.1,58.6,133.1z"/>
			<path class="st17" d="M69.1,123.7L69.1,123.7C69.1,123.6,69.1,123.6,69.1,123.7C69.1,123.6,69.1,123.6,69.1,123.7L69.1,123.7
				c-0.1-0.2-0.2-0.3-0.3-0.5c-3.4-5.1-11.5-4-12.9,2.4l0,0c0,0,0,0,0,0c0,0,0,0.1,0,0.1c0,0,0,0,0,0.1c0,0,0,0.1,0,0.1
				c0,0,0,0.1,0,0.1c0,0,0,0.1,0,0.1c0,0,0,0.1,0,0.1c0,0,0,0,0,0.1c0,0,0,0.1,0,0.1c0,0,0,0.1,0,0.1c0,0,0,0.1,0,0.1c0,0,0,0,0,0.1
				c0,0,0,0.1,0,0.1c0,0,0,0,0,0.1c0,0,0,0.1,0,0.1c0,0,0,0,0,0.1c0,0,0,0.1,0,0.1c0,0,0,0,0,0c0,0.1,0,0.1,0,0.2c0,0,0,0,0,0
				c0,0,0,0.1,0,0.1c0,0,0,0,0,0c0,0.1,0,0.1,0,0.2v0c0,0.1,0,0.2,0,0.3c0,0,0,0,0,0c0,0.1,0,0.2,0,0.3c0,0,0,0,0,0
				c0,0.1,0,0.2,0,0.3l0,0c0,0.1,0,0.2,0,0.3l0,0h0c0.1,1.1,0.2,2,0.5,2.9l0.9,0.5c-0.3-0.4-0.4-1-0.4-1.4c0-0.8,0.5-1.2,0.9-1.2
				c0.2,0,0.4,0.1,0.6,0.2c0.5,0.3,0.9,0.9,1.1,1.6l1.5,0.8v-1.4c0-1.3,0.8-2.8,1.8-3.4l0,0l5.2-3v0l0,0l0.1-0.1
				c0.2-0.1,0.8-0.4,1.4-0.2C69.3,123.9,69.2,123.8,69.1,123.7z"/>
		</g>
	</g>
	<path class="st2" d="M102.7,57.2c-0.1,0-0.2,0-0.3-0.1l-5.7-6.7c-0.1-0.1-0.1-0.2-0.1-0.3l0.3-8.6l-0.6-3.2c0-0.2,0.1-0.4,0.2-0.4
		l1.3-0.5v-1c0-0.1,0.1-0.3,0.2-0.3l21.4-12.3c0,0,0.1,0,0.2,0l2.9-0.3l1.4-0.8c0.1-0.1,0.3-0.1,0.4,0c0.1,0.1,0.2,0.2,0.2,0.4
		l-0.5,2.3l1.1,0c0.1,0,0.3,0.1,0.3,0.2l0.4,1l1.6-2.4c0.1-0.1,0.2-0.2,0.4-0.2l1.2,0.1c0.2,0,0.3,0.2,0.3,0.4v1.2c0,0,0,0,0,0
		c0.1,0,0.2,0,0.2,0c0.1,0,0.2,0.2,0.3,0.3l0.2,1.5c0,0.1,0,0.1,0,0.2l-0.4,0.9l1.4-1.7l0.2-1.6c0-0.1,0.1-0.2,0.1-0.2l2.2-1.7
		l1-2.2c0-0.1,0.1-0.1,0.2-0.2l3-1.7l0.8-1.3v-1.6c0-0.1,0-0.1,0-0.2l0.8-1.6c0.1-0.1,0.2-0.2,0.3-0.2l1.3-0.2c0.1,0,0.2,0,0.3,0.1
		c0.1,0.1,0.1,0.2,0.1,0.3v2.1l0.7,0.7c0.1,0.1,0.1,0.3,0,0.5l-2.4,3.1l-0.5,2.1l0.4,0.2c0.1,0.1,0.2,0.2,0.2,0.3v0.6
		c0,0.1,0,0.2-0.1,0.3l-2.7,2.7l-1.8,4.7l0.2,2.3c0,0.1,0,0.1,0,0.2l-4.5,8.3l1.1,4c0,0.1,0,0.1,0,0.2l-0.3,2.3
		c0,0.1-0.1,0.2-0.2,0.3l-0.8,0.5c-0.1,0.1-0.2,0.1-0.3,0c-0.1,0-0.2-0.1-0.2-0.2l-1.2-2.2c0-0.1,0-0.1,0-0.2V46l-2.3,0.1l-3,3.1
		c0,0-0.1,0.1-0.2,0.1l-2.4,0.7l-2.1,3.2v2.5c0,0.2-0.1,0.3-0.3,0.4l-2,0.3c-0.1,0-0.3,0-0.4-0.2l-1.6-2.3l-1,1.2
		c-0.1,0.1-0.3,0.2-0.5,0.1l-2.4-1.6l-0.7,0.4v0.6c0,0.2-0.1,0.3-0.3,0.4l-7.2,2.2C102.8,57.2,102.7,57.2,102.7,57.2z M97.4,50
		l5.4,6.4l6.7-2.1v-0.6c0-0.1,0.1-0.3,0.2-0.3l1.1-0.6c0.1-0.1,0.3-0.1,0.4,0l2.3,1.6l1.1-1.3c0.1-0.1,0.2-0.1,0.3-0.1
		c0.1,0,0.2,0.1,0.3,0.2l1.7,2.5l1.5-0.2v-2.3c0-0.1,0-0.1,0.1-0.2l2.2-3.4c0-0.1,0.1-0.1,0.2-0.2l2.5-0.8l3-3.1
		c0.1-0.1,0.2-0.1,0.2-0.1l2.8-0.2c0.1,0,0.2,0,0.3,0.1s0.1,0.2,0.1,0.3v1.8l0.9,1.7l0.3-0.2l0.3-2.1l-1.2-4.1c0-0.1,0-0.2,0-0.3
		l4.5-8.3l-0.2-2.2c0-0.1,0-0.1,0-0.2l1.8-4.9c0,0,0-0.1,0.1-0.1l2.6-2.7v-0.2l-0.4-0.2c-0.2-0.1-0.3-0.3-0.2-0.4l0.6-2.5
		c0-0.1,0-0.1,0.1-0.1l2.3-2.9l-0.5-0.6c-0.1-0.1-0.1-0.2-0.1-0.3V15l-0.7,0.1l-0.6,1.4v1.7c0,0.1,0,0.1-0.1,0.2l-0.9,1.5
		c0,0.1-0.1,0.1-0.1,0.1l-3,1.7l-1,2.2c0,0.1-0.1,0.1-0.1,0.1l-2.1,1.7l-0.2,1.6c0,0.1,0,0.1-0.1,0.2l-1.9,2.3
		c-0.1,0.1-0.2,0.1-0.3,0.1l-0.6,0c-0.1,0-0.2-0.1-0.3-0.2c-0.1-0.1-0.1-0.2,0-0.3l0.7-1.7l-0.1-0.7l-0.4,0.4
		c-0.1,0.1-0.2,0.1-0.3,0.1c-0.1,0-0.2,0-0.3-0.1l-0.2-0.2c-0.1-0.1-0.1-0.3-0.1-0.4l0.6-1v-0.8l-0.6-0.1l-1.9,2.7
		c-0.1,0.1-0.2,0.2-0.3,0.2c-0.1,0-0.3-0.1-0.3-0.2l-0.6-1.4l-1.4,0c-0.1,0-0.2-0.1-0.3-0.1c-0.1-0.1-0.1-0.2-0.1-0.3l0.4-2
		l-0.8,0.5c0,0-0.1,0-0.2,0l-2.9,0.3L98.7,36.6v1.1c0,0.2-0.1,0.3-0.3,0.4l-1.3,0.4l0.5,3L97.4,50z M98.3,37.7L98.3,37.7L98.3,37.7z
		"/>
	<g>
		<g>
			<path class="st4" d="M69.3,167.6l1.2,0.7c0.2-0.5,0.7-0.7,1.3-0.4c0.6,0.3,1.1,1.1,1.3,1.9l1.1,0.6c0,0,1.3,0.7,1.3,2.4l-7.4-4.3
				C68.1,167.6,68.6,167.2,69.3,167.6z"/>
			<path class="st16" d="M67.6,167.3l9.5,5.4c0.5,0.3,0.5,1,0,1.3l-12.8,7.3c-0.4,0.2-0.8,0.2-1.2,0l-9.4-5.4c-0.5-0.3-0.5-1,0-1.3
				l12.8-7.3C66.8,167.1,67.2,167.1,67.6,167.3z"/>
		</g>
		<path class="st15" d="M60.6,174.2l-10-5.7c-2.1-1.2-3.4-3.4-3.4-5.9l6.5-0.3l11.9,6.8L60.6,174.2z"/>
		<path class="st15" d="M67.9,172.8c0-2.3-1.9-4.2-4.2-4.2s-4.2,1.9-4.2,4.2c0,0.5,0.4,1,1.1,1.4c0.8,0.5,1.9,0.7,3.1,0.7
			c1.2,0,2.3-0.2,3.1-0.7C67.5,173.8,67.9,173.3,67.9,172.8z"/>
	</g>
	<polygon class="st3" points="79.6,104.5 76.9,106 76.9,0 79.6,0 	"/>
	<polygon class="st1" points="76.9,135.8 76.9,106 79.6,104.5 79.6,134.3 	"/>
	<g>
		<path class="st19" d="M185.3,6.5c2.2,1.3,5.1,1,8.1-0.7c2.3-1.3,4.4-3.4,6.3-5.8h-18.3C182,3.1,183.3,5.4,185.3,6.5z"/>
		<path class="st19" d="M193.8,6.5c-1.8,1.1-3.7,1.6-5.3,1.6c-1.3,0-2.5-0.3-3.5-0.9c-2.2-1.3-3.7-3.8-4.4-7.2h-6.5
			c0,0.1,0,0.2,0,0.3c0,7.6,2.4,13.3,6.7,15.7c3.5,2,8,1.6,12.6-1c5.2-3,10-8.5,13.5-15h-6.4C198.6,2.8,196.3,5,193.8,6.5z M194,11
			c-0.5,0.3-1,0-1-0.7s0.4-1.5,1-1.8c0.5-0.3,1,0,1,0.7C195,9.9,194.6,10.7,194,11z"/>
		<path class="st2" d="M207,0c-3.5,6.5-8.3,12-13.5,15c-4.7,2.7-9.1,3.1-12.6,1c-4.2-2.5-6.7-8.2-6.7-15.7c0-0.1,0-0.2,0-0.3h-0.8
			c0,0.1,0,0.2,0,0.3c0,7.8,2.6,13.8,7.1,16.4c1.6,0.9,3.4,1.4,5.3,1.4c2.5,0,5.3-0.8,8.1-2.4c5.4-3.1,10.4-8.9,14-15.7H207z"/>
		<path class="st2" d="M193.4,5.8c-3,1.7-5.9,2-8.1,0.7c-2-1.2-3.4-3.5-4-6.5h-0.8c0.6,3.4,2.1,5.9,4.4,7.2c1.1,0.6,2.3,0.9,3.5,0.9
			c1.7,0,3.5-0.5,5.3-1.6c2.5-1.4,4.8-3.7,6.8-6.5h-0.9C197.8,2.5,195.7,4.5,193.4,5.8z"/>
		<path class="st14" d="M194,8.5c-0.5,0.3-1,1.1-1,1.8s0.4,1,1,0.7c0.5-0.3,1-1.1,1-1.8C195,8.5,194.6,8.2,194,8.5z"/>
	</g>
	<polygon class="st3" points="233.5,16.6 230.9,18.1 230.9,0 233.5,0 	"/>
	<polygon class="st1" points="230.9,47.8 230.9,18.1 233.5,16.6 233.5,46.3 	"/>
	<polygon class="st3" points="156.1,60.8 153.4,62.3 153.4,0 156.1,0 	"/>
	<polygon class="st1" points="153.4,92.1 153.4,62.3 156.1,60.8 156.1,90.6 	"/>
	<g>
		<path class="st6" d="M163.5,134.4c-0.7-0.7-1.8-1.2-3-1.1c-1.8,0.1-3.3,1.6-3.4,3.5c0,0.1,0,0.2,0,0.3c0,0.7,0.4,1.4,1,1.7
			l4.7,2.7c1.2,0.7,2.8,0.7,4,0l1.8-1c0.6-0.4,1-1,1-1.7v-4.3L163.5,134.4z"/>
		<path class="st6" d="M152.3,140.5c-0.7-0.7-1.8-1.2-3-1.1c-1.8,0.1-3.3,1.6-3.4,3.5c0,0.1,0,0.2,0,0.3c0,0.7,0.4,1.4,1,1.7
			l4.7,2.7c1.2,0.7,2.8,0.7,4,0l1.8-1c0.6-0.4,1-1,1-1.7v-4.3L152.3,140.5z"/>
		<path class="st6" d="M170.7,74.1v19.3c0,1.6-1,3.4-2.1,4.1l-1.2-5.1V74.1H170.7z"/>
		<path class="st7" d="M169.6,89.6v45.1c0,1.3-1.8,2.4-4,2.4s-4-1.1-4-2.4V89.6H169.6z"/>
		<path class="st4" d="M169.6,97.8v-4l-7.7,2.1l-4.5,2.6h-7.1v42.3c0,1.3,1.8,2.4,4,2.4c2.2,0,4-1.1,4-2.4v-29.3
			c0-2.6,1.4-4.9,3.5-6.1l7.7-4.4V97.8z"/>
		<path class="st6" d="M152.4,80v25.8c0,0.4-0.2,0.7-0.6,0.8c0,0,0,0,0,0v0c0,0,0,0,0,0c0,0,0,0,0,0c-0.3,0.1-0.5,0.1-0.8,0.1
			c-1.8,0-3.4-1.3-3.7-3.1c0-0.2-0.1-0.4-0.1-0.6c0,0,0,0,0,0c0,0,0-19.2,0-23c0-0.4,0.4-0.8,0.8-0.8h3.7
			C152.1,79.2,152.4,79.5,152.4,80z"/>
		<path class="st8" d="M153.1,63.7L153.1,63.7l5-2.8c0.5-0.3,1-0.5,1.5-0.6v0c0,0,0,0,0,0c0,0,0.1,0,0.1,0c0.7-0.2,1.4-0.2,2.2-0.2
			c4.8,0,8.8,3.5,9.7,8c0.1,0.5,0.2,1,0.2,1.6c0,0,0,0,0,0c0,0.1,0,0.1,0,0.2c0,0,0,0,0,0h0c0,0,0,0,0,0v4.1
			c-0.6,0.6-1.2,1.1-1.6,1.3l-0.5,0.3v18.3l-12.7,7.3c-1.3,0.7-3,1.1-4.5,1V84.5c-1.9,0.3-3.9,0-5.3-0.8c-1-0.6-1.5-1.4-1.5-2.2V78
			C145.6,72.5,148.9,66,153.1,63.7z"/>
		<path class="st4" d="M155.5,62.3c2.1-1.2,5.4-1.4,7.2-0.3s1.6,2.9-0.5,4.2s-5.4,1.4-7.2,0.3S153.4,63.5,155.5,62.3z"/>
		<g>
			<path class="st8" d="M151.7,51v9.4c0,0,7.3-1.7,7.3-11.3L151.7,51z"/>
			<path class="st8" d="M160.4,43.2c-0.3-0.1-0.6-0.1-1-0.1c-0.2,0-0.3,0-0.3,0l0,0c-3.5,0-7.1,2.5-7.5,7.9c1.5,0.9,4.4,2.5,8.6,3
				v8.4c0,0,7.3-0.2,7.3-9.8C167.6,45.3,162.8,43.6,160.4,43.2z"/>
		</g>
		<path class="st8" d="M167.6,52.6c-0.2,2.2-0.3,3.7-0.9,5.1c-3.9,10-15,2.7-15,2.7l2.1-7.1L167.6,52.6z"/>
	</g>
	<path class="st1" d="M78,252.2c0,20.7,33.8,37.4,75.6,37.4s75.6-16.8,75.6-37.4v-50.4H78V252.2z"/>
	<ellipse class="st4" cx="153.6" cy="222.3" rx="106.9" ry="53"/>
	<polygon class="st4" points="248.3,197.7 236.1,186.2 71.1,186.2 58.9,197.7 	"/>
	<ellipse class="st11" cx="153.6" cy="206.8" rx="92.4" ry="45.8"/>
	<linearGradient id="SVGID_4_" gradientUnits="userSpaceOnUse" x1="152.2605" y1="229.2966" x2="152.2605" y2="112.5513">
		<stop  offset="0" style="stop-color:#9FE4F4"/>
		<stop  offset="0.1797" style="stop-color:#97DCEE;stop-opacity:0.8203"/>
		<stop  offset="0.6418" style="stop-color:#87CDE3;stop-opacity:0.3582"/>
		<stop  offset="1" style="stop-color:#81C8DF;stop-opacity:0"/>
	</linearGradient>
	<path class = "st20" d="M106.8,112.6v94.2c0,12.4,20.3,22.5,45.4,22.5s45.4-10.1,45.4-22.5v-94.2H106.8z"/>
	<linearGradient id="SVGID_5_" gradientUnits="userSpaceOnUse" x1="151.8017" y1="210.7543" x2="151.8017" y2="145.6293">
		<stop  offset="0" style="stop-color:#9FE4F4"/>
		<stop  offset="0.1797" style="stop-color:#97DCEE;stop-opacity:0.8203"/>
		<stop  offset="0.6418" style="stop-color:#87CDE3;stop-opacity:0.3582"/>
		<stop  offset="1" style="stop-color:#81C8DF;stop-opacity:0"/>
	</linearGradient>
	<path class = "st21" d="M133.9,145.6v52.6c0,6.9,8,12.6,17.9,12.6c9.9,0,17.9-5.6,17.9-12.6v-52.6H133.9z"/>
	<ellipse class = "st22" cx="152.3" cy="206.8" rx="45.4" ry="22.5"/>
	<path class = "Hologram st15" d="M152.3,178.4c-25.3,0-45.8-20.6-45.8-45.8s20.6-45.8,45.8-45.8c25.3,0,45.8,20.6,45.8,45.8
		S177.5,178.4,152.3,178.4z M152.3,87.5c-24.8,0-45.1,20.2-45.1,45.1s20.2,45.1,45.1,45.1s45.1-20.2,45.1-45.1
		S177.1,87.5,152.3,87.5z"/>
	<path class = "Hologram st15" d="M152.3,155.4c-25.3,0-45.8-10.3-45.8-22.9s20.6-22.9,45.8-22.9c25.3,0,45.8,10.3,45.8,22.9
		S177.5,155.4,152.3,155.4z M152.3,110.4c-24.8,0-45.1,9.9-45.1,22.1c0,12.2,20.2,22.1,45.1,22.1s45.1-9.9,45.1-22.1
		C197.3,120.3,177.1,110.4,152.3,110.4z"/>
	<path class = "Hologram st15" d="M152.3,170.4c-22.8,0-41.4-9.3-41.4-20.7s18.6-20.7,41.4-20.7s41.4,9.3,41.4,20.7S175.1,170.4,152.3,170.4z
		 M152.3,129.8c-22.4,0-40.6,8.9-40.6,19.9s18.2,19.9,40.6,19.9s40.6-8.9,40.6-19.9S174.7,129.8,152.3,129.8z"/>
	<g id = "Hologram" class="st23">
		<path class="Hologram st15" d="M147,155.6c-4.5-0.1-8.7-1.7-12.3-4.4c0.6,0.1,1.3,0.2,1.9,0.2c3.8,0.1,7.3-1.3,10.1-3.7
			c-3.5-0.1-6.4-2.9-7.4-6.5c0.5,0.1,1,0.2,1.5,0.2c0.7,0,1.4-0.1,2.1-0.3c-3.7-0.9-6.4-4.7-6.3-9.1c0,0,0-0.1,0-0.1
			c1.1,0.7,2.3,1.1,3.6,1.2c-2.1-1.7-3.5-4.5-3.4-7.7c0-1.7,0.5-3.2,1.2-4.6c3.9,5.6,9.7,9.4,16.4,9.9c-0.1-0.7-0.2-1.4-0.2-2.1
			c0.1-5.1,3.8-9.1,8.2-9c2.3,0,4.4,1.2,5.8,3c1.8-0.4,3.6-1.1,5.2-2.1c-0.6,2.1-2,3.9-3.6,5c1.6-0.2,3.2-0.6,4.7-1.3
			c-1.1,1.8-2.5,3.4-4.1,4.7c0,0.4,0,0.8,0,1.2C170.2,142.1,161.8,155.9,147,155.6"/>
	</g>
	<path class = "Hologram st15" d="M152.3,136.1c-22.8,0-41.4-9.3-41.4-20.7s18.6-20.7,41.4-20.7s41.4,9.3,41.4,20.7S175.1,136.1,152.3,136.1z
		 M152.3,95.5c-22.4,0-40.6,8.9-40.6,19.9s18.2,19.9,40.6,19.9s40.6-8.9,40.6-19.9S174.7,95.5,152.3,95.5z"/>
	<path class = "Hologram st15" d="M152.3,112.7c-14.2,0-25.8-5.8-25.8-13s11.6-13,25.8-13s25.8,5.8,25.8,13S166.5,112.7,152.3,112.7z
		 M152.3,87.5c-13.8,0-25.1,5.5-25.1,12.2s11.3,12.2,25.1,12.2s25.1-5.5,25.1-12.2S166.1,87.5,152.3,87.5z"/>
	<path class = "Hologram st15" d="M152.3,95.6c-4.8,0-8.5-1.9-8.5-4.4s3.7-4.4,8.5-4.4c4.8,0,8.5,1.9,8.5,4.4S157,95.6,152.3,95.6z M152.3,87.5
		c-4.2,0-7.8,1.7-7.8,3.7s3.6,3.7,7.8,3.7c4.2,0,7.8-1.7,7.8-3.7S156.5,87.5,152.3,87.5z"/>
	<path class = "Hologram st15" d="M152.3,173.6c-4.8,0-8.5-1.9-8.5-4.4c0-2.5,3.7-4.4,8.5-4.4c4.8,0,8.5,1.9,8.5,4.4
		C160.8,171.7,157,173.6,152.3,173.6z M152.3,165.5c-4.2,0-7.8,1.7-7.8,3.7s3.6,3.7,7.8,3.7c4.2,0,7.8-1.7,7.8-3.7
		S156.5,165.5,152.3,165.5z"/>
	<path class = "Hologram st15" d="M152.3,178.4c-14.2,0-25.8-5.8-25.8-13s11.6-13,25.8-13s25.8,5.8,25.8,13S166.5,178.4,152.3,178.4z
		 M152.3,153.1c-13.8,0-25.1,5.5-25.1,12.2c0,6.7,11.3,12.2,25.1,12.2s25.1-5.5,25.1-12.2C177.3,158.6,166.1,153.1,152.3,153.1z"/>
	<g>
		<circle class = "Hologram2 st14" cx="170.4" cy="111.1" r="2.7"/>
		<path class = "Hologram2 st14" d="M170.4,117.3c-3.5,0-6.3-2.8-6.3-6.3s2.8-6.3,6.3-6.3s6.3,2.8,6.3,6.3S173.8,117.3,170.4,117.3z
			 M170.4,105.6c-3,0-5.5,2.5-5.5,5.5s2.5,5.5,5.5,5.5s5.5-2.5,5.5-5.5S173.4,105.6,170.4,105.6z"/>
	</g>
	<g>
		<path class = "Hologram st14" d="M198,128.8c0.1,1.9-0.5,3.7-1.3,4.1s-1.6-0.8-1.7-2.7c-0.1-1.9,0.5-3.7,1.3-4.1S197.9,126.9,198,128.8z"/>
		<path class = "Hologram st14" d="M197,137.5c-1.9,0.9-3.7-2-4-6.4c-0.3-4.4,1.1-8.7,3-9.6c1.9-0.9,3.7,2,4,6.4S199,136.6,197,137.5z
			 M196,122.5c-1.7,0.8-2.9,4.6-2.6,8.4c0.3,3.9,1.8,6.4,3.6,5.6c1.7-0.8,2.9-4.6,2.6-8.4C199.3,124.2,197.8,121.7,196,122.5z"/>
	</g>
	<g>
		<path class = "Hologram st14" d="M188.9,159.2c0.1,1.3-0.4,2.6-1,2.9s-1.3-0.6-1.4-1.9c-0.1-1.3,0.4-2.6,1-2.9S188.8,157.8,188.9,159.2z"/>
		<path class = "Hologram st14" d="M188.2,165.3c-1.5,0.6-3-1.4-3.2-4.5c-0.2-3.1,0.8-6.1,2.4-6.8c1.5-0.6,3,1.4,3.2,4.5
			S189.7,164.7,188.2,165.3z M187.4,154.7c-1.4,0.6-2.3,3.2-2.1,6c0.2,2.7,1.5,4.5,2.8,4c1.4-0.6,2.3-3.2,2.1-6
			C190,155.9,188.7,154.2,187.4,154.7z"/>
	</g>
	<g>
		<circle class = "Hologram st14" cx="149.8" cy="153.5" r="2.7"/>
		<path class = "Hologram st14" d="M149.8,159.8c-3.5,0-6.3-2.8-6.3-6.3s2.8-6.3,6.3-6.3s6.3,2.8,6.3,6.3S153.3,159.8,149.8,159.8z M149.8,148
			c-3,0-5.5,2.5-5.5,5.5s2.5,5.5,5.5,5.5s5.5-2.5,5.5-5.5S152.8,148,149.8,148z"/>
	</g>
	<g>
		<path class = "Hologram st14" d="M118.6,160.4c0,1.7-1,2.5-2.3,1.8c-1.3-0.7-2.3-2.7-2.3-4.5s1-2.5,2.3-1.8
			C117.5,156.7,118.6,158.7,118.6,160.4z"/>
		<path class = "Hologram st14" d="M116.2,166.3c-3-1.7-5.4-6.4-5.4-10.4c0-4,2.4-5.8,5.4-4.1c3,1.7,5.4,6.4,5.4,10.4
			C121.7,166.2,119.2,168,116.2,166.3z M116.2,152.7c-2.6-1.5-4.8,0.1-4.8,3.6s2.1,7.6,4.8,9.1c2.6,1.5,4.8-0.1,4.8-3.6
			S118.9,154.2,116.2,152.7z"/>
	</g>
	<g>
		<path class = "Hologram st14" d="M129.2,133.4c-0.5,1.5-1.9,2.1-3.2,1.4s-1.8-2.5-1.3-4c0.5-1.5,1.9-2.1,3.2-1.4S129.8,132,129.2,133.4z"/>
		<path class = "Hologram st14" d="M124.8,138.4c-2.9-1.7-4.2-5.9-3-9.3c1.2-3.5,4.5-4.9,7.4-3.3c2.9,1.7,4.2,5.9,3,9.3
			C131,138.6,127.7,140.1,124.8,138.4z M128.9,126.6c-2.5-1.5-5.4-0.2-6.5,2.9c-1.1,3.1,0.1,6.7,2.7,8.2c2.5,1.5,5.4,0.2,6.5-2.9
			C132.6,131.8,131.5,128.1,128.9,126.6z"/>
	</g>
	<g>
		<path class = "Hologram st14" d="M117.8,106.5c-0.4,1.7-2,3.3-3.4,3.7s-2.2-0.6-1.8-2.3c0.4-1.7,2-3.3,3.4-3.7S118.3,104.8,117.8,106.5z"/>
		<path class = "Hologram st14" d="M113.4,114.2c-3.3,0.9-5.2-1.5-4.2-5.4c1-3.9,4.6-7.7,7.9-8.6c3.3-0.9,5.2,1.5,4.2,5.4
			C120.3,109.4,116.7,113.3,113.4,114.2z M116.9,101c-2.9,0.8-6.1,4.2-6.9,7.6c-0.9,3.4,0.8,5.5,3.7,4.7c2.9-0.8,6.1-4.2,6.9-7.6
			C121.4,102.4,119.8,100.2,116.9,101z"/>
	</g>
	<g>
		<path class="st6" d="M214.3,310.7c-0.7-0.7-1.8-1.2-3-1.1c-1.8,0.1-3.3,1.6-3.4,3.4c0,0.1,0,0.2,0,0.3c0,0.7,0.4,1.4,1,1.7
			l4.7,2.7c1.2,0.7,2.8,0.7,4,0l1.8-1c0.6-0.4,1-1,1-1.7v-4.3L214.3,310.7z"/>
		<path class="st6" d="M203.2,316.7c-0.7-0.7-1.8-1.2-3-1.1c-1.8,0.1-3.3,1.6-3.4,3.4c0,0.1,0,0.2,0,0.3c0,0.7,0.4,1.4,1,1.7
			l4.7,2.7c1.2,0.7,2.8,0.7,4,0l1.8-1c0.6-0.4,1-1,1-1.7v-4.3L203.2,316.7z"/>
		<path class="st6" d="M221.5,250.7v19.2c0,1.6-0.9,3.4-2.1,4l-1.1-5v-18.2H221.5z"/>
		<path class="st7" d="M220.4,266.2V311c0,1.3-1.8,2.4-4,2.4s-4-1.1-4-2.4v-44.9H220.4z"/>
		<path class="st4" d="M220.4,274.3v-4l-7.6,2.1l-4.4,2.5h-7.1v42.1c0,1.3,1.8,2.4,4,2.4c2.2,0,4-1.1,4-2.4v-29.2
			c0-2.6,1.4-4.8,3.5-6l7.6-4.4V274.3z"/>
		<path class="st6" d="M203.3,256.6v25.7c0,0.4-0.2,0.7-0.6,0.8c0,0,0,0,0,0v0c0,0,0,0,0,0c0,0,0,0,0,0c-0.3,0.1-0.5,0.1-0.8,0.1
			c-1.8,0-3.4-1.3-3.7-3.1c0-0.2-0.1-0.4-0.1-0.6c0,0,0,0,0,0c0,0,0-19.1,0-22.9c0-0.4,0.4-0.8,0.8-0.8h3.6
			C202.9,255.8,203.3,256.1,203.3,256.6z"/>
		<path class="st8" d="M204,240.3L204,240.3l4.9-2.8c0.5-0.3,1-0.5,1.5-0.6v0c0,0,0,0,0,0c0,0,0.1,0,0.1,0c0.7-0.2,1.4-0.2,2.2-0.2
			c4.8,0,8.8,3.4,9.7,8c0.1,0.5,0.2,1,0.2,1.5c0,0,0,0,0,0c0,0.1,0,0.1,0,0.2c0,0,0,0,0,0h0c0,0,0,0,0,0v4.1
			c-0.6,0.6-1.2,1.1-1.6,1.3l-0.5,0.3v18.2l-12.6,7.2c-1.3,0.7-3,1.1-4.5,1v-17.5c-1.9,0.3-3.9,0-5.3-0.8c-1-0.6-1.5-1.4-1.5-2.2
			v-3.5C196.5,249.1,199.8,242.7,204,240.3z"/>
		<path class="st4" d="M206.4,239c2.1-1.2,5.4-1.4,7.2-0.3c1.8,1.1,1.6,2.9-0.5,4.2c-2.1,1.2-5.4,1.4-7.2,0.3
			C204,242,204.2,240.2,206.4,239z"/>
		<path class="st6" d="M201.6,227.3c0-4.4,3.6-8,8-8s8,3.6,8,8c0,0,0.6,12.1-10.6,12.2c-0.8,0-1.6-0.4-2.1-1.1
			C201.5,233.8,201.6,227.3,201.6,227.3z"/>
		<path class="st8" d="M201.6,227.3c0-4.4,3.6-8,8-8s8,3.6,8,8c0,0,0.2,4.8-2.4,8.4c-2.3,0.4-8.3,0.7-10.8-5.7c0,0-1.1-0.2-2.7-1.2
			C201.6,227.9,201.6,227.3,201.6,227.3z"/>
		<circle class="st4" cx="216.9" cy="229.1" r="3.3"/>
		<path class="st6" d="M204.3,230c0,0-0.6-1.5-0.5-3.9c0,0-1,2.7-0.6,4.8L204.3,230z"/>
		<path class="st6" d="M205.3,234.8c-0.6,0-1.2-0.5-1.2-1.6c0-1.1,0.7-2.3,1.5-2.8c0.2-0.1,0.5-0.2,0.7-0.2c0.6,0,1.2,0.5,1.2,1.6
			c0,1.1-0.7,2.3-1.5,2.8C205.8,234.8,205.5,234.8,205.3,234.8z"/>
	</g>
	<g>
		<path class="st6" d="M172.2,317.7c0.7-0.7,1.8-1.2,3-1.1c1.8,0.1,3.3,1.6,3.4,3.4c0,0.1,0,0.2,0,0.3c0,0.7-0.4,1.4-1,1.7l-4.7,2.7
			c-1.2,0.7-2.8,0.7-4,0l-1.8-1c-0.6-0.4-1-1-1-1.7v-4.3L172.2,317.7z"/>
		<path class="st6" d="M183.3,323.7c0.7-0.7,1.8-1.2,3-1.1c1.8,0.1,3.3,1.6,3.4,3.4c0,0.1,0,0.2,0,0.3c0,0.7-0.4,1.4-1,1.7l-4.7,2.7
			c-1.2,0.7-2.8,0.7-4,0l-1.8-1c-0.6-0.4-1-1-1-1.7v-4.3L183.3,323.7z"/>
		<path class="st6" d="M165,257.7v19.2c0,1.6,0.9,3.4,2.1,4l1.1-5v-18.2H165z"/>
		<path class="st7" d="M166.1,273.2V318c0,1.3,1.8,2.4,4,2.4c2.2,0,4-1.1,4-2.4v-44.9H166.1z"/>
		<path class="st4" d="M166.1,281.3v-4l7.6,2.1l4.4,2.5h7.1v42.1c0,1.3-1.8,2.4-4,2.4c-2.2,0-4-1.1-4-2.4v-29.2c0-2.6-1.4-4.8-3.5-6
			l-7.6-4.4V281.3z"/>
		<g>
			<path class="st10" d="M193.7,292l0-10.9c0-0.6-0.6-1-1.1-0.7l-12.8,7.5c-0.4,0.2-0.6,0.6-0.6,1l0,10.9c0,0.6,0.6,1,1.1,0.7
				l12.7-7.4C193.5,292.8,193.7,292.5,193.7,292z"/>
			<path class="st16" d="M194.3,290.4l0-1.4c0.6,0.1,1-0.3,1-1c0-0.7-0.4-1.5-1-2.1l0-1.3c0,0,0.1-1.5-1.4-2.3l0,8.6
				C193.7,291.5,194.3,291.2,194.3,290.4z"/>
		</g>
		<path class="st6" d="M183.2,263.6v25.7c0,0.4,0.2,0.7,0.6,0.8c0,0,0,0,0,0v0c0,0,0,0,0,0c0,0,0,0,0,0c0.3,0.1,0.5,0.1,0.8,0.1
			c1.8,0,3.4-1.3,3.7-3.1c0-0.2,0.1-0.4,0.1-0.6c0,0,0,0,0,0c0,0,0-19.1,0-22.9c0-0.4-0.4-0.8-0.8-0.8H184
			C183.6,262.8,183.2,263.1,183.2,263.6z"/>
		<path class="st8" d="M182.5,247.3L182.5,247.3l-4.9-2.8c-0.5-0.3-1-0.5-1.5-0.6v0c0,0,0,0,0,0c0,0-0.1,0-0.1,0
			c-0.7-0.2-1.4-0.2-2.2-0.2c-4.8,0-8.8,3.4-9.7,8c-0.1,0.5-0.2,1-0.2,1.5c0,0,0,0,0,0c0,0.1,0,0.1,0,0.2c0,0,0,0,0,0h0c0,0,0,0,0,0
			v4.1c0.6,0.6,1.2,1.1,1.6,1.3l0.5,0.3v18.2l12.6,7.2c1.3,0.7,3,1.1,4.5,1v-17.5c1.9,0.3,3.9,0,5.3-0.8c1-0.6,1.5-1.4,1.5-2.2v-3.5
			C190,256.1,186.7,249.7,182.5,247.3z"/>
		<path class="st4" d="M180.1,246c-2.1-1.2-5.4-1.4-7.2-0.3c-1.8,1.1-1.6,2.9,0.5,4.2c2.1,1.2,5.4,1.4,7.2,0.3
			S182.3,247.2,180.1,246z"/>
		<path class="st6" d="M184.7,234.5c0-4.3-3.5-7.8-7.8-7.8s-7.8,3.5-7.8,7.8c0,0-0.6,11.9,10.4,12c0.8,0,1.6-0.4,2-1
			C184.8,240.9,184.7,234.5,184.7,234.5z"/>
		<g>
			<path class="st8" d="M180.2,239.9l2.9-1.8v-4.7l1.1-1.6c-1.1-2.9-4-5-7.3-5c-4.3,0-7.8,3.5-7.8,7.8c0,0-0.1,2.9,1.1,5.9
				c3.6,2.1,7.1,2.8,8.8,3L180.2,239.9z"/>
		</g>
		<path class="st6" d="M180.6,242c0.6,0.1,1.3-0.2,1.5-1.2c0.2-1-0.1-2.4-0.8-3c-0.2-0.2-0.4-0.3-0.6-0.4c-0.6-0.1-1.3,0.2-1.5,1.2
			c-0.2,1,0.1,2.4,0.8,3C180.1,241.8,180.3,241.9,180.6,242z"/>
		<polygon class="st8" points="184.7,232.4 184.7,234.5 179.4,235.5 181.9,231.9 		"/>
		<path class="st8" d="M184.7,234.5c0,0-1.6,0.6-1.6,3.6l-2.1-1.9l1.4-3.1L184.7,234.5z"/>
		<g>
			<path class="st8" d="M178.7,235.9l-8-4.6c0,0-3.3-1.7-3.3-6l8,4.6C175.4,229.9,178.7,231.7,178.7,235.9z"/>
			<path class="st4" d="M173.4,221.9l8,4.6c0,0,3.3,1.7,3.3,6l-6,3.4c0-4.2-3.3-6-3.3-6l-8-4.6L173.4,221.9z"/>
		</g>
	</g>
	<g>
		<path class="st15" d="M78.4,303.7c0.7-0.7,1.8-1.2,3-1.1c1.8,0.1,3.3,1.6,3.4,3.4c0,0.1,0,0.2,0,0.3c0,0.7-0.4,1.4-1,1.7l-4.7,2.7
			c-1.2,0.7-2.8,0.7-4,0l-1.8-1c-0.6-0.4-1-1-1-1.7v-4.3L78.4,303.7z"/>
		<path class="st15" d="M89.5,309.7c0.7-0.7,1.8-1.2,3-1.1c1.8,0.1,3.3,1.6,3.4,3.4c0,0.1,0,0.2,0,0.3c0,0.7-0.4,1.4-1,1.7l-4.7,2.7
			c-1.2,0.7-2.8,0.7-4,0l-1.8-1c-0.6-0.4-1-1-1-1.7v-4.3L89.5,309.7z"/>
		<path class="st15" d="M71.3,243.7v19.2c0,1.6,0.9,3.4,2.1,4l1.1-5v-18.2H71.3z"/>
		<path class="st6" d="M72.3,259.2V304c0,1.3,1.8,2.4,4,2.4c2.2,0,4-1.1,4-2.4v-44.9H72.3z"/>
		<path class="st10" d="M72.3,267.3v-4l7.6,2.1l4.4,2.5h7.1v42.1c0,1.3-1.8,2.4-4,2.4c-2.2,0-4-1.1-4-2.4v-29.2c0-2.6-1.4-4.8-3.5-6
			l-7.6-4.4V267.3z"/>
		<g>
			<path class="st11" d="M100.6,268.1l0,1.4c0.6-0.1,1,0.3,1,1c0,0.7-0.4,1.5-1,2.1l0,1.3c0,0,0.1,1.5-1.4,2.3l0-8.6
				C100,267,100.6,267.3,100.6,268.1z"/>
			<path class="st16" d="M100,276.9l0-10.9c0-0.6-0.6-1-1.1-0.7l-12.8,7.5c-0.4,0.2-0.6,0.6-0.6,1l0,10.9c0,0.6,0.6,1,1.1,0.7
				l12.7-7.4C99.8,277.7,100,277.3,100,276.9z"/>
		</g>
		<path class="st15" d="M89.4,249.6v25.7c0,0.4,0.2,0.7,0.6,0.8c0,0,0,0,0,0v0c0,0,0,0,0,0c0,0,0,0,0,0c0.3,0.1,0.5,0.1,0.8,0.1
			c1.8,0,3.4-1.3,3.7-3.1c0-0.2,0.1-0.4,0.1-0.6c0,0,0,0,0,0c0,0,0-19.1,0-22.9c0-0.4-0.4-0.8-0.8-0.8h-3.6
			C89.8,248.8,89.4,249.1,89.4,249.6z"/>
		<path class="st17" d="M88.8,233.3L88.8,233.3l-4.9-2.8c-0.5-0.3-1-0.5-1.5-0.6v0c0,0,0,0,0,0c0,0-0.1,0-0.1,0
			c-0.7-0.2-1.4-0.2-2.2-0.2c-4.8,0-8.8,3.4-9.7,8c-0.1,0.5-0.2,1-0.2,1.5c0,0,0,0,0,0c0,0.1,0,0.1,0,0.2c0,0,0,0,0,0h0c0,0,0,0,0,0
			v4.1c0.6,0.6,1.2,1.1,1.6,1.3l0.5,0.3v18.2l12.6,7.2c1.3,0.7,3,1.1,4.5,1v-17.5c1.9,0.3,3.9,0,5.3-0.8c1-0.6,1.5-1.4,1.5-2.2v-3.5
			C96.2,242.1,92.9,235.7,88.8,233.3z"/>
		<path class="st18" d="M86.4,232c-2.1-1.2-5.4-1.4-7.2-0.3c-1.8,1.1-1.6,2.9,0.5,4.2c2.1,1.2,5.4,1.4,7.2,0.3
			C88.7,235,88.5,233.2,86.4,232z"/>
		<path class="st15" d="M91.1,220.3c0-4.4-3.6-8-8-8c-4.4,0-8,3.6-8,8c0,0-0.6,12.1,10.6,12.2c0.8,0,1.6-0.4,2.1-1.1
			C91.2,226.8,91.1,220.3,91.1,220.3z"/>
		<path class="st17" d="M91.1,220.3c0-4.4-3.6-8-8-8c-4.4,0-8,3.6-8,8c0,0-0.2,4.8,2.4,8.4c2.3,0.4,8.3,0.7,10.8-5.7
			c0,0,1.1-0.2,2.7-1.2C91.1,220.9,91.1,220.3,91.1,220.3z"/>
		<circle class="st18" cx="75.9" cy="222.1" r="3.3"/>
		<path class="st15" d="M88.4,223c0,0,0.6-1.5,0.5-3.9c0,0,1,2.7,0.6,4.8L88.4,223z"/>
		<path class="st15" d="M87.4,227.8c0.6,0,1.2-0.5,1.2-1.6c0-1.1-0.7-2.3-1.5-2.8c-0.2-0.1-0.5-0.2-0.7-0.2c-0.6,0-1.2,0.5-1.2,1.6
			c0,1.1,0.7,2.3,1.5,2.8C87,227.8,87.2,227.8,87.4,227.8z"/>
	</g>
	<polygon class="st4" points="96.2,0 0,55 0,0 	"/>
	<polygon class="st4" points="389.6,350 574.4,244.5 574.4,350 	"/>
	<g>
		<path class="st15" d="M398.9,54.4v19.3c0,1.6,1,3.4,2.1,4.1l1.2-5.1V54.4H398.9z"/>
		<g>
			<g>
				<path class="st15" d="M411.1,121.2l-1.7,1l0,0c-1.3,0.8-2.2,2.2-2.2,3.8c0,1.6,2,2.8,4.4,2.8c1.1,0,2.2-0.3,3-0.7l0,0l3.3-1.9
					c0.7-0.4,1.2-1.2,1.2-2.1v-2.8H411.1z"/>
			</g>
		</g>
		<g>
			<g>
				<path class="st15" d="M399.9,115.1l-1.7,1l0,0c-1.3,0.8-2.2,2.2-2.2,3.8c0,1.6,2,2.8,4.4,2.8c1.1,0,2.2-0.3,3-0.7l0,0l3.3-1.9
					c0.7-0.4,1.2-1.2,1.2-2.1v-2.8H399.9z"/>
			</g>
		</g>
		<path class="st6" d="M399.9,69.9v45.2c0,1.3,1.8,2.4,4,2.4c2.2,0,4-1.1,4-2.4V69.9H399.9z"/>
		<path class="st10" d="M412.1,78.8l-4.5-2.6v7.2c2.1,1.2,3.5,3.5,3.5,6.1v31.6c0,1.3,1.8,2.4,4,2.4s4-1.1,4-2.4V78.8H412.1z"/>
		<g>
			<path class="st16" d="M412.7,88.9l0,1.4c-0.6-0.1-1,0.3-1,1c0,0.7,0.4,1.5,1,2.1l0,1.3c0,0-0.1,1.5,1.4,2.3l0-8.6
				C413.4,87.8,412.7,88.1,412.7,88.9z"/>
			<path class="st6" d="M413.4,87.2l0,10.9c0,0.6,0.6,1,1.1,0.7l12.8-7.5c0.4-0.2,0.6-0.6,0.6-1l0-10.9c0-0.6-0.6-1-1.1-0.7
				l-12.7,7.4C413.6,86.4,413.4,86.8,413.4,87.2z"/>
		</g>
		<path class="st15" d="M417.2,60.3v25.9c0,0.4,0.2,0.7,0.6,0.8c0,0,0,0,0,0v0c0,0,0,0,0,0c0,0,0,0,0,0c0.3,0.1,0.5,0.1,0.8,0.1
			c1.8,0,3.4-1.3,3.7-3.1c0-0.2,0.1-0.4,0.1-0.6c0,0,0,0,0,0c0,0,0-19.3,0-23c0-0.4-0.4-0.8-0.8-0.8H418
			C417.5,59.5,417.2,59.9,417.2,60.3z"/>
		<path class="st17" d="M416.5,43.9L416.5,43.9l-5-2.8c-0.5-0.3-1-0.5-1.5-0.6v0c0,0,0,0,0,0c0,0-0.1,0-0.1,0
			c-0.7-0.2-1.4-0.2-2.2-0.2c-4.8,0-8.9,3.5-9.7,8.1c-0.1,0.5-0.2,1-0.2,1.6c0,0,0,0,0,0c0,0.1,0,0.1,0,0.2c0,0,0,0,0,0h0
			c0,0,0,0,0,0v4.1c0.6,0.6,1.2,1.1,1.6,1.3l0.5,0.3v18.3l12.7,7.3c1.3,0.7,3,1.1,4.5,1V64.8c1.9,0.3,3.9,0,5.3-0.8
			c1-0.6,1.5-1.4,1.5-2.2v-3.5C424,52.8,420.6,46.3,416.5,43.9z"/>
		<path class="st18" d="M414.2,42.6c-2.6-1.5-6.5-1.7-8.8-0.4c-2.2,1.3-2,3.6,0.6,5.1c2.6,1.5,6.5,1.7,8.8,0.4
			C417.1,46.4,416.8,44.1,414.2,42.6z"/>
		<g>
			<path class="st17" d="M401,32.1v9.4c0,0,7.3-1.7,7.3-11.3L401,32.1z"/>
			<path class="st15" d="M411.5,34.6c-0.5-0.9-0.7-1.8-0.9-2.4c-0.4,0.8-0.7,1.8-0.9,2.9c-4.2-0.5-7.2-2.1-8.6-3
				c-0.1,1.2,0,2.6,0.3,4.1c0.6,2.9,1.5,5.3,2.7,7.1l0,0c0.5,0.8,1.4,1.4,2.5,1.4c0.5,0,0.9-0.1,1.3-0.3l0,0
				c1.3-0.7,3.1-1.8,4.5-3.6c0.7-0.8,1.3-1.7,1.8-2.8C412.9,36.9,412,35.7,411.5,34.6z"/>
			<path class="st17" d="M409.8,24.3c-0.3-0.1-0.6-0.1-1-0.1c-0.2,0-0.3,0-0.3,0l0,0c-3.5,0-7.2,2.5-7.5,7.9c1.5,1,4.4,2.5,8.6,3V45
				c0,0,7.3-1.7,7.3-11.3C416.9,26.4,412.1,24.7,409.8,24.3z"/>
		</g>
		<path id="XMLID_405_" class="st18" d="M407.7,54.8c0.6,0.3,1.1,0.6,1.7,0.7v-2.1c-0.5-0.5-1.1-0.9-1.7-1.3s-1.1-0.6-1.7-0.7
			c-0.6-0.1-1.2-0.1-1.6,0.1c-0.1,0-0.1,0.1-0.2,0.1v6c0.1,0,0.1-0.1,0.2-0.1c0.5-0.2,1-0.2,1.6-0.1v-3.9
			C406.6,54,407.2,54.4,407.7,54.8z M411,55.3c-0.5,0.2-1,0.2-1.6,0.1v3.9c-0.5-0.5-1.1-0.9-1.7-1.3s-1.1-0.6-1.7-0.7v2.1
			c0.5,0.5,1.1,0.9,1.7,1.3s1.1,0.6,1.7,0.7c0.6,0.1,1.2,0.1,1.6-0.1c0.1,0,0.1-0.1,0.2-0.1v-6C411.2,55.3,411.1,55.3,411,55.3z"/>
	</g>
	<g>
		<path id = "Darken" class="st14" d="M106,42.8c0,1.2-0.8,2.7-1.7,3.2c-0.9,0.5-1.7,0-1.7-1.3c0-1.2,0.8-2.7,1.7-3.2S106,41.5,106,42.8z"/>
		<path class="st14" d="M102.9,49.4c-0.4,0-0.8-0.1-1.1-0.3c-0.9-0.5-1.5-1.7-1.5-3.3c0-2.8,1.7-6.1,3.9-7.4c1-0.6,2-0.6,2.8-0.2
			c0.9,0.5,1.5,1.7,1.5,3.3c0,2.8-1.7,6.1-3.9,7.4C104,49.3,103.4,49.4,102.9,49.4z M105.8,38.8c-0.4,0-0.8,0.1-1.3,0.4
			c-1.9,1.1-3.5,4.1-3.5,6.7c0,1.3,0.4,2.3,1.1,2.6c0.5,0.3,1.3,0.2,2-0.2c1.9-1.1,3.5-4.1,3.5-6.7c0-1.3-0.4-2.3-1.1-2.7
			C106.3,38.8,106.1,38.8,105.8,38.8z"/>
	</g>
	<g>
		<path class="st14" d="M125.3,37.1c0,1.2-0.8,2.7-1.7,3.2c-0.9,0.5-1.7,0-1.7-1.3s0.8-2.7,1.7-3.2
			C124.5,35.3,125.3,35.9,125.3,37.1z"/>
		<path class="st14" d="M122.1,43.8c-0.4,0-0.8-0.1-1.1-0.3c-0.9-0.5-1.5-1.7-1.5-3.3c0-2.8,1.7-6.1,3.9-7.4c1-0.6,2-0.6,2.8-0.2
			c0.9,0.5,1.5,1.7,1.5,3.3c0,2.8-1.7,6.1-3.9,7.4C123.2,43.6,122.6,43.8,122.1,43.8z M125,33.1c-0.4,0-0.8,0.1-1.3,0.4
			c-1.9,1.1-3.5,4.1-3.5,6.7c0,1.3,0.4,2.3,1.1,2.6c0.5,0.3,1.3,0.2,2-0.2c1.9-1.1,3.5-4.1,3.5-6.7c0-1.3-0.4-2.3-1.1-2.7
			C125.6,33.2,125.3,33.1,125,33.1z"/>
	</g>
	<g>
		<path class="st14" d="M131.5,47c0,1.2-0.8,2.7-1.7,3.2c-0.9,0.5-1.7,0-1.7-1.3c0-1.2,0.8-2.7,1.7-3.2
			C130.7,45.2,131.5,45.8,131.5,47z"/>
		<path class="st14" d="M128.3,53.7c-0.4,0-0.8-0.1-1.1-0.3c-0.9-0.5-1.5-1.7-1.5-3.3c0-2.8,1.7-6.1,3.9-7.4c1-0.6,2-0.6,2.8-0.2
			c0.9,0.5,1.5,1.7,1.5,3.3c0,2.8-1.7,6.1-3.9,7.4C129.4,53.5,128.9,53.7,128.3,53.7z M131.3,43c-0.4,0-0.8,0.1-1.3,0.4
			c-1.9,1.1-3.5,4.1-3.5,6.7c0,1.3,0.4,2.3,1.1,2.6c0.5,0.3,1.3,0.2,2-0.2c1.9-1.1,3.5-4.1,3.5-6.7c0-1.3-0.4-2.3-1.1-2.7
			C131.8,43.1,131.5,43,131.3,43z"/>
	</g>
	<g>
		<path id="XMLID_477_" class="st14" d="M95.7,76.3c-0.8,0.5-1.6,0.6-2.3,0.4c0.1,0,0.2-0.1,0.4-0.2c0.7-0.4,1.3-1.1,1.8-1.9
			c-0.6,0.4-1.2,0.1-1.4-0.6c0.1,0,0.2-0.1,0.3-0.1c0.1-0.1,0.3-0.2,0.4-0.3c-0.7,0.2-1.2-0.3-1.2-1.3c0,0,0,0,0,0
			c0.2,0,0.4,0,0.7-0.1c-0.4-0.1-0.7-0.6-0.7-1.3c0-0.4,0.1-0.7,0.2-1.1c0.7,0.8,1.8,0.9,3.1,0.3c0-0.1,0-0.3,0-0.4
			c0-1.1,0.7-2.4,1.5-2.8c0.4-0.2,0.8-0.2,1.1,0c0.3-0.3,0.7-0.6,0.9-1c-0.1,0.5-0.3,1-0.7,1.5c0.3-0.2,0.6-0.5,0.9-0.8
			c-0.2,0.5-0.4,1-0.7,1.4c0,0.1,0,0.2,0,0.3C99.9,70.9,98.4,74.7,95.7,76.3"/>
	</g>
</g>
</svg>








