<?xml version="1.0" encoding="utf-8"?>
<!-- Generator: Adobe Illustrator 21.1.0, SVG Export Plug-In . SVG Version: 6.00 Build 0)  -->
<svg version="1.1" id="Layer_1" xmlns="http://www.w3.org/2000/svg" xmlns:xlink="http://www.w3.org/1999/xlink" x="0px" y="0px"
	 width="574.4px" height="350px" viewBox="0 0 574.4 350" style="enable-background:new 0 0 574.4 350;" xml:space="preserve">
<style type="text/css">
  
    .Hover {
  animation: hoveranim 4s 
    alternate
    infinite
   ;
}
  
  @keyframes hoveranim {
    
      from{
    transform: translate3d(0px, -15px, 0px);
    animation-timing-function:
      linear;
    animation-timing-function:
      ease;
  }
    
  to{
    transform: translate3d(0px, -25px, 0px);
    animation-timing-function:
      linear;
    animation-timing-function:
      ease;
  }
}
  
  .Jump {
    animation: up 1s alternate infinite;
  }
  @-webkit-keyframes up {
    to {
      transform: translate(0px, -2.5px);
      animation-timing-function: linear ease-in-out;
    }
  }
  
  .Jump2 {
    animation: up2 2s alternate infinite;
  }
  @-webkit-keyframes up2 {
    to {
      transform: translate(0px, -2.5px);
      animation-timing-function: linear ease-in-out;
    }
  }
  
   .Headbob {
    animation: headbob 1.2s alternate infinite;
  }
  @-webkit-keyframes headbob {
    from {
      transform: translate(0.5px, 1.4px);
    }
  }
  
   .Light {   
  transform-origin:right;
  animation: lightflicker 2.5s 
    alternate
    infinite
   ;
}
  
  @keyframes lightflicker {
  from {
    opacity:0.4;
    }
    to{
    opacity:0.9;
    animation-timing-function:
      linear
      ease;
  }
}    
  
    .Light2 {   
  transform-origin:right;
  animation: lightflicker2 1.8s 
    alternate
    infinite
   ;
}
  
@keyframes lightflicker2 {
  from {
    opacity:0.1;
    }
    to{
    opacity:0.9;
    animation-timing-function:
      linear
      ease;
  }
}    
  
  .Light3 {   
  transform-origin:right;
  animation: lightflicker2 2s 
    alternate
    infinite
   ;
}
  
@keyframes lightflicker3 {
  from {
    opacity:0.1;
    }
    to{
    opacity:1;
    animation-timing-function:
      linear
      ease;
  }
}    
  
  .Light4 {   
  transform-origin:right;
  animation: lightflicker4 2s 
    alternate
    infinite
   ;
}
  
@keyframes lightflicker4 {
  from {
    opacity:0.3;
    }
    to{
    opacity:1;
    animation-timing-function:
      linear
      ease;
  }
}    
  
	.st0{fill:#383838;}
	.st1{fill:#4A1756;}
	.st2{fill:#42144D;}
	.st3{fill:#55A6C4;}
	.st4{fill:#12678F;}
	.st5{fill:#237CA4;}
	.st6{fill:#3C91B4;}
	.st7{fill:#095C85;}
	.st8{fill:#3C91B7;}
	.st9{fill:#52B0D1;}
	.st10{fill:#004368;}
	.st11{fill:#00517A;}
	.st12{fill:#60266D;}
	.st13{fill:none;}
	.st14{fill:#600F55;}
	.st15{fill:#6A125C;}
	.st16{fill:#751663;}
	.st17{fill:#922477;}
	.st18{fill:url(#SVGID_1_);}
	.st19{fill:#912476;}
	.st20{fill:#A83592;}
	.st21{fill:#831D6D;}
	.st22{fill:#763984;}
	.st23{fill:#6DBAD4;}
	.st24{fill:#9FE4F4;}
	.st25{opacity:0.5;fill:#9FE4F4;enable-background:new    ;}
	.st26{fill:#3A1144;}
	.st27{fill:url(#SVGID_2_);}
	.st28{fill:#9D2D84;}
</style>
<rect x="574.4" y="1050" class="st0" width="279.6" height="410"/>
<rect class="st1" width="574.4" height="350"/>
<rect x="287.2" class="st1" width="287.2" height="350"/>
<g>
	<polygon class="st2" points="241.7,0 0,138.1 0,350 574.4,350 574.4,138.1 332.7,0 	"/>
</g>
<g>
	<path class="st3" d="M113.2,91.6l13.3-7.7l1.4,0.3l1.6-0.2l5.3,0.2c0,2.9-1.6,5.6-4.1,7.1l-15.7,9L113.2,91.6z"/>
	<g>
		<g>
			<path class="st3" d="M126.5,80.4v22.7c0,2.5,1.5,5.4,3.4,6.5l1.9-8.1V80.4H126.5z"/>
			<path class="st3" d="M129.1,154.7l-2,1.1l0,0c-1.6,0.9-2.6,2.6-2.6,4.5s2.4,3.4,5.3,3.4c1.4,0,2.6-0.3,3.6-0.9l0,0l4-2.3
				c0.9-0.5,1.5-1.5,1.5-2.5v-3.4L129.1,154.7L129.1,154.7z"/>
			<path class="st4" d="M129.1,100.2v54.5c0,1.6,2.2,2.9,4.9,2.9s4.9-1.3,4.9-2.9v-54.5H129.1z"/>
			<path class="st3" d="M142,162.1l-2,1.1l0,0c-1.6,0.9-2.6,2.6-2.6,4.5s2.4,3.4,5.3,3.4c1.4,0,2.6-0.3,3.6-0.9l0,0l4-2.3
				c0.9-0.5,1.5-1.5,1.5-2.5V162L142,162.1L142,162.1z"/>
			<path class="st5" d="M143.1,110.9l-5.4-3.1v8.7c2.5,1.5,4.3,4.2,4.3,7.3V162c0,1.6,2.2,2.9,4.9,2.9s4.9-1.3,4.9-2.9v-51.2
				L143.1,110.9L143.1,110.9z"/>
			<polygon class="st3" points="149.9,102.9 149.9,88.2 158.1,88.2 158.1,94.3 			"/>
			<path class="st6" d="M126.5,76.2L126.5,76.2c0-0.1,0-0.2,0-0.3c0,0,0,0,0-0.1c0-0.7,0.1-1.3,0.2-1.9c1-5.5,5.9-9.7,11.7-9.7
				c0.9,0,1.8,0.1,2.6,0.3h0.1l0,0l0,0c0.6,0.1,1.2,0.4,1.8,0.8l6,3.4l0,0c5,2.9,9.1,10.7,9.1,17.3v4.3c0,1-0.6,2-1.8,2.7
				c-1.7,1-4.1,1.3-6.4,0.9v8.1l1.8-1.6V113c-1.3,0.7-2.8,1.1-4.4,1.1c-1.8,0-3.4-0.5-4.8-1.3l-2.9-1.7l0,0l-8.4-4.8l-0.5-0.3l0,0
				l-1.6-0.9v-22l-0.6-0.3c-0.5-0.3-1.2-0.8-2-1.6L126.5,76.2L126.5,76.2L126.5,76.2z"/>
			<path class="st5" d="M146.3,67.2c-0.2-0.1-0.5-0.3-0.8-0.4l-0.8-8.6l-10.2,3.2l1.1,5.4c-2.7,1.6-2.3,4.3,0.8,6.1
				c3.1,1.8,7.9,2,10.6,0.4C149.8,71.7,149.4,69,146.3,67.2z"/>
			<g>
				<path class="st3" d="M138.6,69.3c3.6-1.8,9.3-6.2,9.3-15.3c0-13.2-20.7-12.7-17.2,5.4c0.7,3.5,1.9,6.4,3.3,8.6l0,0
					c0.6,1,1.7,1.7,3,1.7C137.6,69.7,138.1,69.6,138.6,69.3L138.6,69.3z"/>
				<path class="st6" d="M131.7,49.4L131.7,49.4C131.7,49.4,131.7,49.3,131.7,49.4C131.8,49.3,131.8,49.3,131.7,49.4L131.7,49.4
					c0.1-0.3,0.2-0.4,0.3-0.6c4.1-6.2,13.9-4.8,15.6,2.9l0,0l0,0v0.1v0.1V52v0.1v0.1v0.1v0.1v0.1v0.1v0.1v0.1v0.1c0,0,0,0,0,0.1
					s0,0.1,0,0.2c0,0,0,0,0,0.1v0.1c0,0,0,0,0,0.1s0,0.1,0,0.2l0,0c0,0.1,0,0.1,0,0.2c0,0,0,0,0,0.1s0,0.1,0,0.2l0,0
					c0,0.1,0,0.2,0,0.3l0,0c0,0.1,0,0.2,0,0.3l0,0c0,0.1,0,0.2,0,0.3l0,0c0,0.1,0,0.2,0,0.3l0,0l0,0c-0.1,1.3-0.3,2.5-0.6,3.5
					l-1.1,0.7c0.3-0.5,0.5-1.2,0.5-1.7c0-1-0.6-1.5-1.1-1.5c-0.2,0-0.5,0.1-0.7,0.2c-0.6,0.4-1.1,1.1-1.3,2l-1.8,1v-1.7
					c0-1.6-0.9-3.4-2.1-4l0,0l-6.3-3.6l0,0l0,0l-0.1-0.1c-0.3-0.2-1-0.5-1.6-0.3C131.5,49.7,131.6,49.5,131.7,49.4z"/>
			</g>
			<path class="st3" d="M134.9,100.6l1.7,1.1l13.3-7.7l1.4,0.3l1.6-0.2l5.3,0.2c0,2.9-1.6,5.6-4.1,7.1l-15.7,9
				c-1.1,0.6-2.3,0.6-3.4,0l0,0c-2-1.2-3.7-4.3-3.7-7C131.2,100.6,132.9,99.4,134.9,100.6z"/>
		</g>
		<g>
			<g>
				<polygon class="st5" points="129.1,110.6 143.9,102.1 122.7,90 107.8,98.5 				"/>
				<polygon class="st4" points="135.4,103.8 126.3,109 111,100.3 120.1,95.1 				"/>
				<polygon class="st6" points="135.7,98.5 131.9,100.7 125.5,97 129.3,94.9 				"/>
				<polygon class="st7" points="129.1,111.5 143.9,103 143.9,102.1 129.1,110.6 				"/>
				<path class="st7" d="M129.1,93.8v17.7l-21.2-12.1v-17c0-0.7,0.8-1.1,1.4-0.8l19.1,10.9C128.8,92.8,129.1,93.3,129.1,93.8z"/>
			</g>
			<path class="Light2 st3" d="M115.6,95.3c0,1.6,0.9,3.4,2.1,4c1.2,0.7,2.1,0,2.1-1.6s-0.9-3.4-2.1-4C116.5,93,115.6,93.7,115.6,95.3z"/>
		</g>
	</g>
</g>
<g>
	<g>
		<path class="st3" d="M91.5,116.6l4.8-8.5l-32.1-18c-0.6-0.3-1.3-0.2-1.7,0.3l0,0l0,0l0,0c0,0,0,0,0,0.1c-0.3,0.4-0.6,0.8-0.9,1.3
			c-1.7,3-0.9,6.7,1.6,8.8c0.3,0.2,0.6,0.4,0.9,0.6l0,0L91.5,116.6z"/>
		<g>
			<g>
				<path class="st3" d="M115.7,113.8V137c0,1.9-1.1,4.1-2.6,4.9l-1.4-6.1v-22L115.7,113.8L115.7,113.8z"/>
			</g>
			<g>
				<path class="st6" d="M99.2,144.7l15.3-8.7v-20.4l0.6-0.3c0.5-0.3,1.2-0.8,2-1.6v-4.9l0,0l0,0l0,0c0-0.1,0-0.2,0-0.2s0,0,0-0.1
					c0-0.7-0.1-1.3-0.2-1.9c-1-5.5-5.9-9.7-11.7-9.7c-0.9,0-1.8,0.1-2.6,0.3h-0.1l0,0l0,0c-0.6,0.1-1.2,0.4-1.8,0.8L99.2,144.7z"/>
			</g>
			<path class="st8" d="M96.4,115c0,3.8-2.3,5.5-5.1,3.9s-5.1-6-5.1-9.7c0-3.8,2.3-5.5,5.1-3.9S96.4,111.3,96.4,115z"/>
			<g>
				<path class="st6" d="M93.7,118.1V146c1.8,0.1,3.9-0.3,5.4-1.2l15.3-8.7V108c0-11.8-9.3-11.2-9.3-11.2c-0.9,0-1.8,0.1-2.6,0.3
					h-0.1l0,0l0,0c-0.6,0.1-1.2,0.4-1.8,0.8l-13,7.4L93.7,118.1z"/>
			</g>
			<g>
				<polygon class="st8" points="84.2,101.3 91.3,105.3 88,119.2 80.6,115 				"/>
				<path class="st6" d="M79.7,103.5c-1.7,3-1.9,7.5-0.4,10.1s4.1,2.3,5.8-0.7c1.7-3,1.9-7.5,0.4-10.1S81.4,100.5,79.7,103.5z"/>
			</g>
			<path class="st6" d="M107.1,186.2c-0.9-0.9-2.2-1.4-3.6-1.3c-2.2,0.2-4,2-4.1,4.2c0,0.1,0,0.2,0,0.3c0,0.9,0.5,1.6,1.2,2.1
				l5.7,3.2c1.5,0.9,3.3,0.9,4.8,0l2.1-1.2c0.7-0.4,1.2-1.2,1.2-2.1v-5.2H107.1z"/>
			<path class="st6" d="M93.6,193.6c-0.9-0.9-2.2-1.4-3.6-1.3c-2.2,0.2-4,2-4.1,4.2c0,0.1,0,0.2,0,0.3c0,0.9,0.5,1.6,1.2,2.1
				l5.7,3.2c1.5,0.9,3.3,0.9,4.8,0l2.1-1.2c0.7-0.4,1.2-1.2,1.2-2.1v-5.2H93.6z"/>
			<path class="st4" d="M114.4,132.5v54.2c0,1.6-2.2,2.9-4.8,2.9c-2.7,0-4.8-1.3-4.8-2.9v-54.2H114.4z"/>
			<path class="st5" d="M114.4,142.3v-4.8l-9.2,2.5l-5.4,3.1h-8.6V194c0,1.6,2.2,2.9,4.8,2.9c2.7,0,4.8-1.3,4.8-2.9v-35.3
				c0-3.1,1.7-5.9,4.2-7.3l9.2-5.3v-3.8L114.4,142.3L114.4,142.3z"/>
			<path class="st5" d="M97.4,99.6c2.6-1.5,6.5-1.6,8.7-0.4s2,3.5-0.6,5s-6.5,1.6-8.7,0.4S94.9,101.1,97.4,99.6z"/>
			<path class="st9" d="M91.9,85.8c0-5.2,4.2-9.4,9.4-9.4c5.2,0,9.4,4.2,9.4,9.4c0,0,0.7,14.4-12.5,14.5c-1,0-1.9-0.5-2.5-1.2
				C91.8,93.5,91.9,85.8,91.9,85.8z"/>
			<g>
				<path class="st8" d="M97.4,92.3l-3.5-2.2v-5.7l-1.3-2c1.4-3.6,4.8-6.1,8.8-6.1c5.2,0,9.4,4.2,9.4,9.4c0,0,0.2,3.5-1.3,7.1
					c-4.4,2.5-8.6,3.3-10.6,3.6L97.4,92.3z"/>
			</g>
			<path class="st9" d="M96.9,94.8c-0.7,0.2-1.5-0.2-1.8-1.5s0.1-2.9,1-3.7c0.2-0.2,0.5-0.4,0.8-0.4c0.7-0.2,1.5,0.2,1.8,1.5
				s-0.1,2.9-1,3.7C97.5,94.6,97.2,94.7,96.9,94.8z"/>
			<polygon class="st8" points="91.9,83.3 91.9,85.8 98.4,86.9 95.4,82.6 			"/>
			<path class="st8" d="M91.9,85.8c0,0,2,0.7,2,4.3l2.6-2.3L94.8,84L91.9,85.8z"/>
			<g>
				<path class="st8" d="M99.2,87.4l9.7-5.6c0,0,4-2.1,4-7.2l-9.7,5.6C103.2,80.2,99.2,82.3,99.2,87.4z"/>
				<path class="st5" d="M105.6,70.5l-9.7,5.6c0,0-4,2.1-4,7.2l7.3,4.2c0-5.1,4-7.2,4-7.2l9.7-5.6L105.6,70.5z"/>
			</g>
			<g>
				<path class="st8" d="M114.4,108.6v7.7v22l-13.7,7.8c-1.5,0.8-3.1,1.3-4.9,1.3c-1.6,0-3.2-0.4-4.5-1.1v-28.6L114.4,108.6z"/>
			</g>
			<path class="st6" d="M94.4,119.2c-1,0.4-2,0.7-3.1,0.7c-4.3,0-7.8-3.5-7.8-7.8c0-3.2,1.9-6,4.7-7.2L94.4,119.2z"/>
		</g>
	</g>
	<g>
		<polygon class="st10" points="61.5,85.6 70.3,80.6 70.3,89.3 61.5,94.3 		"/>
		<polygon class="st11" points="55.8,89.4 61.5,94.3 61.5,85.6 55.8,82.3 		"/>
		<polygon class="st11" points="63.5,91.6 63.5,93.1 67.2,95.3 67.2,93.7 		"/>
		<polygon class="st10" points="67.2,93.7 71,91.6 71,93.1 67.2,95.3 		"/>
		<polygon class="st7" points="55.8,82.3 64.6,77.3 70.3,80.6 61.5,85.6 		"/>
		<path class="st7" d="M65.9,91.8c-1.8,1-3.3-0.1-3.3-2.5s1.5-5.2,3.3-6.2c1.8-1,3.3,0.1,3.3,2.5C69.1,87.9,67.7,90.7,65.9,91.8z"/>
		<polygon class="st7" points="66.7,93.7 63.7,91.9 68,82.9 71,84.6 		"/>
		<polygon class="st10" points="73.3,81.4 71,84.6 67.5,85.9 70.7,82.9 		"/>
		<path class="st10" d="M68.9,93.5c-1.8,1-3.3-0.1-3.3-2.5s1.5-5.2,3.3-6.2s3.3,0.1,3.3,2.5C72.1,89.6,70.7,92.4,68.9,93.5z"/>
		<path class="st12" d="M70.5,92.1c0.2-0.6,0.4-1.2,0.6-1.8l6.5-3.7c0.2,0.3,0.5,0.7,0.6,1.1c0.2,0.6,0.3,1.3,0.3,2.2
			s-0.1,1.7-0.3,2.6c-0.2,0.6-0.4,1.2-0.6,1.8L71.1,98c-0.2-0.3-0.5-0.7-0.6-1.1c-0.2-0.6-0.3-1.3-0.3-2.2S70.3,93,70.5,92.1z"/>
		<path class="st12" d="M74.4,96.1c-1.6,0.9-2.9-0.1-2.9-2.2s1.3-4.6,2.9-5.5s2.9,0.1,2.9,2.2S76,95.2,74.4,96.1z"/>
		<path class="st7" d="M69.2,93.1c-1.6,0.9-2.9-0.1-2.9-2.2s1.3-4.6,2.9-5.5s2.9,0.1,2.9,2.2C72.1,89.8,70.8,92.2,69.2,93.1z"/>
		<polygon class="st7" points="72.5,96.2 67.3,93.3 71.1,85.3 76.3,88.3 		"/>
		<g>
			<polygon class="st7" points="70.2,81.5 70.7,82.9 75.4,85.6 75.4,84.5 			"/>
			<polygon class="st11" points="75.4,84.5 78.1,83 78.1,84.1 75.4,85.6 			"/>
		</g>
		<path class="st7" d="M72.9,93.5c0.2-0.6,0.4-1.2,0.6-1.8L80,88c0.2,0.3,0.5,0.7,0.6,1.1c0.2,0.6,0.3,1.3,0.3,2.2s-0.1,1.7-0.3,2.6
			c-0.2,0.6-0.4,1.2-0.6,1.8l-6.5,3.7c-0.2-0.3-0.5-0.7-0.6-1.1c-0.2-0.6-0.3-1.3-0.3-2.2S72.6,94.3,72.9,93.5z"/>
		<polygon class="st5" points="71.1,90.3 77.7,86.6 80,87.9 73.5,91.6 		"/>
		<polygon class="st5" points="78.1,83 72.8,80 70.2,81.5 75.4,84.5 		"/>
		<polygon class="st7" points="70.2,81.5 65.7,84.8 67.5,85.9 70.7,82.9 		"/>
		<g>
			<polygon class="st5" points="64.6,75.4 72.8,80 70.2,81.5 62,76.8 			"/>
		</g>
		<line class="st13" x1="73.3" y1="82.4" x2="76.2" y2="84.1"/>
		<path class="st11" d="M77.4,82.2c0-0.4-0.3-0.6-0.6-0.4c-0.3,0.2-0.6,0.7-0.6,1.1v1.5l1.2-0.7V82.2z"/>
		<path class="st4" d="M73.3,82.4v-1.2c0-0.4,0.3-0.9,0.6-1.1c0.1-0.1,0.3-0.1,0.4,0l2.9,1.7c-0.1-0.1-0.2,0-0.4,0
			c-0.3,0.2-0.6,0.7-0.6,1.1v1.2L73.3,82.4z"/>
		<g>
			<path class="st10" d="M75.8,83c0-0.7,0.5-1.6,1-1.9c0.3-0.1,0.5-0.2,0.7,0l0,0l9.4,5.5l-1.2,2.6l-9.5-5.3l0,0
				C75.9,83.7,75.8,83.4,75.8,83z"/>
			<path class="st11" d="M86.2,89.1c-0.5,0.3-0.9,0-0.9-0.7s0.4-1.5,0.9-1.8s0.9,0,0.9,0.7C87.2,88,86.8,88.8,86.2,89.1z"/>
		</g>
		<g>
			<path class="st4" d="M59.2,80.4l7,4l4-2.9L62,76.8L59.2,80.4z M66.2,83.6l-6-3.4l2-2.4l6.7,3.8L66.2,83.6z"/>
		</g>
		<polygon class="st10" points="63.1,78.3 62.8,78.7 60.2,80.2 62.2,77.7 		"/>
		<polygon class="st11" points="60.2,80.2 62.8,78.7 68.4,81.9 66.2,83.6 		"/>
		<path class="st4" d="M71.1,90.3c-0.3,0.6-0.5,1.2-0.6,1.8c-0.2,0.9-0.3,1.7-0.3,2.6s0.1,1.6,0.3,2.2c0.2,0.4,0.4,0.8,0.6,1.1
			l2.4,1.3c-0.2-0.3-0.5-0.7-0.6-1.1c-0.2-0.6-0.3-1.3-0.3-2.2s0.1-1.7,0.3-2.6c0.2-0.6,0.4-1.2,0.6-1.8L71.1,90.3z"/>
		<g>
			<path class="st11" d="M72.9,93.5c0.2-0.6,0.4-1.2,0.6-1.8l5-2.9c0,0.3,0.1,0.7,0.1,1.1c0,0.8-0.1,1.7-0.3,2.6
				c-0.2,0.6-0.4,1.2-0.6,1.8l-5,2.9c0-0.3-0.1-0.7-0.1-1.1C72.5,95.2,72.6,94.3,72.9,93.5z"/>
		</g>
		<g>
			<path class="st10" d="M73.5,91.6l2.9-1.7c0.1,0.3,0.2,0.6,0.2,1c0,1.6-1,3.5-2.2,4.2c-0.7,0.4-1.4,0.3-1.8-0.2
				c0.1-0.5,0.1-1,0.3-1.4C73,92.9,73.2,92.2,73.5,91.6z"/>
		</g>
	</g>
</g>
<g>
	<polygon class="st14" points="371.4,0 203,0 287.2,48.1 	"/>
</g>
<g>
	<polygon class="st15" points="371.4,0 318.9,0 287.2,18.1 255.5,0 203,0 287.2,48.1 	"/>
</g>
<g>
	<g>
		<polygon class="st16" points="208.9,3.3 261.4,3.3 255.5,0 203,0 		"/>
		<polygon class="st16" points="318.9,0 313,3.3 365.5,3.3 371.4,0 		"/>
	</g>
	<polygon class="st16" points="354.4,9.7 301.9,9.7 291.4,15.7 343.9,15.7 	"/>
	<polygon class="st16" points="219.9,9.7 230.5,15.7 283,15.7 272.5,9.7 	"/>
	<polygon class="st16" points="252,28 322.4,28 332.9,22 241.5,22 	"/>
	<polygon class="st16" points="273.6,40.3 300.8,40.3 311.3,34.3 263.1,34.3 	"/>
	<polygon class="st16" points="287.2,48.1 289.7,46.7 284.7,46.7 	"/>
</g>
<g>
	<path class="st3" d="M202.2,106.6c0.3-0.2,0.5-0.6,0.4-1l0,0l0,0l0,0l0,0c-0.1-0.3-0.2-0.6-0.4-0.9c-1.1-1.8-3.4-2.5-5.3-1.7
		c-0.2,0.1-0.4,0.2-0.6,0.3l0,0c0,0-11.1,7.1-14.8,9.4c-0.4,0.3-0.5,0.8-0.3,1.3l2.8,4.3L202.2,106.6z"/>
	<g>
		<g>
			<polygon class="st17" points="181.7,111.8 172.1,113 170.1,126.5 180,125.1 			"/>
			<path class="st6" d="M184.9,115.3c0.5,3.2-1,7.3-3.2,9.1c-2.2,1.8-6.3,0.8-6.8-2.5c-0.5-3.2,2.9-7.5,5.1-9.3
				C182.2,110.8,184.4,112,184.9,115.3z"/>
		</g>
	</g>
</g>
<g>
	<path class="st3" d="M171.3,198.7c0.9-0.9,2.1-1.4,3.4-1.3c2.1,0.2,3.8,1.9,4,4c0,0.1,0,0.2,0,0.3c0,0.8-0.4,1.6-1.2,2l-5.4,3.1
		c-1.4,0.8-3.2,0.8-4.6,0l-2-1.2c-0.7-0.4-1.2-1.2-1.2-2v-5L171.3,198.7z"/>
	<path class="st3" d="M184.2,205.7c0.9-0.9,2.1-1.4,3.4-1.3c2.1,0.2,3.8,1.9,4,4c0,0.1,0,0.2,0,0.3c0,0.8-0.4,1.6-1.2,2l-5.4,3.1
		c-1.4,0.8-3.2,0.8-4.6,0l-2-1.2c-0.7-0.4-1.2-1.2-1.2-2v-5L184.2,205.7z"/>
	<path class="st4" d="M164.3,147.2v51.9c0,1.5,2.1,2.8,4.6,2.8c2.6,0,4.6-1.3,4.6-2.8v-51.9L164.3,147.2L164.3,147.2z"/>
	<path class="st5" d="M164.3,156.6V152l8.8,2.4l5.1,2.9h8.2v48.8c0,1.5-2.1,2.8-4.6,2.8c-2.6,0-4.6-1.3-4.6-2.8v-33.8
		c0-3-1.6-5.6-4.1-7l-8.8-5L164.3,156.6L164.3,156.6z"/>
	<path class="st3" d="M184.1,136.1v29.7c0,0.4,0.3,0.8,0.7,0.9l0,0l0,0l0,0l0,0c0.3,0.1,0.6,0.1,1,0.1c2.1,0,3.9-1.5,4.3-3.5
		c0-0.2,0.1-0.4,0.1-0.7l0,0c0,0,0-22.2,0-26.5c0-0.5-0.4-0.9-0.9-0.9H185C184.5,135.2,184.1,135.6,184.1,136.1z"/>
	<path class="st6" d="M161.9,124.1C161.9,124.1,161.9,124,161.9,124.1c0-0.7,0.1-1.3,0.2-1.8c1-5.3,5.6-9.3,11.2-9.3
		c0.9,0,1.7,0.1,2.5,0.3h0.1l0,0l0,0c0.6,0.1,1.2,0.4,1.8,0.7l5.7,3.3l0,0c4.8,2.8,8.6,10.2,8.6,16.5v4.1c0,1-0.6,1.9-1.8,2.5
		c-1.6,0.9-3.9,1.2-6.1,0.9v20.2c-1.8,0.1-3.7-0.3-5.2-1.1l-14.6-8.4v-21.1l-0.6-0.3C163.8,130.6,161.9,124.1,161.9,124.1z"/>
	<path class="st5" d="M180.6,115.7c-2.5-1.4-6.2-1.6-8.3-0.3c-2.1,1.2-1.9,3.4,0.6,4.8s6.2,1.6,8.3,0.3
		C183.3,119.3,183,117.1,180.6,115.7z"/>
	<path class="st3" d="M186.1,102.2c0-5.1-4.1-9.2-9.2-9.2c-5.1,0-9.2,4.1-9.2,9.2c0,0-0.7,14,12.2,14.1c1,0,1.9-0.4,2.4-1.2
		C186.2,109.7,186.1,102.2,186.1,102.2z"/>
	<path class="st6" d="M186.1,102.2c0-5.1-4.1-9.2-9.2-9.2c-5.1,0-9.2,4.1-9.2,9.2c0,0-0.3,5.6,2.8,9.7c2.7,0.5,9.6,0.8,12.5-6.6
		c0,0,1.3-0.3,3.1-1.4C186.1,102.9,186.1,102.2,186.1,102.2z"/>
	<circle class="st5" cx="168.4" cy="104.3" r="3.9"/>
	<path class="st3" d="M182.9,105.3c0,0,0.7-1.7,0.6-4.5c0,0,1.1,3.1,0.7,5.6L182.9,105.3z"/>
	<path class="st3" d="M181.8,110.9c0.7,0,1.4-0.6,1.4-1.8c0-1.3-0.8-2.7-1.7-3.3c-0.3-0.2-0.6-0.2-0.8-0.2c-0.7,0-1.4,0.6-1.4,1.8
		c0,1.3,0.8,2.7,1.7,3.3C181.3,110.8,181.5,110.9,181.8,110.9z"/>
</g>
<path class="st6" d="M164.3,131.4c0,0-2.5-2.2-2.5-7.3h4.9l-0.6,7.2L164.3,131.4z"/>
<g>
	<g>
		<path class="st7" d="M202.7,96.7V110l0.6-0.3c0.2-0.1,0.2-0.3,0.2-0.6v-12c0-0.3-0.1-0.6-0.2-0.8L202.7,96.7"/>
		<path class="st11" d="M202.7,96.7l0.6-0.3c-0.1-0.2-0.3-0.4-0.5-0.5l-4.2-2.4c-0.2-0.1-0.3-0.1-0.4,0l-0.6,0.3L202.7,96.7z"/>
	</g>
	<path class="st4" d="M198.1,93.8l4.2,2.4c0.4,0.2,0.7,0.8,0.7,1.3v12c0,0.5-0.3,0.7-0.7,0.5l-4.2-2.4c-0.4-0.2-0.7-0.8-0.7-1.3v-12
		C197.4,93.8,197.7,93.6,198.1,93.8z"/>
	<path class="st11" d="M199.9,107.8c0-0.2,0.2-0.4,0.3-0.3c0.2,0.1,0.3,0.4,0.3,0.6s-0.2,0.4-0.3,0.3
		C200,108.3,199.9,108,199.9,107.8z"/>
	<path class="st11" d="M199.9,95.7l0.8,0.4h0.1c0,0,0-0.1-0.1-0.1L199.9,95.7l-0.1-0.1C199.8,95.6,199.8,95.6,199.9,95.7z"/>
	<g>
		<polygon class="st10" points="197.7,95.1 202.7,98 202.7,108.6 197.7,105.8 		"/>
	</g>
</g>
<linearGradient id="SVGID_1_" gradientUnits="userSpaceOnUse" x1="201.0384" y1="-2389.4539" x2="186.7198" y2="-2398.4746" gradientTransform="matrix(1 0 0 -1 0 -2296)">
	<stop  offset="0" style="stop-color:#9FE4F4"/>
	<stop  offset="0.147" style="stop-color:#9FE4F4;stop-opacity:0.853"/>
	<stop  offset="1" style="stop-color:#9FE4F4;stop-opacity:0"/>
</linearGradient>
<polygon class="Light st18" points="187.1,107.1 186.1,98 199.3,95.2 199.5,95.4 "/>
<g>
	<path class="st19" d="M459.8,173.4l-2,1.1l0,0c-1.6,0.9-2.6,2.6-2.6,4.5s2.4,3.4,5.3,3.4c1.4,0,2.6-0.3,3.6-0.9l0,0l4-2.3
		c0.9-0.5,1.4-1.5,1.4-2.5v-3.3H459.8z"/>
	<path class="st15" d="M459.8,119.3v54.1c0,1.6,2.2,2.9,4.8,2.9s4.8-1.3,4.8-2.9v-54.1C469.4,119.3,459.8,119.3,459.8,119.3z"/>
	<g>
		<path class="st19" d="M488.7,148.4v2.3l0,0c0,1.8,0.9,3.5,2.6,4.5c1.6,0.9,4.1-0.4,5.5-2.9c0.7-1.2,1-2.4,1-3.5l0,0v-4.6
			c0-1-0.5-2-1.4-2.5l-1.8-1.1c-0.7-0.4-1.5-0.4-2.1,0l-3.8,2.2L488.7,148.4z"/>
		<path class="st16" d="M473.7,129.9h8.5v16.6l6.5-3.7c1.4-0.8,3.6,0.4,4.9,2.7s1.3,4.8-0.1,5.6l-11.9,6.9c-4,2.3-9-0.6-9-5.2v-10
			c0-3.1-1.7-5.8-4.2-7.3v-8.7L473.7,129.9z"/>
	</g>
	<g>
		<path class="st19" d="M482.3,101.9v30.3c-1.3,0.7-2.8,1.1-4.4,1.1c-1.7,0-3.4-0.5-4.8-1.3l-2.9-1.6l0,0l-8.4-4.8l-0.5-0.3l0,0
			l-1.6-0.9v-22.5L482.3,101.9L482.3,101.9z"/>
	</g>
	<g>
		<g>
			<path class="st19" d="M457.2,56.2c0,0.8,0.6,1.5,1.6,2c0.8,0.4,1.9,0.6,3,0.6c2.6,0,4.6-1.2,4.6-2.6s-2.1-2.6-4.6-2.6
				S457.2,54.8,457.2,56.2z"/>
			<path class="st19" d="M457.2,56.2v27.3c0,5.9,3.4,12.7,7.7,15.7h1.6v-43C466.5,56.2,457.2,56.2,457.2,56.2z"/>
		</g>
		<g>
			<path class="st20" d="M464.8,50.3L464.8,50.3c0-0.3,0-0.5-0.1-0.7c-0.4-2-2.1-3.5-4.2-3.5c-0.3,0-0.6,0-0.9,0.1l0,0l0,0l0,0l0,0
				c-0.4,0.1-0.6,0.5-0.6,0.9v8.6h5.9L464.8,50.3z"/>
			<path class="st20" d="M464.8,55.7c0,0.4-0.4,0.8-1,1.1c-0.5,0.2-1.2,0.4-1.9,0.4c-1.6,0-2.9-0.7-2.9-1.5s1.3-1.5,2.9-1.5
				C463.5,54.3,464.8,54.9,464.8,55.7z"/>
		</g>
	</g>
	<g>
		<circle class="st16" cx="478" cy="75.4" r="3.8"/>
		<path class="st19" d="M469.1,83.6c0.9,0,1.8,0.1,2.6,0.3h0.1l0,0l0,0c0.6,0.1,1.2,0.4,1.8,0.8l6.8,3.9v44.1
			c-1.8,0.1-3.9-0.3-5.4-1.2l-13.2-7.5l-0.5-0.3l0,0l-1.6-0.9v-36L469.1,83.6z"/>
		<path class="st16" d="M476.9,86.5c-0.2-0.1-0.5-0.3-0.8-0.4l-0.8-8.5l-10.1,3.1l1.1,5.3c-2.7,1.6-2.3,4.3,0.8,6
			c3.1,1.8,7.8,2,10.5,0.4C480.3,91,480,88.3,476.9,86.5z"/>
		<g>
			<path class="st20" d="M473.6,76.9c-0.6-1.1-0.9-2.1-1.1-2.9c-0.5,1-0.9,2.2-1.1,3.5c-5.1-0.6-8.6-2.5-10.4-3.6
				c-0.1,1.5,0,3.1,0.4,4.9c0.7,3.5,1.9,6.3,3.3,8.6l0,0c0.6,1,1.7,1.7,3,1.7c0.6,0,1.1-0.1,1.6-0.4l0,0c1.6-0.8,3.7-2.2,5.4-4.3
				c0.8-1,1.6-2.1,2.2-3.4C475.4,79.7,474.3,78.2,473.6,76.9z"/>
			<path class="st21" d="M478.4,71.8c-0.1-0.8-0.3-1.6-0.6-2.2c-0.3-0.6-0.6-1.2-0.9-1.7c-4.2-6-15.1-4.4-15.8,6
				c1.8,1.1,5.3,3,10.4,3.6c0.2-1.3,0.6-2.5,1.1-3.5c0.2,0.8,0.5,1.8,1.1,2.9c0.7,1.3,1.7,2.8,3.3,4c1-2,1.6-4.5,1.6-7.5
				C478.5,72.9,478.5,72.3,478.4,71.8z"/>
		</g>
		<path class="st20" d="M474.9,82.6c-0.7,0-1.4-0.5-1.4-1.8c0-1.2,0.7-2.6,1.7-3.2c0.3-0.2,0.5-0.2,0.8-0.2c0.7,0,1.4,0.5,1.4,1.8
			c0,1.2-0.7,2.6-1.7,3.2C475.4,82.5,475.1,82.6,474.9,82.6z"/>
	</g>
	<g>
		<g>
			<path class="st19" d="M488.7,68.7c0,0.8-0.6,1.5-1.6,2c-0.8,0.4-1.9,0.6-3,0.6c-2.6,0-4.6-1.2-4.6-2.6s2.1-2.6,4.6-2.6
				C486.6,66.2,488.7,67.3,488.7,68.7z"/>
			<path class="st19" d="M488.7,68.7V96c0,5.9-3.4,9.3-7.7,12.3h-1.6V68.7H488.7z"/>
		</g>
		<g>
			<path class="st20" d="M487,62.9c0-0.2,0-0.5-0.1-0.7c-0.4-2-2.1-3.5-4.2-3.5c-0.3,0-0.6,0-0.9,0.1l0,0l0,0l0,0l0,0
				c-0.4,0.1-0.7,0.5-0.7,0.9v8.6h5.9L487,62.9z"/>
			<path class="st20" d="M481.1,68.4c0,0.4,0.4,0.8,1,1.1c0.5,0.2,1.2,0.4,1.9,0.4c1.6,0,2.9-0.7,2.9-1.5s-1.3-1.5-2.9-1.5
				S481.1,67.6,481.1,68.4z"/>
		</g>
	</g>
</g>
<g>
	<g>
		<path class="st6" d="M62.5,255.3l-2,1.2l0,0c-1.6,0.9-2.6,2.6-2.6,4.6c0,1.9,2.4,3.4,5.3,3.4c1.4,0,2.7-0.3,3.6-0.9l0,0l4.1-2.3
			c0.9-0.5,1.5-1.5,1.5-2.5v-3.4h-9.9V255.3z"/>
		<path class="st4" d="M62.5,232v23.3c0,1.6,2.2,3,4.9,3s4.9-1.3,4.9-3V232H62.5z"/>
		<polygon class="st4" points="65.4,226.9 88.1,213.8 93,222.3 68.4,236.4 		"/>
		<path class="st4" d="M77,231.5c1.3-0.7,2.8-1.2,4.3-1.2c1.6,0,3,0.4,4.3,1.2v-7.2l-8.7-4.1L77,231.5z"/>
		<g>
			<path class="st6" d="M89.9,277l-2,1.2l0,0c-1.6,0.9-2.6,2.6-2.6,4.6c0,1.9,2.4,3.4,5.3,3.4c1.4,0,2.7-0.3,3.6-0.9l0,0l4-2.3
				c0.9-0.5,1.5-1.5,1.5-2.5V277H89.9z"/>
			<polygon class="st5" points="77.5,166.7 79.8,165.4 79.8,168.8 77.5,168.8 			"/>
			<g>
				<path class="st3" d="M64,211.7l14.6-8.3c2.5-1.5,4.1-4.2,4.1-7.1l-5.3-0.2l-1.6,0.2l-1.4-0.3l-11,6.4c-1.4,0.8-2.2,2.3-2.2,3.9
					v4.1L64,211.7z"/>
			</g>
			<path class="st5" d="M91.1,225.8l-5.4-3.1v8.8c2.5,1.5,4.3,4.2,4.3,7.4V277c0,1.6,2.2,2.9,4.9,2.9c2.7,0,4.9-1.3,4.9-2.9v-51.2
				H91.1z"/>
			<polygon class="st3" points="97.9,217.8 97.9,203.1 106.1,203.1 106.1,209.2 			"/>
			<path class="st6" d="M74.5,191.1C74.5,191.1,74.5,191,74.5,191.1c0-0.1,0-0.2,0-0.3c0,0,0,0,0-0.1c0-0.7,0.1-1.3,0.2-1.9
				c1-5.5,5.9-9.7,11.7-9.7c0.9,0,1.8,0.1,2.6,0.3h0.1l0,0l0,0c0.6,0.1,1.2,0.4,1.8,0.8l6,3.4l0,0c5,2.9,9.1,10.7,9.1,17.4v4.3
				c0,1-0.6,2-1.8,2.7c-1.7,1-4.1,1.3-6.4,0.9v8.1l1.8-1.6V228c-1.3,0.7-2.8,1.1-4.4,1.1c-1.8,0-3.4-0.5-4.8-1.3l-2.9-1.7l0,0
				l-8.4-4.8l-0.5-0.3l0,0l-1.6-0.9V198l-0.6-0.3c-0.5-0.3-1.2-0.8-2-1.6v-5C74.5,191.1,74.5,191.1,74.5,191.1L74.5,191.1z"/>
			<path class="st3" d="M86.3,225.2l15.7-9c2.5-1.5,4.1-4.2,4.1-7.1l-5.3-0.2l-1.6,0.2l-1.4-0.3l-13.3,7.7L86.3,225.2z"/>
			<path class="st22" d="M63.3,204.2c2,1.2,3.7,4.3,3.7,7s-1.6,4-3.7,2.8l0,0c-1.3-0.7-2.1-2.1-2.1-3.7v-4.1L63.3,204.2z"/>
			<path class="st5" d="M94.3,182c-0.2-0.1-0.5-0.3-0.8-0.4l-0.8-8.6l-10.2,3.2l1.1,5.4c-2.7,1.6-2.3,4.3,0.8,6.1
				c3.1,1.8,7.9,2,10.6,0.4C97.7,186.6,97.4,183.9,94.3,182z"/>
			<g>
				<path class="st3" d="M86.6,184.1c3.6-1.8,9.3-6.2,9.3-15.3c0-13.2-20.8-12.7-17.2,5.4c0.7,3.5,1.9,6.4,3.3,8.6l0,0
					c0.6,1,1.7,1.7,3,1.7C85.5,184.5,86.1,184.4,86.6,184.1L86.6,184.1z"/>
				<path class="st12" d="M95.8,166.3l-9.3-5.3c0,0-3.8-2-3.8-6.9l9.3,5.3C92,159.4,95.8,161.5,95.8,166.3z"/>
				<path class="st5" d="M82.7,154.1l9.3,5.3c0,0,3.8,2,3.8,6.9l-6.2,3.5c0-4.9-3.8-6.9-3.8-6.9l-9.3-5.3L82.7,154.1z"/>
				<path class="st6" d="M85.8,163c0,0,3.8,2,3.8,6.9l5.9-3.4l0.2-0.1v2.7l0,0c0,1.8-0.2,3.3-0.6,4.8l-1.1,0.7
					c0.3-0.5,0.5-1.2,0.5-1.7c0-1-0.6-1.5-1.1-1.5c-0.2,0-0.5,0.1-0.7,0.2c-0.6,0.4-1.1,1.1-1.3,2l-1.8,1v-1.7
					c0-1.6-0.9-3.4-2.1-4.1l-7.2-4.1c0,0-3.8-2-3.8-6.9L85.8,163z"/>
			</g>
			<path class="st5" d="M87.6,172c1.6,0.9,3.7,0,3.7,0l-3.7,2.1V172z"/>
			<path class="st6" d="M91.3,172c-1.4,0.8-2.5,2.9-2.5,4.7s1.1,2.7,2.5,1.9s2.5-2.9,2.5-4.7C93.7,172.1,92.6,171.3,91.3,172z"/>
			<polygon class="st6" points="83.9,176.2 91.3,172 91.3,178.6 86.1,181.6 			"/>
			<g>
				<path class="st5" d="M88.4,172.5l-10.1-5.7c-0.3-0.2-0.6-0.1-0.8,0l0,0l0,0l0,0l-5.4,3.1l3.4,4.4l5.4,3.7l8.2-4.7
					C89,172.9,88.7,172.6,88.4,172.5z"/>
				<path class="st6" d="M80.9,177.9l2.7,5.1l5.4-3.1l0,0c0.2-0.1,0.4-0.4,0.4-0.7v-5c0-0.3-0.1-0.7-0.3-1L80.9,177.9z"/>
			</g>
			<g>
				<path class="st4" d="M72.9,169.8c-0.6-0.3-1.2,0.1-1.2,0.7v5c0,0.7,0.4,1.4,1,1.8l2.4,1.4l5.4-4.5L72.9,169.8z"/>
				<path class="st7" d="M83,175.5l-2.5-1.4l-5.4,4.5l7.6,4.4c0.6,0.3,1.2-0.1,1.2-0.7v-5C84,176.6,83.6,175.9,83,175.5z"/>
			</g>
			<path class="st11" d="M94,219.1c0-2-1.2-4.4-2.8-5.3c-0.7-0.4-1.3-0.4-1.8-0.1l0,0l-2.7,1.6c-0.1-0.1-0.2-0.1-0.3-0.2
				c-0.8-0.4-1.8-0.6-2.8-0.6c-1.1,0-2.1,0.2-2.8,0.6c-0.1,0.1-0.2,0.1-0.3,0.2c-0.1,0-0.1,0.1-0.2,0.1c-0.1,0.1-0.2,0.2-0.3,0.3
				c-0.4,0.6-0.7,1.4-0.7,2.4c0,2.7,1.6,5.9,3.7,7c1.1,0.6,2.4,0.6,3.4,0l6.7-3.8l0,0C93.6,221,94,220.3,94,219.1z"/>
			<g>
				<path class="st11" d="M71,206c0-2-1.2-4.4-2.8-5.3c-0.7-0.4-1.4-0.4-1.8-0.1l0,0l-3,1.8c-1.4,0.8-2.2,2.3-2.2,3.9l2.1-2
					c1.7,1,3.2,3.4,3.6,5.8l3.2-1.8C70.7,207.9,71,207.1,71,206z"/>
				<path class="st11" d="M61.2,210.4c0,1.5,0.8,2.9,2.1,3.7c2,1.2,3.7-0.1,3.7-2.8c0-0.4,0-0.8-0.1-1.2l-2.8,1.6L61.2,210.4z"/>
				<path class="st11" d="M64,211.7l2.8-1.6c-0.4-2.4-1.8-4.8-3.6-5.8l-2.1,2v4.1L64,211.7z"/>
			</g>
			<g>
				<path class="st23" d="M83.5,216.8c0.4,0,0.8-0.1,1.1-0.2c0.2-0.1,0.4-0.3,0.4-0.5s-0.1-0.3-0.4-0.5s-0.7-0.2-1.1-0.2
					s-0.8,0.1-1.1,0.2c-0.2,0.1-0.4,0.3-0.4,0.5s0.1,0.3,0.4,0.5C82.7,216.8,83.1,216.8,83.5,216.8z"/>
				<rect x="82.1" y="214.3" class="st23" width="2.9" height="1.8"/>
				<path class="st24" d="M83.5,215c0.4,0,0.8-0.1,1.1-0.2c0.2-0.1,0.4-0.3,0.4-0.5s-0.1-0.3-0.4-0.5s-0.7-0.2-1.1-0.2
					s-0.8,0.1-1.1,0.2c-0.2,0.1-0.4,0.3-0.4,0.5s0.1,0.3,0.4,0.5C82.7,214.9,83.1,215,83.5,215z"/>
			</g>
			<g>
				<path class="st23" d="M64.9,206.2c0.4,0,0.8-0.1,1.1-0.2c0.2-0.1,0.4-0.3,0.4-0.5s-0.1-0.3-0.4-0.5s-0.7-0.2-1.1-0.2
					s-0.8,0.1-1.1,0.2c-0.2,0.1-0.4,0.3-0.4,0.5s0.1,0.3,0.4,0.5C64.1,206.1,64.5,206.2,64.9,206.2z"/>
				<rect x="63.4" y="203.6" class="st23" width="2.9" height="1.8"/>
				<path class="st24" d="M64.9,204.4c0.4,0,0.8-0.1,1.1-0.2c0.2-0.1,0.4-0.3,0.4-0.5s-0.1-0.3-0.4-0.5s-0.7-0.2-1.1-0.2
					s-0.8,0.1-1.1,0.2c-0.2,0.1-0.4,0.3-0.4,0.5s0.1,0.3,0.4,0.5C64.1,204.3,64.5,204.4,64.9,204.4z"/>
			</g>
		</g>
		<path class="st4" d="M68.5,238c-3.3,0-6-2.7-6-6c0-2.2,1.2-4.1,2.9-5.1c0.9-0.5,1.9-0.8,3-0.8L68.5,238L68.5,238z"/>
	</g>
	<g>
		<path class="st11" d="M92.3,172.9v3.8l2.5-1.4c0.5-1.3,0.8-2.8,1-4.4L92.3,172.9z"/>
	</g>
</g>
<g>
	<g>
		<path class="st20" d="M491,199.8l-8-21.9c-0.1-0.4-0.5-0.7-1-0.6l0,0l0,0l0,0l0,0c-0.3,0-0.7,0.1-1,0.2c-2.1,0.8-3.3,2.9-2.9,5
			c0,0.2,0.1,0.5,0.2,0.7l0,0c0,0,1.9,5.1,6.8,18.7L491,199.8z"/>
	</g>
	<path class="st20" d="M485.1,202c0,0,1.8,5.5,5.9,5.5v-7.6L485.1,202z"/>
	<g>
		<g>
			<g>
				<path class="st19" d="M501.1,277.1l-2,1.1l0,0c-1.6,0.9-2.6,2.6-2.6,4.5s2.4,3.4,5.3,3.4c1.4,0,2.6-0.3,3.6-0.9l0,0l4-2.3
					c0.9-0.5,1.4-1.5,1.4-2.5v-3.3L501.1,277.1L501.1,277.1z"/>
			</g>
		</g>
		<g>
			<g>
				<path class="st19" d="M487.6,269.8l-2,1.1l0,0c-1.6,0.9-2.6,2.6-2.6,4.5s2.4,3.4,5.3,3.4c1.4,0,2.6-0.3,3.6-0.9l0,0l4-2.3
					c0.9-0.5,1.4-1.5,1.4-2.5v-3.3L487.6,269.8L487.6,269.8z"/>
			</g>
		</g>
		<path class="st15" d="M487.6,215.6v54.1c0,1.6,2.2,2.9,4.8,2.9s4.8-1.3,4.8-2.9v-54.1H487.6z"/>
		<path class="st16" d="M502.2,226.3l-5.4-3.1v8.7c2.5,1.5,4.2,4.2,4.2,7.3v37.9c0,1.6,2.2,2.9,4.8,2.9c2.7,0,4.8-1.3,4.8-2.9v-50.8
			H502.2z"/>
		<path class="st20" d="M508.3,204.1v31c0,0.4,0.3,0.8,0.7,0.9l0,0l0,0l0,0l0,0c0.3,0.1,0.7,0.1,1,0.1c2.2,0,4.1-1.6,4.4-3.7
			c0-0.2,0.1-0.5,0.1-0.7l0,0c0,0,0-23.1,0-27.6c0-0.5-0.4-0.9-0.9-0.9h-4.4C508.7,203.1,508.3,203.5,508.3,204.1z"/>
		<path class="st19" d="M507.5,184.5L507.5,184.5l-5.9-3.4c-0.6-0.4-1.2-0.6-1.8-0.8l0,0l0,0h-0.1c-0.8-0.2-1.7-0.3-2.6-0.3
			c-5.8,0-10.6,4.2-11.7,9.7c-0.1,0.6-0.2,1.2-0.2,1.9c0,0,0,0,0,0.1s0,0.2,0,0.2l0,0l0,0l0,0v4.9c0.7,0.8,1.5,1.3,2,1.6l0.6,0.3v22
			l15.2,8.7c1.5,0.9,3.6,1.3,5.4,1.2v-21.1c2.3,0.3,4.7,0,6.4-0.9c1.2-0.7,1.8-1.7,1.8-2.7v-4.2C516.5,195,512.4,187.3,507.5,184.5z
			"/>
		<path class="st16" d="M504.7,182.9c-3.1-1.8-7.8-2-10.5-0.4s-2.4,4.3,0.8,6.1c3.1,1.8,7.8,2,10.5,0.4
			C508.1,187.4,507.8,184.7,504.7,182.9z"/>
	</g>
	<g>
		<polygon class="st14" points="490.6,177.1 480.4,171.3 480.4,181.4 490.6,187.3 		"/>
		<polygon class="st15" points="497.2,181.6 490.6,187.3 490.6,177.1 497.2,173.4 		"/>
		<polygon class="st15" points="488.3,184.2 488.3,186 484,188.4 484,186.7 		"/>
		<polygon class="st14" points="484,186.7 479.6,184.1 479.6,185.9 484,188.4 		"/>
		<polygon class="st16" points="497.2,173.4 487,167.6 480.4,171.3 490.6,177.1 		"/>
		<path class="st16" d="M485.5,184.4c2.1,1.2,3.8-0.1,3.8-2.9c0-2.8-1.7-6.1-3.8-7.3c-2.1-1.2-3.8,0.1-3.8,2.9
			C481.7,179.9,483.4,183.1,485.5,184.4z"/>
		<polygon class="st16" points="484.5,186.5 488,184.6 483,174 479.6,176 		"/>
		<polygon class="st14" points="476.9,172.3 479.6,176 483.6,177.5 479.9,174 		"/>
		<path class="st14" d="M482.1,186.3c2.1,1.2,3.8-0.1,3.8-2.9c0-2.8-1.7-6.1-3.8-7.3c-2.1-1.2-3.8,0.1-3.8,2.9
			C478.3,181.9,480,185.1,482.1,186.3z"/>
		<path class="st12" d="M480.1,184.8c-0.2-0.7-0.4-1.4-0.7-2.1l-7.6-4.3c-0.3,0.3-0.5,0.8-0.7,1.3c-0.3,0.7-0.4,1.5-0.4,2.5
			s0.1,2,0.4,3c0.2,0.7,0.4,1.4,0.7,2.1l7.6,4.3c0.3-0.3,0.5-0.8,0.7-1.3c0.3-0.7,0.4-1.5,0.4-2.5S480.4,185.8,480.1,184.8z"/>
		<path class="st12" d="M475.6,189.4c1.8,1.1,3.3-0.1,3.3-2.5s-1.5-5.3-3.3-6.4c-1.8-1.1-3.3,0.1-3.3,2.5S473.8,188.3,475.6,189.4z"
			/>
		<path class="st16" d="M481.6,185.9c1.8,1.1,3.3-0.1,3.3-2.5s-1.5-5.3-3.3-6.4c-1.8-1.1-3.3,0.1-3.3,2.5
			C478.3,182,479.8,184.9,481.6,185.9z"/>
		<polygon class="st16" points="477.8,189.6 483.8,186.1 479.5,176.9 473.4,180.3 		"/>
		<g>
			<polygon class="st16" points="480.5,172.4 479.9,174 474.4,177.2 474.4,175.9 			"/>
			<polygon class="st15" points="474.4,175.9 471.3,174.2 471.3,175.4 474.4,177.2 			"/>
		</g>
		<path class="st16" d="M477.4,186.4c-0.2-0.7-0.4-1.4-0.7-2.1l-7.6-4.3c-0.3,0.3-0.5,0.8-0.7,1.3c-0.3,0.7-0.4,1.5-0.4,2.5
			s0.1,2,0.4,3c0.2,0.7,0.4,1.4,0.7,2.1l7.6,4.3c0.3-0.3,0.5-0.8,0.7-1.3c0.3-0.7,0.4-1.5,0.4-2.5S477.7,187.4,477.4,186.4z"/>
		<polygon class="st20" points="479.4,182.6 471.8,178.3 469.1,179.9 476.7,184.2 		"/>
		<polygon class="st20" points="471.3,174.2 477.5,170.7 480.5,172.4 474.4,175.9 		"/>
		<polygon class="st16" points="480.5,172.4 485.8,176.2 483.6,177.5 479.9,174 		"/>
		<g>
			<polygon class="st20" points="487,165.3 477.5,170.7 480.5,172.4 490,167 			"/>
		</g>
		<line class="st13" x1="476.9" y1="173.5" x2="473.5" y2="175.4"/>
		<path class="st15" d="M472.2,173.2c0-0.5,0.3-0.7,0.7-0.5c0.4,0.2,0.7,0.8,0.7,1.3v1.7l-1.3-0.8v-1.7H472.2z"/>
		<path class="st21" d="M476.9,173.5v-1.4c0-0.5-0.3-1.1-0.7-1.3c-0.2-0.1-0.3-0.1-0.4,0l-3.4,1.9c0.1-0.1,0.3-0.1,0.4,0
			c0.4,0.2,0.7,0.8,0.7,1.3v1.4L476.9,173.5z"/>
		<g>
			<path class="st14" d="M474,174.2c0-0.9-0.5-1.9-1.2-2.2c-0.3-0.2-0.6-0.2-0.8-0.1l0,0l-10.9,6.4l1.4,3l11.1-6.2l0,0
				C473.8,175,474,174.7,474,174.2z"/>
			<path class="st15" d="M461.8,181.2c0.6,0.3,1.1,0,1.1-0.8s-0.5-1.7-1.1-2.1s-1.1,0-1.1,0.8C460.7,180,461.2,180.9,461.8,181.2z"
				/>
		</g>
		<g>
			<path class="st21" d="M490,167l-9.5,5.4l4.6,3.4l8.1-4.6L490,167z M482,172.5l7.8-4.5l2.4,2.8l-7,4L482,172.5z"/>
		</g>
		<polygon class="st14" points="489.8,168 492.2,170.9 489.1,169.1 488.7,168.7 		"/>
		<polygon class="st15" points="492.2,170.9 489.1,169.1 482.5,172.9 485.2,174.9 		"/>
		<path class="st21" d="M479.4,182.6c0.3,0.7,0.5,1.4,0.7,2.1c0.3,1,0.4,2,0.4,3s-0.1,1.8-0.4,2.5c-0.2,0.5-0.4,0.9-0.7,1.3
			l-2.7,1.6c0.3-0.3,0.5-0.8,0.7-1.3c0.3-0.7,0.4-1.5,0.4-2.5s-0.1-2-0.4-3c-0.2-0.7-0.4-1.4-0.7-2.1L479.4,182.6z"/>
		<g>
			<path class="st15" d="M477.4,186.4c-0.2-0.7-0.4-1.4-0.7-2.1l-5.9-3.4c-0.1,0.4-0.1,0.8-0.1,1.2c0,1,0.1,2,0.4,3
				c0.2,0.7,0.4,1.4,0.7,2.1l5.9,3.4c0.1-0.4,0.1-0.8,0.1-1.2C477.8,188.4,477.7,187.4,477.4,186.4z"/>
		</g>
		<g>
			<path class="st14" d="M476.7,184.2l-3.4-1.9c-0.1,0.3-0.2,0.7-0.2,1.2c0,1.9,1.1,4,2.5,4.8c0.9,0.5,1.6,0.4,2.1-0.3
				c-0.1-0.6-0.2-1.1-0.3-1.7C477.2,185.6,477,184.9,476.7,184.2z"/>
		</g>
	</g>
	<g>
		<path class="st21" d="M488.9,170.2v11.3c0,0,8.8-2,8.8-13.6L488.9,170.2z"/>
		<path class="st20" d="M501.4,173.3c-0.6-1.1-0.9-2.1-1.1-2.9c-0.5,1-0.9,2.2-1.1,3.5c-5.1-0.6-8.6-2.5-10.4-3.6
			c-0.1,1.5,0,3.1,0.4,4.9c0.7,3.5,1.9,6.3,3.3,8.6l0,0c0.6,1,1.7,1.7,3,1.7c0.6,0,1.1-0.1,1.6-0.4l0,0c1.6-0.8,3.7-2.2,5.4-4.3
			c0.8-1,1.6-2.1,2.2-3.4C503.2,176,502.1,174.6,501.4,173.3z"/>
		<path class="st21" d="M499.4,160.9c-0.4-0.1-0.8-0.1-1.2-0.1c-0.2,0-0.4,0-0.4,0l0,0c-4.2,0-8.6,3-9,9.5c1.8,1.1,5.3,3,10.3,3.6
			v11.9c0,0,8.8-2,8.8-13.6C508,163.4,502.2,161.3,499.4,160.9z"/>
	</g>
</g>
<g>
	<path class="st20" d="M380.6,185.9c-0.9-0.9-2.1-1.4-3.5-1.3c-2.1,0.2-3.9,1.9-4,4c0,0.1,0,0.2,0,0.3c0,0.8,0.5,1.6,1.2,2l5.5,3.1
		c1.5,0.8,3.2,0.8,4.7,0l2.1-1.2c0.7-0.4,1.2-1.2,1.2-2v-5L380.6,185.9z"/>
	<path class="st20" d="M367.5,193c-0.9-0.9-2.1-1.4-3.5-1.3c-2.1,0.2-3.9,1.9-4,4c0,0.1,0,0.2,0,0.3c0,0.8,0.5,1.6,1.2,2l5.5,3.1
		c1.5,0.8,3.2,0.8,4.7,0l2.1-1.2c0.7-0.4,1.2-1.2,1.2-2v-5L367.5,193z"/>
	<path class="st20" d="M388.9,115.6v22.5c0,1.8-1.1,3.9-2.5,4.7l-1.3-5.9v-21.4L388.9,115.6L388.9,115.6z"/>
	<path class="st15" d="M387.7,133.7v52.6c0,1.6-2.1,2.8-4.7,2.8s-4.7-1.3-4.7-2.8v-52.6L387.7,133.7L387.7,133.7z"/>
	<path class="st16" d="M387.7,143.3v-4.7l-8.9,2.5l-5.2,3h-8.3v49.4c0,1.6,2.1,2.8,4.7,2.8s4.7-1.3,4.7-2.8v-34.2
		c0-3,1.7-5.7,4.1-7.1l8.9-5.1L387.7,143.3L387.7,143.3z"/>
	<g>
		<g>
			<path class="st19" d="M387.7,113v4.3v21.3l-13.3,7.6c-1.4,0.8-3,1.3-4.8,1.3c-1.6,0-3.1-0.4-4.4-1.1v-33.5L387.7,113L387.7,113z"
				/>
		</g>
		<path class="st20" d="M344.6,124.5c0-0.5,0.4-1,1.1-1.4c0.8-0.5,2-0.7,3.2-0.7s2.3,0.3,3.2,0.7c0,0,0,0,0.1,0l0,0l8.3,4.7v-6.3
			h6.2c0.5,0,0.9,0.4,0.9,0.9v11.3c0,2.9-3.1,4.7-5.6,3.2l-15.2-8.7l0,0C345.6,127.6,344.6,126.2,344.6,124.5z"/>
		<g>
			<g>
				<path class="st14" d="M353.5,112.4c0.3-0.2,0.8-0.1,1.1,0l10.8,6.2l0.3-0.1v0.4c0,0.1-0.1,0.2-0.2,0.3l-13.3,7.7
					c-0.1,0.1-0.3,0.1-0.5,0.1v-13.6L353.5,112.4z"/>
				<path class="st15" d="M340.2,120.1l11.4-6.6v13.6c-0.2,0-0.4-0.1-0.6-0.2l-10.8-6.2c-0.2-0.1-0.3-0.2-0.3-0.4V120L340.2,120.1z"
					/>
			</g>
			<path class="st21" d="M340.2,119.7l13.3-7.7c0.3-0.2,0.8-0.1,1.1,0l10.8,6.2c0.3,0.2,0.4,0.5,0.1,0.6l-13.3,7.7
				c-0.3,0.2-0.8,0.1-1.1,0l-10.8-6.2C340,120.1,339.9,119.9,340.2,119.7z"/>
			<polygon class="st14" points="353.6,112.6 364.3,118.8 352,125.9 341.3,119.8 			"/>
			<path class="st16" d="M359.2,115.3c0.1-0.1,0.4-0.1,0.5,0c0.2,0.1,0.2,0.2,0,0.3c-0.1,0.1-0.4,0.1-0.5,0
				C359.1,115.5,359.1,115.3,359.2,115.3z"/>
			<path class="st16" d="M346.1,123.1c0,0,0.1,0,0.2,0s0.1,0.1,0,0.1S346.2,123.2,346.1,123.1L346.1,123.1z"/>
		</g>
		<path class="st19" d="M368.4,103.5L368.4,103.5l5.8-3.3c0.6-0.4,1.2-0.6,1.8-0.7l0,0l0,0h0.1c0.8-0.2,1.7-0.3,2.5-0.3
			c5.6,0,10.3,4,11.3,9.4c0.1,0.6,0.2,1.2,0.2,1.8c0,0,0,0,0,0.1s0,0.2,0,0.2l0,0l0,0l0,0v4.8c-0.7,0.7-1.4,1.3-1.9,1.6l-0.6,0.3
			v21.3l-13.3,7.6c-1.5,0.9-5,0.4-6.8,0.3v-18.7c-2.3,0.3-4.6,0-6.2-0.9c-1.2-0.7-1.8-1.6-1.8-2.6v-4.1
			C359.6,113.7,363.6,106.3,368.4,103.5z"/>
	</g>
	<path class="st16" d="M371.2,101.9c2.5-1.4,6.3-1.6,8.4-0.3c2.2,1.2,1.9,3.4-0.6,4.9s-6.3,1.6-8.4,0.3
		C368.5,105.5,368.7,103.3,371.2,101.9z"/>
	<path class="st20" d="M365.6,88.2c0-5.2,4.2-9.3,9.3-9.3c5.2,0,9.3,4.2,9.3,9.3c0,0,0.7,14.2-12.4,14.3c-1,0-1.9-0.5-2.4-1.2
		C365.5,95.9,365.6,88.2,365.6,88.2z"/>
	<path class="st21" d="M365.6,88.2c0-5.2,4.2-9.3,9.3-9.3c5.2,0,9.3,4.2,9.3,9.3c0,0,0.3,5.6-2.8,9.8c-2.7,0.5-9.7,0.8-12.7-6.6
		c0,0-1.3-0.3-3.1-1.4C365.6,88.9,365.6,88.2,365.6,88.2z"/>
	<circle class="st16" cx="383.5" cy="90.3" r="3.9"/>
	<path class="st20" d="M368.8,91.4c0,0-0.7-1.8-0.6-4.6c0,0-1.1,3.2-0.7,5.6L368.8,91.4z"/>
	<path class="st20" d="M369.9,97c-0.7,0-1.4-0.6-1.4-1.8c0-1.3,0.8-2.7,1.8-3.3c0.3-0.2,0.6-0.2,0.8-0.2c0.7,0,1.4,0.6,1.4,1.8
		c0,1.3-0.8,2.7-1.8,3.3C370.5,97,370.2,97,369.9,97z"/>
</g>
<g>
	<g>
		<path class="st20" d="M352.5,116.4l-4.6,2.7c-0.2,0.1-0.2,0.3,0,0.4l4.5,2.6c0.2,0.1,0.5,0.1,0.7,0l1.8-1l1.3,0.1l-0.2-0.7l1.8-1
			c0.2-0.1,0.2-0.3,0-0.4l-4.5-2.6C353,116.4,352.7,116.3,352.5,116.4z M355.8,119.2l-3.1,1.8c-0.1,0.1-0.3,0.1-0.5,0
			c-0.1-0.1-0.2-0.2,0-0.3l3.1-1.8c0.1-0.1,0.3-0.1,0.5,0C355.9,119,355.9,119.1,355.8,119.2z M354.6,118.5l-3.1,1.8
			c-0.1,0.1-0.3,0.1-0.5,0c-0.1-0.1-0.2-0.2,0-0.3l3.1-1.8c0.1-0.1,0.3-0.1,0.5,0C354.7,118.4,354.7,118.5,354.6,118.5z
			 M353.5,117.9l-3.1,1.8c-0.1,0.1-0.3,0.1-0.5,0c-0.1-0.1-0.2-0.2,0-0.3l3.1-1.8c0.1-0.1,0.3-0.1,0.5,0S353.6,117.8,353.5,117.9z"
			/>
	</g>
</g>
<g>
	<g>
		<path class="st3" d="M125.5,253.3l1.9,1.1l0,0c1.5,0.9,2.5,2.5,2.5,4.3s-2.2,3.2-5,3.2c-1.3,0-2.5-0.3-3.4-0.8l0,0l-3.8-2.2
			c-0.8-0.5-1.4-1.4-1.4-2.4v-3.2L125.5,253.3L125.5,253.3z"/>
		<path class="st3" d="M137.7,246.4l1.9,1.1l0,0c1.5,0.9,2.5,2.5,2.5,4.3s-2.2,3.2-5,3.2c-1.3,0-2.5-0.3-3.4-0.8l0,0l-3.8-2.2
			c-0.8-0.5-1.4-1.4-1.4-2.4v-3.2L137.7,246.4L137.7,246.4z"/>
		<path class="st3" d="M138.9,177.4v22c0,1.8-1.1,3.8-2.4,4.6l-1.3-5.8v-20.9L138.9,177.4L138.9,177.4z"/>
		<path class="st4" d="M137.7,195.1v51.3c0,1.5-2.1,2.8-4.6,2.8s-4.6-1.2-4.6-2.8v-51.3H137.7z"/>
		<path class="st5" d="M124.5,205.1l5.1-2.9v8.2c-2.4,1.4-4,4-4,6.9v36c0,1.5-2.1,2.8-4.6,2.8s-4.6-1.2-4.6-2.8v-48.2H124.5z"/>
		<path class="st3" d="M118.1,193.8v-9.7c0-0.5-0.4-0.9-0.9-0.9H113c-0.5,0-0.9,0.4-0.9,0.9c0,4.3,0,11.4,0,8.7L118.1,193.8z"/>
		<path class="st6" d="M118.8,165.5L118.8,165.5l5.6-3.2c0.6-0.3,1.2-0.6,1.7-0.7l0,0l0,0h0.1c0.8-0.2,1.6-0.3,2.5-0.3
			c5.5,0,10.1,3.9,11.1,9.2c0.1,0.5,0.2,1.1,0.2,1.8c0,0,0,0,0,0.1s0,0.2,0,0.2l0,0l0,0l0,0v4.7c-0.7,0.7-1.4,1.2-1.9,1.5l-0.6,0.3
			v18.5l-1.5,0.8l0,0l-0.4,0.3l-12.5,7.1c-1.5,0.8-3.4,1.2-5.1,1.1v-17.7c-2.2,0.3-4.5,0-6-0.9c-1.2-0.7-1.7-1.6-1.7-2.5v-4
			C110.3,175.5,114.1,168.2,118.8,165.5z"/>
		<g>
			<path class="st6" d="M137.7,175.4v4.1v20.3L125,207c-1.3,0.8-2.9,1.2-4.5,1.2c-1.5,0-2.9-0.4-4.2-1v-31.8H137.7z"/>
		</g>
		<path class="st5" d="M121.5,164c0.2-0.1,0.5-0.3,0.7-0.4l0.8-8.1l9.6,3l-1,5.1c2.5,1.5,2.2,4-0.7,5.7s-7.4,1.9-10,0.4
			C118.2,168.3,118.5,165.7,121.5,164z"/>
	</g>
	<g>
		<path class="st10" d="M129.3,196.2c3.8-3.4,2.3-7.5,1.2-9.5c-0.4-0.8-0.2-2,0.4-2.1c1.4-0.4,3.4,1.9,5.4,8.5
			c2.6,8.6,8.5,6,10.5,12.5c2,6.4-2.6,14.1-2.6,14.1s-4.6,7.7-8.1,5.3c-3.6-2.5-1.9-11.7-6.7-14.8c-3.7-2.4-5-5.2-4.7-7.4
			c0.1-0.9,0.8-1.3,1.3-0.6c1.1,1.5,3.4,3.5,4.6-4.1L129.3,196.2z"/>
		<path class="st10" d="M114.4,169.7c0,0.1,0.1,0.3,0.2,0.4l18.4,28.7c0.1,0.1,0.1,0.3,0,0.4l-0.4,1.2c-0.1,0.4-0.3,0.6-0.5,0.8
			l-0.8,0.7c-0.1,0.1-0.2,0-0.3-0.1l-16.2-28.4L114.4,169.7z"/>
		<path class="st5" d="M112.8,172.6c-0.2,0.1-0.4,0-0.5-0.3l-2.2-4.7c-0.2-0.3-0.4-0.4-0.7-0.3c-0.6,0.4-1.3,0.1-1.7-0.7
			c-0.4-0.8-0.4-2-0.1-2.8c0.4-0.9,1.2-1.1,1.7-0.6l0,0l6.7,5.7c0.2,0.1,0.3,0.4,0.3,0.7v0.9c0,0.1,0,0.3,0.1,0.4l-1.6,2.6
			C114.9,173.6,114,172.1,112.8,172.6z"/>
		<path class="st5" d="M138.9,214.8l2.2-3.7c0.2-0.3,0.1-0.7,0-1l-0.9-1.4c-0.2-0.3-0.4-0.3-0.6,0l-2.2,3.7c-0.2,0.3-0.1,0.7,0,1
			l0.9,1.4C138.4,215.1,138.7,215.1,138.9,214.8z"/>
	</g>
	<polyline class="st10" points="128.6,202.3 136,210.8 140.6,222.7 140.3,225.9 137.1,225.4 131.2,210.3 127.5,207 125.4,201.8 
		128.6,202.3 	"/>
	<polygon class="st10" points="134.5,185.1 131.4,184.6 132.4,191.6 136.4,191.3 	"/>
	<polygon class="st4" points="114.9,173.6 130.1,200.1 133.2,200.7 133.6,196.8 117.2,171.9 	"/>
	<polygon class="st5" points="116,172.8 114.9,173.6 114.5,171.2 113.6,171.9 112.6,171.3 110.4,166.1 109.5,166.6 108.4,166 
		108.2,163.1 109.3,162.3 110.3,162.3 117,168.7 	"/>
	<g>
		<g>
			<path class="st11" d="M153.8,257.5c3.7-2.1,9.8-2.1,13.6,0c3.7,2.1,3.7,5.6,0,7.7s-9.8,2.1-13.6,0S150,259.7,153.8,257.5z"/>
			<path class="st11" d="M170.1,261.4c0-3.6-4.3-6.5-9.6-6.5s-9.6,2.9-9.6,6.5H170.1z"/>
		</g>
		<g>
			<path class="st4" d="M160.6,259.2c0.6,0,1-0.5,1-1v-81.6c0-0.6-0.5-1-1-1s-1,0.5-1,1v81.6C159.5,258.7,160,259.2,160.6,259.2z"/>
		</g>
		<g>
			<polygon class="st6" points="166.9,182.5 153.6,175.6 155.9,170.8 168.6,178.8 			"/>
			<path class="st7" d="M155.9,170.7c-1.4-0.6-2.9,0-3.6,1.3s0,2.9,1.3,3.6L155.9,170.7z"/>
			<path class="st23" d="M167.7,178.9c-0.7,0.4-1.3,1.6-1.3,2.5s0.6,1.4,1.3,1s1.3-1.6,1.3-2.5S168.4,178.4,167.7,178.9z"/>
			<path class="st6" d="M154.8,170.9c-1,0.6-1.8,2.1-1.8,3.4c0,1.3,0.8,1.9,1.8,1.3c1-0.6,1.8-2.1,1.8-3.4S155.8,170.3,154.8,170.9z
				"/>
		</g>
	</g>
	<g>
		<path class="st11" d="M132.4,196.7c3.8-3.4,2.3-7.5,1.2-9.5c-0.4-0.8-0.2-2,0.4-2.1c1.4-0.4,3.4,1.9,5.4,8.5
			c2.6,8.6,8.5,6,10.5,12.5c2,6.4-2.6,14.1-2.6,14.1s-4.6,7.7-8.1,5.3c-3.6-2.5-1.9-11.7-6.7-14.8c-3.7-2.4-5-5.2-4.7-7.4
			c0.1-0.9,0.8-1.3,1.3-0.6c1.1,1.5,3.4,3.5,4.6-4.1L132.4,196.7z"/>
		<g>
			<path class="st3" d="M132.7,209.2c-2.6-1.7-3.7-3.3-4-4.6c-0.1-0.3,0.1-0.5,0.3-0.3c1.5,1.7,3,1.6,4.1-0.2
				c0.6-1.1,1.1-2.8,1.5-5.1l0.1-0.9c0,0,0.1-0.8,0.3-2c0.1-0.8,0.7-0.9,1-0.2c0.7,1.9,1.9,4.2,3.2,5.2c2.4,1.7,4.4,2.7,4.7,6.1
				s-4.6,5.8-4.8,11.7c0,1-0.1,1.7-0.2,2.3c-0.1,0.8-0.8,0.9-1.1,0.1c-0.2-0.8-0.4-1.7-0.6-2.7C136.5,215.2,135.7,211.2,132.7,209.2
				z"/>
		</g>
		<path class="st5" d="M117.5,170.2c0,0.1,0.1,0.3,0.2,0.4l18.4,28.7c0.1,0.1,0.1,0.3,0,0.4l-0.4,1.2c-0.1,0.4-0.3,0.6-0.5,0.8
			l-0.8,0.7c-0.1,0.1-0.2,0-0.3-0.1L116,172.8L117.5,170.2z"/>
		<path class="st3" d="M113.9,171.9c-0.2,0.1-0.4,0-0.5-0.3l-2.2-4.7c-0.2-0.3-0.4-0.4-0.7-0.3c-0.6,0.4-1.3,0.1-1.7-0.7
			c-0.4-0.8-0.4-2-0.1-2.8c0.4-0.9,1.2-1.1,1.7-0.6l0,0l6.7,5.7c0.2,0.1,0.3,0.4,0.3,0.7v0.9c0,0.1,0,0.3,0.1,0.4l-1.6,2.6
			C116,172.8,115,171.3,113.9,171.9z"/>
		<path class="st5" d="M142,215.3l2.2-3.7c0.2-0.3,0.1-0.7,0-1l-0.9-1.4c-0.2-0.3-0.4-0.3-0.6,0l-2.2,3.7c-0.2,0.3-0.1,0.7,0,1
			l0.9,1.4C141.6,215.5,141.8,215.5,142,215.3z"/>
	</g>
	<path class="st3" d="M117.4,186.6l0.7-0.8l5.5-6.5c0.3-0.3,0.7-0.4,1.1-0.2l0,0l0,0l0,0l0,0c0.3,0.1,0.5,0.3,0.8,0.5
		c1.6,1.4,2,3.6,1,5.4c-0.1,0.2-0.2,0.4-0.4,0.6l0,0c0,0-3.4,4.1-8,9.5c0,0,0,0.1-0.1,0.1c-2,2.4-5.9,1-5.9-2.2v-0.1L117.4,186.6z"
		/>
	<g>
		<path class="st5 Headbob" d="M136.4,152v10.7c0,0-8.3-1.9-8.3-12.9L136.4,152z"/>
		<path class="st3 Headbob" d="M124.6,154.9c0.5-1,0.8-2,1-2.8c0.5,0.9,0.8,2.1,1,3.3c4.8-0.6,8.1-2.4,9.8-3.4c0.1,1.4,0,3-0.4,4.7
			c-0.7,3.3-1.8,6-3.1,8.1l0,0c-0.6,0.9-1.6,1.6-2.8,1.6c-0.6,0-1.1-0.1-1.5-0.4l0,0c-1.5-0.8-3.5-2.1-5.1-4c-0.8-0.9-1.5-2-2.1-3.2
			C122.9,157.5,123.9,156.1,124.6,154.9z"/>
		<path class="Headbob st6" d="M126.5,143.1c0.4-0.1,0.7-0.1,1.1-0.1c0.2,0,0.3,0,0.3,0l0,0c4,0,8.1,2.9,8.5,9c-1.7,1.1-5,2.8-9.8,3.4v11.2
			c0,0-8.3-1.9-8.3-12.9C118.4,145.5,123.8,143.6,126.5,143.1z"/>
	</g>
</g>
<g>
	<g>
		<path class="Hover st5" d="M180.2,85.4L180.2,85.4c-0.4,0-0.7-0.3-0.7-0.7V75c0-0.4,0.3-0.7,0.7-0.7l0,0c0.4,0,0.7,0.3,0.7,0.7v9.7
			C180.9,85.1,180.6,85.4,180.2,85.4z"/>
		<path class="Hover st5" d="M194.2,85.4L194.2,85.4c-0.4,0-0.7-0.3-0.7-0.7V75c0-0.4,0.3-0.7,0.7-0.7l0,0c0.4,0,0.7,0.3,0.7,0.7v9.7
			C194.9,85.1,194.6,85.4,194.2,85.4z"/>
	</g>
	<g>
		<path class="Hover st5" d="M201.3,78.1L201.3,78.1c-0.4,0-0.8-0.1-1.1-0.3l-1.4-0.8c-3.7-2.1-3.7-7.5,0-9.7l1.4-0.8
			c0.3-0.2,0.7-0.3,1.1-0.3l0,0c2.2,0,4-0.9,4-2s-1.8-2-4-2s-4,0.9-4,2l0,0c0,0.4-0.2,0.8-0.5,1l-0.1,0.1c-3.8,2.2-15.3,2.2-19,0
			l-0.1-0.1c-0.3-0.2-0.5-0.6-0.5-1l0,0c0-1.1-1.8-2-4-2s-4,0.9-4,2s1.8,2,4,2l0,0c0.4,0,0.8,0.1,1.1,0.3l1.4,0.8
			c3.7,2.1,3.7,7.5,0,9.7l-1.4,0.8c-0.3,0.2-0.7,0.3-1.1,0.3l0,0c-2.2,0-4,0.9-4,2s1.8,2,4,2s4-0.9,4-2l0,0c0-0.4,0.2-0.8,0.5-1
			l0.1-0.1c5.9-3.4,13.1-3.4,19,0l0.1,0.1c0.3,0.2,0.5,0.6,0.5,1l0,0c0,1.1,1.8,2,4,2s4-0.9,4-2S203.5,78.1,201.3,78.1z"/>
		<rect x="204.2" y="79" class="Hover st5" width="1.1" height="1.1"/>
		<rect x="169" y="79" class="Hover st5" width="1.1" height="1.1"/>
		<rect x="204.2" y="63.2" class="Hover st5" width="1.1" height="1.1"/>
		<rect x="169" y="63.2" class="Hover st5" width="1.1" height="1.1"/>
		<path class="Hover st6" d="M201.3,77L201.3,77c-0.4,0-0.8-0.1-1.1-0.3l-1.4-0.8c-3.7-2.1-3.7-7.5,0-9.7l1.4-0.8c0.3-0.2,0.7-0.3,1.1-0.3
			l0,0c2.2,0,4-0.9,4-2s-1.8-2-4-2s-4,0.9-4,2l0,0c0,0.4-0.2,0.8-0.5,1l-0.1,0.1c-3.8,2.2-15.3,2.2-19,0l-0.1-0.1
			c-0.3-0.2-0.5-0.6-0.5-1l0,0c0-1.1-1.8-2-4-2s-4,0.9-4,2s1.8,2,4,2l0,0c0.4,0,0.8,0.1,1.1,0.3l1.4,0.8c3.7,2.1,3.7,7.5,0,9.7
			l-1.4,0.8c-0.3,0.2-0.7,0.3-1.1,0.3l0,0c-2.2,0-4,0.9-4,2s1.8,2,4,2s4-0.9,4-2l0,0c0-0.4,0.2-0.8,0.5-1l0.1-0.1
			c5.9-3.4,13.1-3.4,19,0l0.1,0.1c0.3,0.2,0.5,0.6,0.5,1l0,0c0,1.1,1.8,2,4,2s4-0.9,4-2S203.5,77,201.3,77z"/>
		<g>
			<path class="Hover st5" d="M177.1,78.6c1.7-5,5.5-7.7,10.1-7.7c4.5,0,8.4,2.6,10.1,7.7l-7-2.5l-3.1-0.1l-6.7,1.1L177.1,78.6z"/>
		</g>
		<ellipse class="Hover st25" cx="201.3" cy="63.2" rx="9.3" ry="4.6"/>
		<ellipse class="Hover st25" cx="173" cy="63.2" rx="9.3" ry="4.6"/>
		<ellipse class="Hover st25" cx="201.3" cy="79" rx="9.3" ry="4.6"/>
		<ellipse class="Hover st25" cx="173" cy="79" rx="9.3" ry="4.6"/>
		<ellipse class="Hover st3" cx="201.3" cy="63.2" rx="1.1" ry="0.5"/>
		<ellipse class="Hover st3" cx="201.3" cy="79" rx="1.1" ry="0.5"/>
		<ellipse class="Hover st3" cx="173" cy="79" rx="1.1" ry="0.5"/>
		<ellipse class="Hover st3" cx="173" cy="63.2" rx="1.1" ry="0.5"/>
	</g>
</g>
<polygon class="Hover st26" points="574.4,306 497.3,350 574.4,350 "/>
<polygon class="Hover st26" points="0,306 77.1,350 0,350 "/>
<g id="Layer_2">
</g>
<g id="Layer_3">
</g>
<linearGradient id="SVGID_2_" gradientUnits="userSpaceOnUse" x1="424.0475" y1="236.9626" x2="449.0197" y2="252.6949" gradientTransform="matrix(1 0 0 -1 0 352)">
	<stop  offset="0" style="stop-color:#A83592"/>
	<stop  offset="1" style="stop-color:#A83592;stop-opacity:0"/>
</linearGradient>
<polygon class="Light3 st27" points="431.2,118.8 448.5,91.4 448.3,106.1 "/>
<g>
	<g>
		<path class="Jump2 st20" d="M420.5,129.2c-1.7-2-1.4-5,0.6-6.7s5-1.4,6.7,0.6c0.4,0.4,0.4,1.2,0,2c-0.4,1-1.2,2-2.2,2.9
			c-1,0.9-2.2,1.4-3.2,1.6C421.6,129.8,420.9,129.6,420.5,129.2z"/>
		<path class="Jump2 st20" d="M419.7,124.5l-3.6,9.9l-5.9-7.2l-5.2,4.4c-0.4,0.4-0.5,1-0.1,1.4l9.4,11.3c2,2.4,5.9,1.7,7-1.2l6.7-18
			L419.7,124.5z"/>
	</g>
	<g>
		<g>
			<g>
				<g>
					<path class="st23" d="M434.1,119.9c-2.3-1.4-4.2,0.1-4.2,3.2s1.9,6.8,4.2,8.1c2.3,1.4,4.2-0.1,4.2-3.2
						C438.3,124.8,436.4,121.2,434.1,119.9z"/>
				</g>
			</g>
			<path class="st14" d="M441,114.7L441,114.7c0.6-0.3,1.4-0.3,2.3,0.2c1.9,1.1,3.5,4.1,3.5,6.6c0,1.4-0.5,2.4-1.3,2.8l0,0l-6.9,4
				l-4.5-9.6L441,114.7z"/>
			<path class="st16" d="M429.5,115.4l9.1,5.3c0.9,0.5,1.6,1.9,1.6,3.1v8.8c0,1.2-0.7,1.8-1.6,1.2l-9.1-5.3
				c-0.9-0.5-1.6-1.9-1.6-3.1v-8.8C427.9,115.4,428.6,114.9,429.5,115.4z"/>
			<path class="st16" d="M431.4,115.9c0-0.6,0.3-0.8,0.8-0.6l2.6,1.5c0.4,0.2,0.8,0.9,0.8,1.5v0.6l-4.1-2.4L431.4,115.9L431.4,115.9
				z"/>
			<polygon class="st16" points="435.5,118.9 430.9,121.5 426.7,119.2 427,117.9 431.7,115.3 434.8,117.9 			"/>
			<polygon class="st16" points="439.7,133.9 435,136.6 426.5,129.4 423.8,118 428.5,115.3 438.5,123 			"/>
			<path class="st19" d="M424.9,118.1l9.1,5.3c0.9,0.5,1.6,1.9,1.6,3.1v8.8c0,1.2-0.7,1.8-1.6,1.2l-9.1-5.3
				c-0.9-0.5-1.6-1.9-1.6-3.1v-8.8C423.2,118.1,424,117.6,424.9,118.1z"/>
			<path class="st19" d="M426.7,118.6c0-0.6,0.3-0.8,0.8-0.6l2.6,1.5c0.4,0.2,0.8,0.9,0.8,1.5v0.6l-4.1-2.4L426.7,118.6L426.7,118.6
				z"/>
		</g>
		<polygon class="Light4 st14" points="433,133 425.1,128.5 425.1,121 433,125.6 		"/>
	</g>
	<path class="st19" d="M406.4,214.2c0.9-0.9,2.2-1.4,3.5-1.3c2.2,0.2,3.9,1.9,4.1,4.1c0,0.1,0,0.2,0,0.3c0,0.8-0.5,1.6-1.2,2.1
		l-5.6,3.2c-1.5,0.8-3.3,0.8-4.8,0l-2.1-1.2c-0.7-0.4-1.2-1.2-1.2-2.1v-5.1H406.4z"/>
	<path class="st19" d="M419.7,221.5c0.9-0.9,2.2-1.4,3.5-1.3c2.2,0.2,3.9,1.9,4.1,4.1c0,0.1,0,0.2,0,0.3c0,0.8-0.5,1.6-1.2,2.1
		l-5.6,3.2c-1.5,0.8-3.3,0.8-4.8,0l-2.1-1.2c-0.7-0.4-1.2-1.2-1.2-2.1v-5.1H419.7z"/>
	<path class="st15" d="M399.1,160.9v53.7c0,1.6,2.1,2.9,4.8,2.9c2.6,0,4.8-1.3,4.8-2.9v-53.7H399.1z"/>
	<path class="st16" d="M399.1,170.7v-4.8l9.1,2.5l5.3,3h8.5v50.4c0,1.6-2.1,2.9-4.8,2.9s-4.8-1.3-4.8-2.9V187c0-3.1-1.7-5.8-4.2-7.2
		l-9.1-5.2V170.7z"/>
	<g>
		<path class="st19" d="M422,148.2v26.5c-1.3,0.7-2.9,1.1-4.5,1.1c-1.8,0-3.4-0.5-4.9-1.3l-2.9-1.7l0,0l-8.5-4.9l-0.5-0.3l0,0
			l-1.6-0.9v-18.5L422,148.2L422,148.2z"/>
	</g>
	<g>
		<path class="st20" d="M434.5,137.2c-1.7-2-1.4-5,0.6-6.7s5-1.4,6.7,0.6c0.4,0.4,0.4,1.2,0,2c-0.4,1-1.2,2-2.2,2.9
			s-2.2,1.4-3.2,1.6C435.5,137.7,434.8,137.6,434.5,137.2z"/>
		<path class="st20" d="M433.6,132.4l-3.6,9.9l-8.2-9.8l-5.2,4.4c-0.4,0.4-0.5,1-0.1,1.4l11.7,14c2,2.4,5.9,1.7,7-1.2l6.7-18
			L433.6,132.4z"/>
	</g>
	<path class="st19" d="M399.1,144.1c0,0-4.8-7.7-0.3-13.8c2.1-2.9,5.6-4.8,9.5-4.8c0.9,0,1.8,0.1,2.6,0.3h0.1l0,0l0,0
		c0.6,0.1,1.2,0.4,1.8,0.8l5.9,3.4l0,0c1.4,0.8,2.8,2.1,4,3.6l-0.2,7.5l0.6,9.9l-3.7-1.3v24.5c-1.8,0.1-3.8-0.3-5.4-1.2l-15.1-8.6
		v-20.3"/>
	<ellipse transform="matrix(0.7667 -0.642 0.642 0.7667 4.2095 308.7934)" class="st19" cx="427" cy="148.6" rx="6.4" ry="3.7"/>
	<polygon class="st19" points="422.1,152.6 413,141.8 422.8,133.6 431.9,144.5 	"/>
	
		<ellipse transform="matrix(0.7682 -0.6402 0.6402 0.7682 8.7118 299.4683)" class="st19" cx="417.9" cy="137.7" rx="6.4" ry="6.4"/>
	<path class="st16" d="M413.7,127.3c-2.6-1.5-6.4-1.6-8.6-0.4c-2.2,1.3-1.9,3.5,0.6,5c2.6,1.5,6.4,1.6,8.6,0.4
		C416.5,131,416.2,128.7,413.7,127.3z"/>
	<path class="st20" d="M419.2,113.6c0-5.2-4.2-9.4-9.4-9.4c-5.2,0-9.4,4.2-9.4,9.4c0,0-0.7,14.2,12.4,14.3c1,0,1.9-0.5,2.4-1.2
		C419.2,121.2,419.2,113.6,419.2,113.6z"/>
	<g>
		<path class="st21" d="M413.7,120.1l3.5-2.2v-5.7l1.3-1.9c-1.3-3.5-4.8-6-8.7-6c-5.2,0-9.4,4.2-9.4,9.4c0,0-0.2,3.5,1.3,7
			c4.3,2.5,8.5,3.3,10.5,3.6L413.7,120.1z"/>
	</g>
	<path class="st20" d="M414.2,122.5c0.7,0.2,1.5-0.2,1.8-1.4c0.3-1.3-0.1-2.8-0.9-3.6c-0.2-0.2-0.5-0.4-0.8-0.4
		c-0.7-0.2-1.5,0.2-1.8,1.4c-0.3,1.3,0.1,2.8,0.9,3.6C413.7,122.3,413.9,122.4,414.2,122.5z"/>
	<polygon class="st21" points="419.2,111.1 419.2,113.6 412.8,114.7 415.7,110.5 	"/>
	<path class="st21" d="M419.2,113.6c0,0-1.9,0.7-1.9,4.3l-2.6-2.3l1.7-3.8L419.2,113.6z"/>
	<g>
		<path class="st21" d="M411.9,115.2l-9.6-5.5c0,0-3.9-2.1-3.9-7.1l9.6,5.5C408,108.1,411.9,110.2,411.9,115.2z"/>
		<path class="st16" d="M405.6,98.5l9.6,5.5c0,0,3.9,2.1,3.9,7.1l-7.2,4.1c0-5.1-3.9-7.1-3.9-7.1l-9.6-5.5L405.6,98.5z"/>
	</g>
</g>
<g>
	<g>
		<path class="st20" d="M447.3,192.5v22.7c0,2.5-1.5,5.4-3.4,6.5l-1.9-8.1v-21.1L447.3,192.5L447.3,192.5z"/>
		<path class="st19" d="M444.7,266.8l2,1.1l0,0c1.6,0.9,2.6,2.6,2.6,4.5s-2.4,3.4-5.3,3.4c-1.4,0-2.6-0.3-3.6-0.9l0,0l-4-2.3
			c-0.9-0.5-1.5-1.5-1.5-2.5v-3.4L444.7,266.8L444.7,266.8z"/>
		<path class="st15" d="M444.7,212.3v54.5c0,1.6-2.2,2.9-4.9,2.9s-4.9-1.3-4.9-2.9v-54.5L444.7,212.3L444.7,212.3z"/>
		<path class="st19" d="M431.8,274.2l2,1.1l0,0c1.6,0.9,2.6,2.6,2.6,4.5s-2.4,3.4-5.3,3.4c-1.4,0-2.6-0.3-3.6-0.9l0,0l-4-2.3
			c-0.9-0.5-1.5-1.5-1.5-2.5v-3.4L431.8,274.2L431.8,274.2z"/>
		<path class="st16" d="M430.7,223l5.4-3.1v8.7c-2.5,1.5-4.3,4.2-4.3,7.3v38.2c0,1.6-2.2,2.9-4.9,2.9s-4.9-1.3-4.9-2.9V223H430.7z"
			/>
		<polygon class="st20" points="423.9,215 423.9,200.3 415.6,200.3 415.6,206.4 		"/>
		<path class="st19" d="M447.3,188.3L447.3,188.3c0-0.1,0-0.2,0-0.3c0,0,0,0,0-0.1c0-0.7-0.1-1.3-0.2-1.9c-1-5.5-5.9-9.7-11.7-9.7
			c-0.9,0-1.8,0.1-2.6,0.3h-0.1l0,0l0,0c-0.6,0.1-1.2,0.4-1.8,0.8l-6,3.4l0,0c-5,2.9-9.1,10.7-9.1,17.3v4.3c0,1,0.6,2,1.8,2.7
			c1.7,1,4.1,1.3,6.4,0.9v8.1l-1.8-1.6v12.6c1.3,0.7,2.8,1.1,4.4,1.1c1.8,0,3.4-0.5,4.8-1.3l2.9-1.7l0,0l8.4-4.8l0.5-0.3l0,0
			l1.6-0.9v-22.1l0.6-0.3c0.5-0.3,1.2-0.8,2-1.6L447.3,188.3L447.3,188.3L447.3,188.3z"/>
		<path class="st16" d="M427.5,179.3c0.2-0.1,0.5-0.3,0.8-0.4l0.8-8.6l10.2,3.2l-1.1,5.4c2.7,1.6,2.3,4.3-0.8,6.1
			c-3.1,1.8-7.9,2-10.6,0.4S424.4,181.1,427.5,179.3z"/>
		<g>
			<path class="st20" d="M435.2,181.4c-3.6-1.8-9.3-6.2-9.3-15.3c0-13.2,20.7-12.7,17.2,5.4c-0.7,3.5-1.9,6.4-3.3,8.6l0,0
				c-0.6,1-1.7,1.7-3,1.7C436.2,181.8,435.7,181.7,435.2,181.4L435.2,181.4z"/>
			<path class="st21" d="M442.1,161.5L442.1,161.5C442.1,161.5,442,161.4,442.1,161.5C442,161.4,442,161.4,442.1,161.5L442.1,161.5
				c-0.1-0.3-0.2-0.4-0.3-0.6c-4.1-6.2-13.9-4.8-15.6,2.9l0,0l0,0v0.1v0.1v0.1v0.1v0.1v0.1v0.1v0.1v0.1v0.1v0.1v0.1c0,0,0,0,0,0.1
				s0,0.1,0,0.2c0,0,0,0,0,0.1v0.1c0,0,0,0,0,0.1s0,0.1,0,0.2l0,0c0,0.1,0,0.1,0,0.2c0,0,0,0,0,0.1s0,0.1,0,0.2l0,0
				c0,0.1,0,0.2,0,0.3l0,0c0,0.1,0,0.2,0,0.3l0,0c0,0.1,0,0.2,0,0.3l0,0c0,0.1,0,0.2,0,0.3l0,0l0,0c0.1,1.3,0.3,2.5,0.6,3.5l1.1,0.7
				c-0.3-0.5-0.5-1.2-0.5-1.7c0-1,0.6-1.5,1.1-1.5c0.2,0,0.5,0.1,0.7,0.2c0.6,0.4,1.1,1.1,1.3,2l1.8,1V170c0-1.6,0.9-3.4,2.1-4l0,0
				l6.3-3.6l0,0l0,0l0.1-0.1c0.3-0.2,1-0.5,1.6-0.3C442.3,161.8,442.2,161.6,442.1,161.5z"/>
		</g>
		<path class="st14" d="M438.4,185.5c0-0.4-0.1-0.7-0.2-1c-0.3,0.2-0.5,0.4-0.8,0.6c-1.2,0.7-2.6,1.1-4.1,1.4
			c0.3,0.8,0.9,1.4,1.7,1.6l-0.5,30.3h1.9l1.6-2l-0.3-29C438.1,186.8,438.4,186.2,438.4,185.5z"/>
		<path class="st20" d="M438.9,212.7l-1.7,1.1l-13.3-7.7l-1.4,0.3l-1.6-0.2l-5.3,0.2c0,2.9,1.6,5.6,4.1,7.1l15.7,9
			c1.1,0.6,2.3,0.6,3.4,0l0,0c2-1.2,3.7-4.3,3.7-7S440.9,211.5,438.9,212.7z"/>
	</g>
	<g>
		<g>
			<polygon class="st28" points="444.7,222.7 429.8,214.2 451.1,202.1 465.9,210.6 			"/>
			<polygon class="st15" points="438.4,215.9 447.5,221.1 462.8,212.4 453.7,207.2 			"/>
			<polygon class="st21" points="438.1,210.6 441.9,212.8 448.2,209.1 444.4,207 			"/>
			<polygon class="st16" points="444.7,223.6 429.8,215.1 429.8,214.2 444.7,222.7 			"/>
			<path class="st14" d="M444.7,205.9v17.7l21.2-12.1v-17c0-0.7-0.8-1.1-1.4-0.8l-19.1,10.9C445,204.9,444.7,205.4,444.7,205.9z"/>
		</g>
		<path class="Light2 st20" d="M456.1,205.8c-1.2,0.7-2.1,2.5-2.1,4c0,1.6,0.9,2.3,2.1,1.6s2.1-2.5,2.1-4
			C458.2,205.8,457.2,205.1,456.1,205.8z"/>
	</g>
</g>
</svg>

