<?xml version="1.0" encoding="utf-8"?>
<!-- Generator: Adobe Illustrator 21.0.0, SVG Export Plug-In . SVG Version: 6.00 Build 0)  -->
<svg version="1.1" id="Layer_1" xmlns="http://www.w3.org/2000/svg" xmlns:xlink="http://www.w3.org/1999/xlink" x="0px" y="0px"
	 viewBox="0 0 574.4 350" style="enable-background:new 0 0 574.4 350;" xml:space="preserve">
<style type="text/css">
  
  .Light {   
  transform-origin:right;
  animation: lightanim 0.9s 
    alternate
    infinite
   ;
}
  
  <!--.Paper{
    
      animation: paperanim 8s
        forwards
        ;
    }-->
  
  @keyframes paperanim{
    to{ 
    transform: translate(-2px,0px);
     }
    }     
  
   @keyframes lightanim {
  to{
    opacity:0.5;
    animation-timing-function:
      linear
      ease;
  }
}
  
  .Robot {
  animation: hoveranim 2s 
    alternate
    infinite
   ;
}
  
  .Robot2 {
  animation: hoveranim2 3s 
    alternate
    infinite
   ;
}
  
  .Robot3 {
  animation: hoveranim3 3s 
    alternate
    infinite
   ;
}
  
   .Flame {
  animation: flameanim 2s 
    alternate
    infinite
   ;
}
  
  @keyframes hoveranim {
  to{
  transform: translate3d(0, -6px, 0);
  }
}
  
   @keyframes hoveranim2 {
  to{
  transform: translate3d(0, -6px, 0);
  }
}
  
  @keyframes hoveranim3 {
  to{
  transform: translate3d(0, -7px, 0);
  }
}
  
  @keyframes flameanim {
  0%{
  transform: translate3d(0px, -6px, 0);
  }
  50%{
    opacity:0.4;
  }
  100%{
  transform: translate3d(-1px, -12px, 0);
  }
}
  
	.st0{fill:#290C30;}
	.st1{fill:#3A1144;}
	.st2{fill:#4A1756;}
	.st3{fill:#832072;}
	.st4{fill:#761967;}
	.st5{fill:#6A125C;}
	.st6{fill:#A83592;}
	.st7{fill:#9C2E87;}
	.st8{fill:#8F277C;}
	.st9{fill:url(#SVGID_1_);}
	.st10{fill:#922477;}
	.st11{fill:#600F55;}
	.st12{fill:#511C5E;}
	.st13{fill:url(#SVGID_2_);}
	.st14{fill:url(#SVGID_3_);}
	.st15{fill:url(#SVGID_4_);}
	.st16{fill:url(#SVGID_5_);}
	.st17{fill:#9FE4F4;}
	.st18{fill:#3C91B4;}
	.st19{fill:#12678F;}
	.st20{fill:#6DBAD4;}
	.st21{fill:none;}
	.st22{fill:#86CFE4;}
	.st23{fill:#55A6C4;}
	.st24{fill:#237CA4;}
</style>
<g>
	<rect x="0" y="0" class="st0" width="574.4" height="350"/>
	<g>
		<g>
			<polygon class="st1" points="564.7,0 529.4,0 529.4,20.1 			"/>
		</g>
		<g>
			<polygon class="st2" points="529.4,20.1 529.4,0 494.1,0 			"/>
			<g>
				<polygon class="st2" points="552.8,0 552.8,33.6 574.4,45.9 574.4,0 				"/>
			</g>
		</g>
	</g>
	<g>
		<g>
			<g>
				<polygon class="st3" points="566.4,27.8 566.4,29.6 573.2,33.5 573.2,31.6 				"/>
				<polygon class="st4" points="559.6,23.9 559.6,25.8 566.4,29.6 566.4,27.8 				"/>
				<polygon class="st5" points="552.8,20 552.8,21.9 559.6,25.8 559.6,23.9 				"/>
			</g>
			<g>
				<polygon class="st3" points="566.4,9.1 566.4,10.9 573.2,14.8 573.2,12.9 				"/>
				<polygon class="st4" points="559.6,5.2 559.6,7 566.4,10.9 566.4,9.1 				"/>
				<polygon class="st5" points="552.8,1.3 552.8,3.2 559.6,7 559.6,5.2 				"/>
			</g>
			<g>
				<polygon class="st6" points="552.8,10.7 552.8,12.5 559.6,16.4 559.6,14.5 				"/>
				<polygon class="st7" points="566.4,20.3 566.4,18.4 559.6,14.5 559.6,16.4 				"/>
				<polygon class="st8" points="573.2,24.2 573.2,22.3 566.4,18.4 566.4,20.3 				"/>
				<g>
					<polygon class="st8" points="573.2,33.5 574.4,34.2 574.4,32.3 573.2,31.6 					"/>
					<polygon class="st3" points="573.2,3.6 573.2,5.4 574.4,6.1 574.4,4.2 					"/>
					<polygon class="st8" points="573.2,14.8 574.4,15.5 574.4,13.6 573.2,12.9 					"/>
					<polygon class="st3" points="573.2,24.2 574.4,24.8 574.4,23 573.2,22.3 					"/>
				</g>
			</g>
		</g>
		<g>
			<g>
				<polygon class="st6" points="529.4,8.5 529.4,6.6 522.6,2.7 522.6,4.6 				"/>
				<polygon class="st7" points="515.8,0 515.8,0.7 522.6,4.6 522.6,2.7 517.8,0 				"/>
				<g>
					<polygon class="st7" points="563.7,0 566.4,1.6 566.4,0 					"/>
					<polygon class="st8" points="566.4,0 566.4,1.6 573.2,5.4 573.2,3.6 567,0 					"/>
					<polygon class="st8" points="515.8,0.7 515.8,0 514.6,0 					"/>
				</g>
			</g>
		</g>
	</g>
	<g>
		
			<linearGradient id="SVGID_1_" gradientUnits="userSpaceOnUse" x1="-1820.7318" y1="33.2636" x2="-1820.7318" y2="73.9097" gradientTransform="matrix(1 0 0 1 2350.5747 0)">
			<stop  offset="0" style="stop-color:#9D2D84"/>
			<stop  offset="0.4277" style="stop-color:#A4328C;stop-opacity:0.5723"/>
			<stop  offset="1" style="stop-color:#A83592;stop-opacity:0"/>
		</linearGradient>
		<path class="st9" d="M538.5,41.9c0-4.8-3.9-8.6-8.6-8.6s-8.6,3.9-8.6,8.6c0,1.6,8.6,32,8.6,32S538.5,43.5,538.5,41.9z"/>
		<path class="st6" d="M535.8,39.3c0-3.3-2.7-6-6-6c-3.3,0-6,2.7-6,6c0,1.1,0.3,2.2,0.9,3.1h0l5.1,8.4l5.1-8.4h0
			C535.5,41.5,535.8,40.4,535.8,39.3z"/>
		<path class="st10" d="M543.6,25.5c0,7.6-6.1,13.7-13.7,13.7c-7.6,0-13.7-6.1-13.7-13.7c0-1.6,1.3-3.2,3.6-4.5
			c2.7-1.5,6.3-2.3,10.1-2.3c3.8,0,7.4,0.8,10.1,2.3C542.3,22.3,543.6,23.9,543.6,25.5z"/>
		<path class="st11" d="M539.1,0v24.3c0,0.4,0.3,0.7,0.8,1c0.6,0.3,1.4,0.5,2.2,0.5c0.8,0,1.6-0.2,2.2-0.5c0.5-0.3,0.8-0.6,0.8-1V0
			H539.1z"/>
		<path class="st10" d="M529.8,32.3c-3.8,0-7.4-0.8-10.1-2.3c-2.3-1.3-3.6-2.9-3.6-4.5c0-1.6,1.3-3.2,3.6-4.5
			c2.7-1.5,6.3-2.3,10.1-2.3c3.8,0,7.4,0.8,10.1,2.3c2.3,1.3,3.6,2.9,3.6,4.5c0,1.6-1.3,3.2-3.6,4.5
			C537.3,31.5,533.7,32.3,529.8,32.3z"/>
		<rect x="516.1" y="0" class="st10" width="27.5" height="25.5"/>
		<g>
			<path class="st6" d="M517.8,0c0.5,0.5,1.2,0.9,1.9,1.3c2.7,1.5,6.3,2.3,10.1,2.3c3.8,0,7.4-0.8,10.1-2.3c0.7-0.4,1.4-0.9,1.9-1.3
				H517.8z"/>
		</g>
		<path class="st11" d="M514.5,6.7v31.8c0,0.4,0.3,0.7,0.8,1c0.6,0.3,1.4,0.5,2.2,0.5s1.6-0.2,2.2-0.5c0.5-0.3,0.8-0.6,0.8-1V6.7
			H514.5z"/>
		<g>
			<path class="st10" d="M521.1,0h-7c-1.1,1-1.7,2.3-1.7,3.9c0,2.9,2.4,5.3,5.3,5.3s5.3-2.4,5.3-5.3C522.8,2.3,522.1,1,521.1,0z"/>
		</g>
	</g>
	<g>
		<g>
			<g>
				<polygon class="st2" points="93.3,0 93.3,3.4 134,26.6 134,0 				"/>
			</g>
			<g>
				<polygon class="st1" points="180.6,0 134,0 134,26.6 				"/>
			</g>
		</g>
		<g>
			<g>
				<polygon class="st2" points="157.5,0 157.5,40 198.2,63.3 198.2,0 				"/>
			</g>
			<g>
				<polygon class="st1" points="309,0 198.2,0 198.2,63.3 				"/>
			</g>
		</g>
		<g>
			<polygon class="st2" points="221.7,9.6 221.7,76.7 262.4,100 262.4,32.8 			"/>
			<g>
				<polygon class="st1" points="319.8,0 262.4,32.8 262.4,100 384.5,30.2 384.5,0 				"/>
			</g>
		</g>
		<g>
			<polygon class="st2" points="285.8,46.2 285.8,113.4 326.5,136.7 326.5,69.5 			"/>
			<polygon class="st1" points="326.5,69.5 326.5,136.7 448.7,66.9 448.7,0 448.2,0 			"/>
			<g>
				<polygon class="st12" points="221.7,9.6 262.4,32.8 319.8,0 238.4,0 				"/>
				<polygon class="st12" points="366.7,0 285.8,46.2 326.5,69.5 448.2,0 				"/>
			</g>
		</g>
		<g>
			<polygon class="st2" points="350,82.9 350,150.1 390.7,173.3 390.7,106.2 			"/>
			<polygon class="st1" points="390.7,106.2 390.7,173.3 512.8,103.6 512.8,36.4 			"/>
			<polygon class="st12" points="350,82.9 472.1,13.1 512.8,36.4 390.7,106.2 			"/>
		</g>
		<g>
			<polygon class="st2" points="414.1,119.6 414.1,186.7 454.9,210 454.9,142.9 			"/>
			<g>
				<polygon class="st1" points="454.9,142.9 454.9,210 574.4,141.7 574.4,74.6 				"/>
			</g>
			<g>
				<polygon class="st12" points="536.3,49.8 414.1,119.6 454.9,142.9 574.4,74.6 574.4,71.6 				"/>
			</g>
		</g>
		<g>
			<polygon class="st2" points="478.3,156.3 478.3,223.4 519,246.7 519,179.5 			"/>
			<g>
				<polygon class="st1" points="519,179.5 519,246.7 574.4,215.1 574.4,147.9 				"/>
			</g>
		</g>
		<g>
			<g>
				<polygon class="st2" points="542.5,192.9 542.5,260.1 574.4,278.3 574.4,211.2 				"/>
			</g>
			<g>
				<polygon class="st12" points="478.3,156.3 519,179.5 574.4,147.9 574.4,101.4 				"/>
				<polygon class="st12" points="542.5,192.9 574.4,211.2 574.4,174.7 				"/>
			</g>
		</g>
	</g>
	<g>
		<g>
			<g>
				<polygon class="st6" points="542.5,199.8 542.5,201.6 549.2,205.5 549.2,203.6 				"/>
				<polygon class="st7" points="556,209.4 556,207.5 549.2,203.6 549.2,205.5 				"/>
				<polygon class="st8" points="562.8,213.3 562.8,211.4 556,207.5 556,209.4 				"/>
				<polygon class="st3" points="569.6,217.1 569.6,215.3 562.8,211.4 562.8,213.3 				"/>
			</g>
			<g>
				<polygon class="st8" points="562.8,258.2 562.8,260.1 569.6,263.9 569.6,262.1 				"/>
				<polygon class="st3" points="556,254.3 556,256.2 562.8,260.1 562.8,258.2 				"/>
				<polygon class="st4" points="549.2,250.4 549.2,252.3 556,256.2 556,254.3 				"/>
				<polygon class="st5" points="542.5,246.6 542.5,248.4 549.2,252.3 549.2,250.4 				"/>
			</g>
			<g>
				<polygon class="st6" points="542.5,218.5 542.5,220.3 549.2,224.2 549.2,222.3 				"/>
				<polygon class="st7" points="556,228.1 556,226.2 549.2,222.3 549.2,224.2 				"/>
				<polygon class="st8" points="562.8,232 562.8,230.1 556,226.2 556,228.1 				"/>
				<polygon class="st3" points="569.6,235.9 569.6,234 562.8,230.1 562.8,232 				"/>
			</g>
			<g>
				<polygon class="st8" points="562.8,239.5 562.8,241.3 569.6,245.2 569.6,243.3 				"/>
				<polygon class="st3" points="556,235.6 556,237.5 562.8,241.3 562.8,239.5 				"/>
				<polygon class="st4" points="549.2,231.7 549.2,233.6 556,237.5 556,235.6 				"/>
				<polygon class="st5" points="542.5,227.8 542.5,229.7 549.2,233.6 549.2,231.7 				"/>
			</g>
			<g>
				<polygon class="st6" points="542.5,237.2 542.5,239.1 549.2,242.9 549.2,241.1 				"/>
				<polygon class="st7" points="556,246.8 556,244.9 549.2,241.1 549.2,242.9 				"/>
				<polygon class="st8" points="562.8,250.7 562.8,248.8 556,244.9 556,246.8 				"/>
				<polygon class="st3" points="569.6,254.6 569.6,252.7 562.8,248.8 562.8,250.7 				"/>
			</g>
			<g>
				<g>
					<polygon class="st4" points="569.6,215.3 569.6,217.1 574.4,219.8 574.4,218 					"/>
					<polygon class="st7" points="569.6,263.9 574.4,266.7 574.4,264.8 569.6,262.1 					"/>
					<polygon class="st4" points="569.6,235.9 574.4,238.6 574.4,236.7 569.6,234 					"/>
					<polygon class="st7" points="569.6,245.2 574.4,247.9 574.4,246.1 569.6,243.3 					"/>
					<polygon class="st4" points="569.6,254.6 574.4,257.3 574.4,255.4 569.6,252.7 					"/>
					<polygon class="st7" points="569.6,226.5 574.4,229.2 574.4,227.3 569.6,224.6 					"/>
				</g>
				<polygon class="st8" points="562.8,220.7 562.8,222.6 569.6,226.5 569.6,224.6 				"/>
				<polygon class="st3" points="556,216.9 556,218.7 562.8,222.6 562.8,220.7 				"/>
				<polygon class="st4" points="549.2,213 549.2,214.9 556,218.7 556,216.9 				"/>
				<polygon class="st5" points="542.5,209.1 542.5,211 549.2,214.9 549.2,213 				"/>
			</g>
		</g>
		<g>
			<g>
				<polygon class="st6" points="478.3,163.1 478.3,164.9 485.1,168.8 485.1,167 				"/>
				<polygon class="st7" points="491.9,172.7 491.9,170.8 485.1,167 485.1,168.8 				"/>
				<polygon class="st8" points="498.7,176.6 498.7,174.7 491.9,170.8 491.9,172.7 				"/>
				<polygon class="st3" points="505.4,180.5 505.4,178.6 498.7,174.7 498.7,176.6 				"/>
				<polygon class="st4" points="512.2,184.3 512.2,182.5 505.4,178.6 505.4,180.5 				"/>
				<polygon class="st5" points="519,188.2 519,186.3 512.2,182.5 512.2,184.3 				"/>
			</g>
			<g>
				<polygon class="st6" points="519,235 519,233.1 512.2,229.3 512.2,231.1 				"/>
				<polygon class="st7" points="505.4,225.4 505.4,227.3 512.2,231.1 512.2,229.3 				"/>
				<polygon class="st8" points="498.7,221.5 498.7,223.4 505.4,227.3 505.4,225.4 				"/>
				<polygon class="st3" points="491.9,217.6 491.9,219.5 498.7,223.4 498.7,221.5 				"/>
				<polygon class="st4" points="485.1,213.8 485.1,215.6 491.9,219.5 491.9,217.6 				"/>
				<polygon class="st5" points="478.3,209.9 478.3,211.7 485.1,215.6 485.1,213.8 				"/>
			</g>
			<g>
				<polygon class="st6" points="478.3,181.8 478.3,183.7 485.1,187.5 485.1,185.7 				"/>
				<polygon class="st7" points="491.9,191.4 491.9,189.5 485.1,185.7 485.1,187.5 				"/>
				<polygon class="st8" points="498.7,195.3 498.7,193.4 491.9,189.5 491.9,191.4 				"/>
				<polygon class="st3" points="505.4,199.2 505.4,197.3 498.7,193.4 498.7,195.3 				"/>
				<polygon class="st4" points="512.2,203 512.2,201.2 505.4,197.3 505.4,199.2 				"/>
				<polygon class="st5" points="519,206.9 519,205.1 512.2,201.2 512.2,203 				"/>
			</g>
			<g>
				<polygon class="st6" points="519,216.3 519,214.4 512.2,210.5 512.2,212.4 				"/>
				<polygon class="st7" points="505.4,206.7 505.4,208.5 512.2,212.4 512.2,210.5 				"/>
				<polygon class="st8" points="498.7,202.8 498.7,204.7 505.4,208.5 505.4,206.7 				"/>
				<polygon class="st3" points="491.9,198.9 491.9,200.8 498.7,204.7 498.7,202.8 				"/>
				<polygon class="st4" points="485.1,195 485.1,196.9 491.9,200.8 491.9,198.9 				"/>
				<polygon class="st5" points="478.3,191.2 478.3,193 485.1,196.9 485.1,195 				"/>
			</g>
			<g>
				<polygon class="st6" points="478.3,200.5 478.3,202.4 485.1,206.3 485.1,204.4 				"/>
				<polygon class="st7" points="491.9,210.1 491.9,208.3 485.1,204.4 485.1,206.3 				"/>
				<polygon class="st8" points="498.7,214 498.7,212.1 491.9,208.3 491.9,210.1 				"/>
				<polygon class="st3" points="505.4,217.9 505.4,216 498.7,212.1 498.7,214 				"/>
				<polygon class="st4" points="512.2,221.8 512.2,219.9 505.4,216 505.4,217.9 				"/>
				<polygon class="st5" points="519,225.6 519,223.8 512.2,219.9 512.2,221.8 				"/>
			</g>
			<g>
				<polygon class="st6" points="519,197.6 519,195.7 512.2,191.8 512.2,193.7 				"/>
				<polygon class="st7" points="505.4,187.9 505.4,189.8 512.2,193.7 512.2,191.8 				"/>
				<polygon class="st8" points="498.7,184.1 498.7,185.9 505.4,189.8 505.4,187.9 				"/>
				<polygon class="st3" points="491.9,180.2 491.9,182.1 498.7,185.9 498.7,184.1 				"/>
				<polygon class="st4" points="485.1,176.3 485.1,178.2 491.9,182.1 491.9,180.2 				"/>
				<polygon class="st5" points="478.3,172.4 478.3,174.3 485.1,178.2 485.1,176.3 				"/>
			</g>
		</g>
		<g>
			<g>
				<polygon class="st6" points="414.1,126.4 414.1,128.3 420.9,132.1 420.9,130.3 				"/>
				<polygon class="st7" points="427.7,136 427.7,134.1 420.9,130.3 420.9,132.1 				"/>
				<polygon class="st8" points="434.5,139.9 434.5,138 427.7,134.1 427.7,136 				"/>
				<polygon class="st3" points="441.3,143.8 441.3,141.9 434.5,138 434.5,139.9 				"/>
				<polygon class="st4" points="448.1,147.7 448.1,145.8 441.3,141.9 441.3,143.8 				"/>
				<polygon class="st5" points="454.9,151.5 454.9,149.7 448.1,145.8 448.1,147.7 				"/>
			</g>
			<g>
				<polygon class="st6" points="454.9,198.3 454.9,196.5 448.1,192.6 448.1,194.5 				"/>
				<polygon class="st7" points="441.3,188.7 441.3,190.6 448.1,194.5 448.1,192.6 				"/>
				<polygon class="st8" points="434.5,184.8 434.5,186.7 441.3,190.6 441.3,188.7 				"/>
				<polygon class="st3" points="427.7,181 427.7,182.8 434.5,186.7 434.5,184.8 				"/>
				<polygon class="st4" points="420.9,177.1 420.9,178.9 427.7,182.8 427.7,181 				"/>
				<polygon class="st5" points="414.1,173.2 414.1,175.1 420.9,178.9 420.9,177.1 				"/>
			</g>
			<g>
				<polygon class="st6" points="414.1,145.1 414.1,147 420.9,150.9 420.9,149 				"/>
				<polygon class="st7" points="427.7,154.7 427.7,152.9 420.9,149 420.9,150.9 				"/>
				<polygon class="st8" points="434.5,158.6 434.5,156.7 427.7,152.9 427.7,154.7 				"/>
				<polygon class="st3" points="441.3,162.5 441.3,160.6 434.5,156.7 434.5,158.6 				"/>
				<polygon class="st4" points="448.1,166.4 448.1,164.5 441.3,160.6 441.3,162.5 				"/>
				<polygon class="st5" points="454.9,170.2 454.9,168.4 448.1,164.5 448.1,166.4 				"/>
			</g>
			<g>
				<polygon class="st6" points="454.9,179.6 454.9,177.7 448.1,173.9 448.1,175.7 				"/>
				<polygon class="st7" points="441.3,170 441.3,171.9 448.1,175.7 448.1,173.9 				"/>
				<polygon class="st8" points="434.5,166.1 434.5,168 441.3,171.9 441.3,170 				"/>
				<polygon class="st3" points="427.7,162.2 427.7,164.1 434.5,168 434.5,166.1 				"/>
				<polygon class="st4" points="420.9,158.4 420.9,160.2 427.7,164.1 427.7,162.2 				"/>
				<polygon class="st5" points="414.1,154.5 414.1,156.4 420.9,160.2 420.9,158.4 				"/>
			</g>
			<g>
				<polygon class="st6" points="414.1,163.8 414.1,165.7 420.9,169.6 420.9,167.7 				"/>
				<polygon class="st7" points="427.7,173.5 427.7,171.6 420.9,167.7 420.9,169.6 				"/>
				<polygon class="st8" points="434.5,177.3 434.5,175.5 427.7,171.6 427.7,173.5 				"/>
				<polygon class="st3" points="441.3,181.2 441.3,179.3 434.5,175.5 434.5,177.3 				"/>
				<polygon class="st4" points="448.1,185.1 448.1,183.2 441.3,179.3 441.3,181.2 				"/>
				<polygon class="st5" points="454.9,189 454.9,187.1 448.1,183.2 448.1,185.1 				"/>
			</g>
			<g>
				<polygon class="st6" points="454.9,160.9 454.9,159 448.1,155.1 448.1,157 				"/>
				<polygon class="st7" points="441.3,151.3 441.3,153.1 448.1,157 448.1,155.1 				"/>
				<polygon class="st8" points="434.5,147.4 434.5,149.3 441.3,153.1 441.3,151.3 				"/>
				<polygon class="st3" points="427.7,143.5 427.7,145.4 434.5,149.3 434.5,147.4 				"/>
				<polygon class="st4" points="420.9,139.6 420.9,141.5 427.7,145.4 427.7,143.5 				"/>
				<polygon class="st5" points="414.1,135.8 414.1,137.6 420.9,141.5 420.9,139.6 				"/>
			</g>
		</g>
		<g>
			<g>
				<polygon class="st6" points="350,89.7 350,91.6 356.8,95.5 356.8,93.6 				"/>
				<polygon class="st7" points="363.5,99.3 363.5,97.5 356.8,93.6 356.8,95.5 				"/>
				<polygon class="st8" points="370.3,103.2 370.3,101.3 363.5,97.5 363.5,99.3 				"/>
				<polygon class="st3" points="377.1,107.1 377.1,105.2 370.3,101.3 370.3,103.2 				"/>
				<polygon class="st4" points="383.9,111 383.9,109.1 377.1,105.2 377.1,107.1 				"/>
				<polygon class="st5" points="390.7,114.8 390.7,113 383.9,109.1 383.9,111 				"/>
			</g>
			<g>
				<polygon class="st6" points="390.7,161.7 390.7,159.8 383.9,155.9 383.9,157.8 				"/>
				<polygon class="st7" points="377.1,152 377.1,153.9 383.9,157.8 383.9,155.9 				"/>
				<polygon class="st8" points="370.3,148.2 370.3,150 377.1,153.9 377.1,152 				"/>
				<polygon class="st3" points="363.5,144.3 363.5,146.1 370.3,150 370.3,148.2 				"/>
				<polygon class="st4" points="356.8,140.4 356.8,142.3 363.5,146.1 363.5,144.3 				"/>
				<polygon class="st5" points="350,136.5 350,138.4 356.8,142.3 356.8,140.4 				"/>
			</g>
			<g>
				<polygon class="st6" points="350,108.4 350,110.3 356.8,114.2 356.8,112.3 				"/>
				<polygon class="st7" points="363.5,118.1 363.5,116.2 356.8,112.3 356.8,114.2 				"/>
				<polygon class="st8" points="370.3,121.9 370.3,120.1 363.5,116.2 363.5,118.1 				"/>
				<polygon class="st3" points="377.1,125.8 377.1,123.9 370.3,120.1 370.3,121.9 				"/>
				<polygon class="st4" points="383.9,129.7 383.9,127.8 377.1,123.9 377.1,125.8 				"/>
				<polygon class="st5" points="390.7,133.6 390.7,131.7 383.9,127.8 383.9,129.7 				"/>
			</g>
			<g>
				<polygon class="st6" points="390.7,142.9 390.7,141.1 383.9,137.2 383.9,139.1 				"/>
				<polygon class="st7" points="377.1,133.3 377.1,135.2 383.9,139.1 383.9,137.2 				"/>
				<polygon class="st8" points="370.3,129.4 370.3,131.3 377.1,135.2 377.1,133.3 				"/>
				<polygon class="st3" points="363.5,125.6 363.5,127.4 370.3,131.3 370.3,129.4 				"/>
				<polygon class="st4" points="356.8,121.7 356.8,123.5 363.5,127.4 363.5,125.6 				"/>
				<polygon class="st5" points="350,117.8 350,119.7 356.8,123.5 356.8,121.7 				"/>
			</g>
			<g>
				<polygon class="st6" points="350,127.2 350,129 356.8,132.9 356.8,131 				"/>
				<polygon class="st7" points="363.5,136.8 363.5,134.9 356.8,131 356.8,132.9 				"/>
				<polygon class="st8" points="370.3,140.7 370.3,138.8 363.5,134.9 363.5,136.8 				"/>
				<polygon class="st3" points="377.1,144.5 377.1,142.7 370.3,138.8 370.3,140.7 				"/>
				<polygon class="st4" points="383.9,148.4 383.9,146.5 377.1,142.7 377.1,144.5 				"/>
				<polygon class="st5" points="390.7,152.3 390.7,150.4 383.9,146.5 383.9,148.4 				"/>
			</g>
			<g>
				<polygon class="st6" points="390.7,124.2 390.7,122.3 383.9,118.5 383.9,120.3 				"/>
				<polygon class="st7" points="377.1,114.6 377.1,116.5 383.9,120.3 383.9,118.5 				"/>
				<polygon class="st8" points="370.3,110.7 370.3,112.6 377.1,116.5 377.1,114.6 				"/>
				<polygon class="st3" points="363.5,106.8 363.5,108.7 370.3,112.6 370.3,110.7 				"/>
				<polygon class="st4" points="356.8,103 356.8,104.8 363.5,108.7 363.5,106.8 				"/>
				<polygon class="st5" points="350,99.1 350,101 356.8,104.8 356.8,103 				"/>
			</g>
		</g>
		<g>
			<g>
				<polygon class="st6" points="285.8,53 285.8,54.9 292.6,58.8 292.6,56.9 				"/>
				<polygon class="st7" points="299.4,62.7 299.4,60.8 292.6,56.9 292.6,58.8 				"/>
				<polygon class="st8" points="306.2,66.5 306.2,64.7 299.4,60.8 299.4,62.7 				"/>
				<polygon class="st3" points="313,70.4 313,68.5 306.2,64.7 306.2,66.5 				"/>
				<polygon class="st4" points="319.7,74.3 319.7,72.4 313,68.5 313,70.4 				"/>
				<polygon class="st5" points="326.5,78.2 326.5,76.3 319.7,72.4 319.7,74.3 				"/>
			</g>
			<g>
				<polygon class="st6" points="326.5,125 326.5,123.1 319.7,119.2 319.7,121.1 				"/>
				<polygon class="st7" points="313,115.4 313,117.2 319.7,121.1 319.7,119.2 				"/>
				<polygon class="st8" points="306.2,111.5 306.2,113.3 313,117.2 313,115.4 				"/>
				<polygon class="st3" points="299.4,107.6 299.4,109.5 306.2,113.3 306.2,111.5 				"/>
				<polygon class="st4" points="292.6,103.7 292.6,105.6 299.4,109.5 299.4,107.6 				"/>
				<polygon class="st5" points="285.8,99.8 285.8,101.7 292.6,105.6 292.6,103.7 				"/>
			</g>
			<g>
				<polygon class="st6" points="285.8,71.8 285.8,73.6 292.6,77.5 292.6,75.6 				"/>
				<polygon class="st7" points="299.4,81.4 299.4,79.5 292.6,75.6 292.6,77.5 				"/>
				<polygon class="st8" points="306.2,85.3 306.2,83.4 299.4,79.5 299.4,81.4 				"/>
				<polygon class="st3" points="313,89.1 313,87.3 306.2,83.4 306.2,85.3 				"/>
				<polygon class="st4" points="319.7,93 319.7,91.1 313,87.3 313,89.1 				"/>
				<polygon class="st5" points="326.5,96.9 326.5,95 319.7,91.1 319.7,93 				"/>
			</g>
			<g>
				<polygon class="st6" points="326.5,106.3 326.5,104.4 319.7,100.5 319.7,102.4 				"/>
				<polygon class="st7" points="313,96.6 313,98.5 319.7,102.4 319.7,100.5 				"/>
				<polygon class="st8" points="306.2,92.8 306.2,94.6 313,98.5 313,96.6 				"/>
				<polygon class="st3" points="299.4,88.9 299.4,90.7 306.2,94.6 306.2,92.8 				"/>
				<polygon class="st4" points="292.6,85 292.6,86.9 299.4,90.7 299.4,88.9 				"/>
				<polygon class="st5" points="285.8,81.1 285.8,83 292.6,86.9 292.6,85 				"/>
			</g>
			<g>
				<polygon class="st6" points="285.8,90.5 285.8,92.4 292.6,96.2 292.6,94.4 				"/>
				<polygon class="st7" points="299.4,100.1 299.4,98.2 292.6,94.4 292.6,96.2 				"/>
				<polygon class="st8" points="306.2,104 306.2,102.1 299.4,98.2 299.4,100.1 				"/>
				<polygon class="st3" points="313,107.9 313,106 306.2,102.1 306.2,104 				"/>
				<polygon class="st4" points="319.7,111.7 319.7,109.9 313,106 313,107.9 				"/>
				<polygon class="st5" points="326.5,115.6 326.5,113.7 319.7,109.9 319.7,111.7 				"/>
			</g>
			<g>
				<polygon class="st6" points="326.5,87.5 326.5,85.7 319.7,81.8 319.7,83.7 				"/>
				<polygon class="st7" points="313,77.9 313,79.8 319.7,83.7 319.7,81.8 				"/>
				<polygon class="st8" points="306.2,74 306.2,75.9 313,79.8 313,77.9 				"/>
				<polygon class="st3" points="299.4,70.2 299.4,72 306.2,75.9 306.2,74 				"/>
				<polygon class="st4" points="292.6,66.3 292.6,68.2 299.4,72 299.4,70.2 				"/>
				<polygon class="st5" points="285.8,62.4 285.8,64.3 292.6,68.2 292.6,66.3 				"/>
			</g>
		</g>
		<g>
			<g>
				<polygon class="st6" points="221.7,16.4 221.7,18.2 228.4,22.1 228.4,20.2 				"/>
				<polygon class="st7" points="235.2,26 235.2,24.1 228.4,20.2 228.4,22.1 				"/>
				<polygon class="st8" points="242,29.9 242,28 235.2,24.1 235.2,26 				"/>
				<polygon class="st3" points="248.8,33.7 248.8,31.9 242,28 242,29.9 				"/>
				<polygon class="st4" points="255.6,37.6 255.6,35.7 248.8,31.9 248.8,33.7 				"/>
				<polygon class="st5" points="262.4,41.5 262.4,39.6 255.6,35.7 255.6,37.6 				"/>
			</g>
			<g>
				<polygon class="st6" points="262.4,88.3 262.4,86.4 255.6,82.5 255.6,84.4 				"/>
				<polygon class="st7" points="248.8,78.7 248.8,80.5 255.6,84.4 255.6,82.5 				"/>
				<polygon class="st8" points="242,74.8 242,76.7 248.8,80.5 248.8,78.7 				"/>
				<polygon class="st3" points="235.2,70.9 235.2,72.8 242,76.7 242,74.8 				"/>
				<polygon class="st4" points="228.4,67 228.4,68.9 235.2,72.8 235.2,70.9 				"/>
				<polygon class="st5" points="221.7,63.2 221.7,65 228.4,68.9 228.4,67 				"/>
			</g>
			<g>
				<polygon class="st6" points="221.7,35.1 221.7,37 228.4,40.8 228.4,39 				"/>
				<polygon class="st7" points="235.2,44.7 235.2,42.8 228.4,39 228.4,40.8 				"/>
				<polygon class="st8" points="242,48.6 242,46.7 235.2,42.8 235.2,44.7 				"/>
				<polygon class="st3" points="248.8,52.5 248.8,50.6 242,46.7 242,48.6 				"/>
				<polygon class="st4" points="255.6,56.3 255.6,54.5 248.8,50.6 248.8,52.5 				"/>
				<polygon class="st5" points="262.4,60.2 262.4,58.3 255.6,54.5 255.6,56.3 				"/>
			</g>
			<g>
				<polygon class="st6" points="262.4,69.6 262.4,67.7 255.6,63.8 255.6,65.7 				"/>
				<polygon class="st7" points="248.8,60 248.8,61.8 255.6,65.7 255.6,63.8 				"/>
				<polygon class="st8" points="242,56.1 242,57.9 248.8,61.8 248.8,60 				"/>
				<polygon class="st3" points="235.2,52.2 235.2,54.1 242,57.9 242,56.1 				"/>
				<polygon class="st4" points="228.4,48.3 228.4,50.2 235.2,54.1 235.2,52.2 				"/>
				<polygon class="st5" points="221.7,44.4 221.7,46.3 228.4,50.2 228.4,48.3 				"/>
			</g>
			<g>
				<polygon class="st6" points="221.7,53.8 221.7,55.7 228.4,59.6 228.4,57.7 				"/>
				<polygon class="st7" points="235.2,63.4 235.2,61.6 228.4,57.7 228.4,59.6 				"/>
				<polygon class="st8" points="242,67.3 242,65.4 235.2,61.6 235.2,63.4 				"/>
				<polygon class="st3" points="248.8,71.2 248.8,69.3 242,65.4 242,67.3 				"/>
				<polygon class="st4" points="255.6,75.1 255.6,73.2 248.8,69.3 248.8,71.2 				"/>
				<polygon class="st5" points="262.4,78.9 262.4,77.1 255.6,73.2 255.6,75.1 				"/>
			</g>
			<g>
				<polygon class="st6" points="262.4,50.9 262.4,49 255.6,45.1 255.6,47 				"/>
				<polygon class="st7" points="248.8,41.2 248.8,43.1 255.6,47 255.6,45.1 				"/>
				<polygon class="st8" points="242,37.4 242,39.2 248.8,43.1 248.8,41.2 				"/>
				<polygon class="st3" points="235.2,33.5 235.2,35.3 242,39.2 242,37.4 				"/>
				<polygon class="st4" points="228.4,29.6 228.4,31.5 235.2,35.3 235.2,33.5 				"/>
				<polygon class="st5" points="221.7,25.7 221.7,27.6 228.4,31.5 228.4,29.6 				"/>
			</g>
		</g>
		<g>
			<g>
				<polygon class="st6" points="198.2,51.6 198.2,49.7 191.4,45.9 191.4,47.7 				"/>
				<polygon class="st7" points="184.6,42 184.6,43.9 191.4,47.7 191.4,45.9 				"/>
				<polygon class="st8" points="177.8,38.1 177.8,40 184.6,43.9 184.6,42 				"/>
				<polygon class="st3" points="171.1,34.2 171.1,36.1 177.8,40 177.8,38.1 				"/>
				<polygon class="st4" points="164.3,30.4 164.3,32.2 171.1,36.1 171.1,34.2 				"/>
				<polygon class="st5" points="157.5,26.5 157.5,28.4 164.3,32.2 164.3,30.4 				"/>
			</g>
			<g>
				<polygon class="st7" points="171.1,8 171.1,6.2 164.3,2.3 164.3,4.2 				"/>
				<polygon class="st8" points="177.8,11.9 177.8,10 171.1,6.2 171.1,8 				"/>
				<polygon class="st3" points="184.6,15.8 184.6,13.9 177.8,10 177.8,11.9 				"/>
				<polygon class="st4" points="191.4,19.7 191.4,17.8 184.6,13.9 184.6,15.8 				"/>
				<polygon class="st5" points="198.2,23.5 198.2,21.7 191.4,17.8 191.4,19.7 				"/>
			</g>
			<g>
				<polygon class="st6" points="198.2,32.9 198.2,31 191.4,27.2 191.4,29 				"/>
				<polygon class="st7" points="184.6,23.3 184.6,25.1 191.4,29 191.4,27.2 				"/>
				<polygon class="st8" points="177.8,19.4 177.8,21.3 184.6,25.1 184.6,23.3 				"/>
				<polygon class="st3" points="171.1,15.5 171.1,17.4 177.8,21.3 177.8,19.4 				"/>
				<polygon class="st4" points="164.3,11.6 164.3,13.5 171.1,17.4 171.1,15.5 				"/>
				<polygon class="st5" points="157.5,7.8 157.5,9.6 164.3,13.5 164.3,11.6 				"/>
			</g>
			<g>
				<polygon class="st6" points="157.5,17.1 157.5,19 164.3,22.9 164.3,21 				"/>
				<polygon class="st7" points="171.1,26.8 171.1,24.9 164.3,21 164.3,22.9 				"/>
				<polygon class="st8" points="177.8,30.6 177.8,28.8 171.1,24.9 171.1,26.8 				"/>
				<polygon class="st3" points="184.6,34.5 184.6,32.6 177.8,28.8 177.8,30.6 				"/>
				<polygon class="st4" points="191.4,38.4 191.4,36.5 184.6,32.6 184.6,34.5 				"/>
				<polygon class="st5" points="198.2,42.3 198.2,40.4 191.4,36.5 191.4,38.4 				"/>
			</g>
			<g>
				<polygon class="st6" points="198.2,14.2 198.2,12.3 191.4,8.4 191.4,10.3 				"/>
				<polygon class="st7" points="184.6,4.6 184.6,6.4 191.4,10.3 191.4,8.4 				"/>
				<polygon class="st8" points="177.8,0.7 177.8,2.5 184.6,6.4 184.6,4.6 				"/>
				<g>
					<polygon class="st4" points="191.4,0.9 191.4,0 189.8,0 					"/>
					<polygon class="st5" points="191.4,0 191.4,0.9 198.2,4.8 198.2,2.9 193,0 					"/>
					<polygon class="st6" points="157.5,0.3 164.3,4.2 164.3,2.3 160.3,0 157.5,0 					"/>
					<polygon class="st3" points="177.8,2.5 177.8,0.7 176.7,0 173.4,0 					"/>
				</g>
			</g>
		</g>
		<g>
			<g>
				<polygon class="st6" points="134,14.9 134,13.1 127.3,9.2 127.3,11.1 				"/>
				<polygon class="st7" points="120.5,5.3 120.5,7.2 127.3,11.1 127.3,9.2 				"/>
				<polygon class="st8" points="113.7,1.4 113.7,3.3 120.5,7.2 120.5,5.3 				"/>
				<polygon class="st3" points="111.2,0 107.9,0 113.7,3.3 113.7,1.4 				"/>
			</g>
			<g>
				<polygon class="st4" points="127.3,1.7 127.3,0 124.3,0 				"/>
				<polygon class="st5" points="134,5.6 134,3.7 127.5,0 127.3,0 127.3,1.7 				"/>
			</g>
		</g>
	</g>
	<g>
		
			<linearGradient id="SVGID_2_" gradientUnits="userSpaceOnUse" x1="-2313.3013" y1="277.1264" x2="-2313.3013" y2="317.7725" gradientTransform="matrix(-1 0 0 1 -1771.1816 0)">
			<stop  offset="0" style="stop-color:#9D2D84"/>
			<stop  offset="0.4277" style="stop-color:#A4328C;stop-opacity:0.5723"/>
			<stop  offset="1" style="stop-color:#A83592;stop-opacity:0"/>
		</linearGradient>
		<path class="st13 Robot" d="M533.5,285.8c0-4.8,3.9-8.6,8.6-8.6s8.6,3.9,8.6,8.6c0,1.6-8.6,32-8.6,32S533.5,287.4,533.5,285.8z"/>
		<path class="st6 Robot" d="M536.1,283.1c0-3.3,2.7-6,6-6s6,2.7,6,6c0,1.1-0.3,2.2-0.9,3.1h0l-5.1,8.4l-5.1-8.4h0
			C536.4,285.3,536.1,284.3,536.1,283.1z"/>
		<path class="st10 Robot" d="M528.4,269.4c0,7.6,6.1,13.7,13.7,13.7s13.7-6.1,13.7-13.7c0-1.6-1.3-3.2-3.6-4.5c-2.7-1.5-6.3-2.3-10.1-2.3
			c-3.8,0-7.4,0.8-10.1,2.3C529.7,266.1,528.4,267.8,528.4,269.4z"/>
		<path class="st11 Robot" d="M532.9,236.4v31.8c0,0.4-0.3,0.7-0.8,1c-0.6,0.3-1.4,0.5-2.2,0.5c-0.8,0-1.6-0.2-2.2-0.5
			c-0.5-0.3-0.8-0.6-0.8-1v-31.8H532.9z"/>
		<circle class="st10 Robot" cx="529.8" cy="233.6" r="5.3"/>
		<path class="st10 Robot" d="M542.1,276.2c3.8,0,7.4-0.8,10.1-2.3c2.3-1.3,3.6-2.9,3.6-4.5s-1.3-3.2-3.6-4.5c-2.7-1.5-6.3-2.3-10.1-2.3
			c-3.8,0-7.4,0.8-10.1,2.3c-2.3,1.3-3.6,2.9-3.6,4.5s1.3,3.2,3.6,4.5C534.7,275.4,538.3,276.2,542.1,276.2z"/>
		
			<rect class="st10 Robot" x="528.4" y="240.7" width="27.5" height="28.7"/>
		<path class="st6 Robot" d="M542.1,247.5c3.8,0,7.4-0.8,10.1-2.3c2.3-1.3,3.6-2.9,3.6-4.5s-1.3-3.2-3.6-4.5c-2.7-1.5-6.3-2.3-10.1-2.3
			c-3.8,0-7.4,0.8-10.1,2.3c-2.3,1.3-3.6,2.9-3.6,4.5s1.3,3.2,3.6,4.5C534.7,246.7,538.3,247.5,542.1,247.5z"/>
		<path class="st10 Robot" d="M551.4,228.3v9.7c0,1.1-0.9,2.2-2.5,3.1c-1.8,1-4.2,1.6-6.9,1.6s-5-0.6-6.9-1.6c-1.6-0.9-2.5-2-2.5-3.1v-9.7
			H551.4z"/>
		<g>
			<path class="st11 Robot" d="M542.1,228.3v14.4c-2.6,0-5-0.6-6.9-1.6c-1.6-0.9-2.5-2-2.5-3.1v-9.7H542.1z"/>
		</g>
		<path class="st6 Robot" d="M551.4,228.3c0-5.1-4.2-9.3-9.3-9.3s-9.3,4.2-9.3,9.3c0,1.1,0.9,2.2,2.5,3.1c1.8,1,4.2,1.6,6.9,1.6
			s5-0.6,6.9-1.6C550.5,230.5,551.4,229.4,551.4,228.3z"/>
		<path class="st10 Robot" d="M542.1,232.9c2.6,0,5-0.6,6.9-1.6c1.6-0.9,2.5-2,2.5-3.1c0-1.1-0.9-2.2-2.5-3.1c-1.8-1-4.2-1.6-6.9-1.6
			s-5,0.6-6.9,1.6c-1.6,0.9-2.5,2-2.5,3.1c0,1.1,0.9,2.2,2.5,3.1C537.1,232.4,539.5,232.9,542.1,232.9z"/>
		<path class="st11 Robot" d="M557.5,250.6v31.8c0,0.4-0.3,0.7-0.8,1c-0.6,0.3-1.4,0.5-2.2,0.5s-1.6-0.2-2.2-0.5c-0.5-0.3-0.8-0.6-0.8-1
			v-31.8H557.5z"/>
		<circle class="st10 Robot" cx="554.4" cy="247.8" r="5.3"/>
	</g>
	<g>
		
			<linearGradient id="SVGID_3_" gradientUnits="userSpaceOnUse" x1="-1903.5538" y1="32.0913" x2="-1903.5538" y2="72.7375" gradientTransform="matrix(-1 0 0 1 -1771.1816 0)">
			<stop  offset="0" style="stop-color:#9D2D84"/>
			<stop  offset="0.4277" style="stop-color:#A4328C;stop-opacity:0.5723"/>
			<stop  offset="1" style="stop-color:#A83592;stop-opacity:0"/>
		</linearGradient>
		<path class="st14" d="M123.7,40.7c0-4.8,3.9-8.6,8.6-8.6s8.6,3.9,8.6,8.6c0,1.6-8.6,32-8.6,32S123.7,42.4,123.7,40.7z"/>
		<path class="st6" d="M126.4,38.1c0-3.3,2.7-6,6-6s6,2.7,6,6c0,1.1-0.3,2.2-0.9,3.1h0l-5.1,8.4l-5.1-8.4h0
			C126.7,40.3,126.4,39.2,126.4,38.1z"/>
		<path class="st10" d="M118.6,24.3c0,7.6,6.1,13.7,13.7,13.7c7.6,0,13.7-6.1,13.7-13.7c0-1.6-1.3-3.2-3.6-4.5
			c-2.7-1.5-6.3-2.3-10.1-2.3c-3.8,0-7.4,0.8-10.1,2.3C120,21.1,118.6,22.7,118.6,24.3z"/>
		<path class="st11" d="M123.1,0v23.2c0,0.4-0.3,0.7-0.8,1c-0.6,0.3-1.4,0.5-2.2,0.5c-0.8,0-1.6-0.2-2.2-0.5c-0.5-0.3-0.8-0.6-0.8-1
			V0H123.1z"/>
		<path class="st10" d="M132.4,31.1c3.8,0,7.4-0.8,10.1-2.3c2.3-1.3,3.6-2.9,3.6-4.5s-1.3-3.2-3.6-4.5c-2.7-1.5-6.3-2.3-10.1-2.3
			c-3.8,0-7.4,0.8-10.1,2.3c-2.3,1.3-3.6,2.9-3.6,4.5s1.3,3.2,3.6,4.5C124.9,30.3,128.5,31.1,132.4,31.1z"/>
		
			<rect x="118.6" y="0" transform="matrix(-1 -4.482604e-11 4.482604e-11 -1 264.7442 24.3406)" class="st10" width="27.5" height="24.3"/>
		<g>
			<path class="st6" d="M122,0c0.1,0.1,0.2,0.1,0.3,0.2c2.7,1.5,6.3,2.3,10.1,2.3c3.8,0,7.4-0.8,10.1-2.3c0.1-0.1,0.2-0.1,0.3-0.2
				H122z"/>
		</g>
		<path class="st11" d="M147.7,5.6v31.8c0,0.4-0.3,0.7-0.8,1c-0.6,0.3-1.4,0.5-2.2,0.5c-0.8,0-1.6-0.2-2.2-0.5
			c-0.5-0.3-0.8-0.6-0.8-1V5.6H147.7z"/>
		<g>
			<path class="st10" d="M140.2,0c-0.5,0.8-0.8,1.7-0.8,2.7c0,2.9,2.4,5.3,5.3,5.3s5.3-2.4,5.3-5.3c0-1-0.3-1.9-0.8-2.7H140.2z"/>
		</g>
	</g>
	<g>
		
			<linearGradient class = "Flame" id="SVGID_4_" gradientUnits="userSpaceOnUse" x1="-2129.4802" y1="86.5364" x2="-2129.4802" y2="127.1825" gradientTransform="matrix(1 0 0 1 2350.5747 0)">
			<stop  offset="0" style="stop-color:#9D2D84"/>
			<stop  offset="0.4277" style="stop-color:#A4328C;stop-opacity:0.5723"/>
			<stop  offset="1" style="stop-color:#A83592;stop-opacity:0"/>
		</linearGradient>
		<path class="st15 Robot2 Flame" d="M229.7,95.2c0-4.8-3.9-8.6-8.6-8.6s-8.6,3.9-8.6,8.6c0,1.6,8.6,32,8.6,32S229.7,96.8,229.7,95.2z"/>
		<path class="st6 Robot2" d="M227.1,92.5c0-3.3-2.7-6-6-6c-3.3,0-6,2.7-6,6c0,1.1,0.3,2.2,0.9,3.1h0l5.1,8.4l5.1-8.4h0
			C226.8,94.7,227.1,93.7,227.1,92.5z"/>
		<path class="st10 Robot2" d="M234.8,78.8c0,7.6-6.1,13.7-13.7,13.7s-13.7-6.1-13.7-13.7c0-1.6,1.3-3.2,3.6-4.5c2.7-1.5,6.3-2.3,10.1-2.3
			c3.8,0,7.4,0.8,10.1,2.3C233.5,75.5,234.8,77.2,234.8,78.8z"/>
		<path class="st11 Robot2 " d="M230.3,45.9v31.8c0,0.4,0.3,0.7,0.8,1c0.6,0.3,1.4,0.5,2.2,0.5c0.8,0,1.6-0.2,2.2-0.5c0.5-0.3,0.8-0.6,0.8-1
			V45.9H230.3z"/>
		<circle class="st10 Robot2" cx="233.4" cy="43" r="5.3"/>
		<path class="st10 Robot2" d="M221.1,85.6c-3.8,0-7.4-0.8-10.1-2.3c-2.3-1.3-3.6-2.9-3.6-4.5s1.3-3.2,3.6-4.5c2.7-1.5,6.3-2.3,10.1-2.3
			c3.8,0,7.4,0.8,10.1,2.3c2.3,1.3,3.6,2.9,3.6,4.5s-1.3,3.2-3.6,4.5C228.5,84.8,224.9,85.6,221.1,85.6z"/>
		<rect x="207.4" y="50.1" class="st10 Robot2" width="27.5" height="28.7"/>
		<path class="st6 Robot2" d="M221.1,56.9c-3.8,0-7.4-0.8-10.1-2.3c-2.3-1.3-3.6-2.9-3.6-4.5s1.3-3.2,3.6-4.5c2.7-1.5,6.3-2.3,10.1-2.3
			c3.8,0,7.4,0.8,10.1,2.3c2.3,1.3,3.6,2.9,3.6,4.5s-1.3,3.2-3.6,4.5C228.5,56.1,224.9,56.9,221.1,56.9z"/>
		<path class="st10 Robot2" d="M211.8,37.7v9.7c0,1.1,0.9,2.2,2.5,3.1c1.8,1,4.2,1.6,6.9,1.6s5-0.6,6.9-1.6c1.6-0.9,2.5-2,2.5-3.1v-9.7
			H211.8z"/>
		<g>
			<path class="st11 Robot2" d="M221.1,37.7v14.4c2.6,0,5-0.6,6.9-1.6c1.6-0.9,2.5-2,2.5-3.1v-9.7H221.1z"/>
		</g>
		<path class="st11 Robot2" d="M205.8,60v31.8c0,0.4,0.3,0.7,0.8,1c0.6,0.3,1.4,0.5,2.2,0.5c0.8,0,1.6-0.2,2.2-0.5c0.5-0.3,0.8-0.6,0.8-1
			V60H205.8z"/>
		<circle class="st10 Robot2" cx="208.8" cy="57.2" r="5.3"/>
		<path class="st6 Robot2" d="M211.8,37.7c0-5.1,4.2-9.3,9.3-9.3s9.3,4.2,9.3,9.3c0,1.1-0.9,2.2-2.5,3.1c-1.8,1-4.2,1.6-6.9,1.6
			s-5-0.6-6.9-1.6C212.7,39.9,211.8,38.8,211.8,37.7z"/>
		<path class="st10 Robot2" d="M221.1,42.3c-2.6,0-5-0.6-6.9-1.6c-1.6-0.9-2.5-2-2.5-3.1c0-1.1,0.9-2.2,2.5-3.1c1.8-1,4.2-1.6,6.9-1.6
			s5,0.6,6.9,1.6c1.6,0.9,2.5,2,2.5,3.1c0,1.1-0.9,2.2-2.5,3.1C226.1,41.8,223.7,42.3,221.1,42.3z"/>
	</g>
	<g>
		<g>
			<polygon class="st1" points="53.3,5.2 0,35.6 0,102.8 53.3,72.3 			"/>
		</g>
		<g>
			<g>
				<polygon class="st1" points="117.5,41.9 0,109 0,176.1 117.5,109 				"/>
			</g>
			<g>
				<g>
					<polygon class="st12" points="0,0 0,35.6 53.3,5.2 44.2,0 					"/>
				</g>
				<polygon class="st12" points="76.8,18.6 0,62.5 0,109 117.5,41.9 				"/>
			</g>
		</g>
		<g>
			<polygon class="st2" points="18.8,125.1 18.8,192.2 59.5,215.5 59.5,148.3 			"/>
			<polygon class="st1" points="59.5,148.3 59.5,215.5 181.6,145.7 181.6,78.5 			"/>
			<polygon class="st12" points="18.8,125.1 140.9,55.3 181.6,78.5 59.5,148.3 			"/>
		</g>
		<g>
			<polygon class="st2" points="83,161.7 83,228.9 123.7,252.2 123.7,185 			"/>
			<polygon class="st1" points="123.7,185 123.7,252.2 245.8,182.4 245.8,115.2 			"/>
			<polygon class="st12" points="83,161.7 205.1,92 245.8,115.2 123.7,185 			"/>
		</g>
		<g>
			<polygon class="st2" points="147.1,198.4 147.1,265.6 187.8,288.8 187.8,221.7 			"/>
			<polygon class="st1" points="187.8,221.7 187.8,288.8 310,219.1 310,151.9 			"/>
			<polygon class="st12" points="147.1,198.4 269.2,128.6 310,151.9 187.8,221.7 			"/>
		</g>
		<g>
			<polygon class="st2" points="211.3,235.1 211.3,302.2 252,325.5 252,258.4 			"/>
			<polygon class="st1" points="252,258.4 252,325.5 374.1,255.7 374.1,188.6 			"/>
			<polygon class="st12" points="211.3,235.1 333.4,165.3 374.1,188.6 252,258.4 			"/>
		</g>
		<g>
			<g>
				<polygon class="st2" points="316.1,295 275.4,271.8 275.4,338.9 294.8,350 316.1,350 				"/>
			</g>
			<g>
				<polygon class="st1" points="438.3,292.4 438.3,225.3 316.1,295 316.1,350 337.5,350 				"/>
			</g>
			<polygon class="st12" points="275.4,271.8 397.6,202 438.3,225.3 316.1,295 			"/>
		</g>
		<g>
			<g>
				<polygon class="st2" points="380.3,331.7 339.6,308.4 339.6,350 380.3,350 				"/>
			</g>
			<g>
				<polygon class="st1" points="502.4,329.1 502.4,261.9 380.3,331.7 380.3,350 465.8,350 				"/>
			</g>
			<polygon class="st12" points="339.6,308.4 461.7,238.7 502.4,261.9 380.3,331.7 			"/>
		</g>
		<g>
			<g>
				<polygon class="st2" points="403.8,345.1 403.8,350 412.3,350 				"/>
			</g>
			<g>
				<polygon class="st1" points="566.6,298.6 476.6,350 566.6,350 				"/>
			</g>
			<g>
				<polygon class="st12" points="566.6,298.6 525.9,275.4 403.8,345.1 412.3,350 476.6,350 				"/>
			</g>
		</g>
	</g>
	<g>
		<g>
			<g>
				<polygon class="st6" points="339.6,316.3 339.6,318.1 346.4,322 346.4,320.1 				"/>
				<polygon class="st7" points="353.2,325.9 353.2,324 346.4,320.1 346.4,322 				"/>
				<polygon class="st8" points="360,329.8 360,327.9 353.2,324 353.2,325.9 				"/>
				<polygon class="st3" points="366.7,333.6 366.7,331.8 360,327.9 360,329.8 				"/>
				<polygon class="st4" points="373.5,337.5 373.5,335.6 366.7,331.8 366.7,333.6 				"/>
				<polygon class="st5" points="380.3,341.4 380.3,339.5 373.5,335.6 373.5,337.5 				"/>
			</g>
			<g>
				<polygon class="st6" points="339.6,335 339.6,336.8 346.4,340.7 346.4,338.9 				"/>
				<polygon class="st7" points="353.2,344.6 353.2,342.7 346.4,338.9 346.4,340.7 				"/>
				<polygon class="st8" points="360,348.5 360,346.6 353.2,342.7 353.2,344.6 				"/>
			</g>
			<polygon class="st5" points="339.6,344.3 339.6,346.2 346.2,350 346.4,350 346.4,348.2 			"/>
			<g>
				<polygon class="st7" points="366.7,341.1 366.7,343 373.5,346.9 373.5,345 				"/>
				<polygon class="st8" points="360,337.2 360,339.1 366.7,343 366.7,341.1 				"/>
				<polygon class="st3" points="353.2,333.4 353.2,335.2 360,339.1 360,337.2 				"/>
				<polygon class="st4" points="346.4,329.5 346.4,331.4 353.2,335.2 353.2,333.4 				"/>
				<polygon class="st5" points="339.6,325.6 339.6,327.5 346.4,331.4 346.4,329.5 				"/>
			</g>
		</g>
		<g>
			<g>
				<polygon class="st6" points="275.4,279.6 275.4,281.4 282.2,285.3 282.2,283.5 				"/>
				<polygon class="st7" points="289,289.2 289,287.3 282.2,283.5 282.2,285.3 				"/>
				<polygon class="st8" points="295.8,293.1 295.8,291.2 289,287.3 289,289.2 				"/>
				<polygon class="st3" points="302.6,297 302.6,295.1 295.8,291.2 295.8,293.1 				"/>
				<polygon class="st4" points="309.4,300.8 309.4,299 302.6,295.1 302.6,297 				"/>
				<polygon class="st5" points="316.1,304.7 316.1,302.8 309.4,299 309.4,300.8 				"/>
			</g>
			<g>
				<g>
					<polygon class="st3" points="360,348.5 362.6,350 365.9,350 360,346.6 					"/>
					<polygon class="st4" points="346.4,350 349.5,350 346.4,348.2 					"/>
					<polygon class="st6" points="380.3,348.9 373.5,345 373.5,346.9 379,350 380.3,350 					"/>
					<polygon class="st6" points="309.4,345.8 309.4,347.6 313.5,350 316.1,350 316.1,349.6 					"/>
				</g>
				<polygon class="st7" points="302.6,341.9 302.6,343.8 309.4,347.6 309.4,345.8 				"/>
				<polygon class="st8" points="295.8,338 295.8,339.9 302.6,343.8 302.6,341.9 				"/>
				<polygon class="st3" points="289,334.1 289,336 295.8,339.9 295.8,338 				"/>
				<polygon class="st4" points="282.2,330.3 282.2,332.1 289,336 289,334.1 				"/>
				<polygon class="st5" points="275.4,326.4 275.4,328.3 282.2,332.1 282.2,330.3 				"/>
			</g>
			<g>
				<polygon class="st6" points="275.4,298.3 275.4,300.2 282.2,304 282.2,302.2 				"/>
				<polygon class="st7" points="289,307.9 289,306.1 282.2,302.2 282.2,304 				"/>
				<polygon class="st8" points="295.8,311.8 295.8,309.9 289,306.1 289,307.9 				"/>
				<polygon class="st3" points="302.6,315.7 302.6,313.8 295.8,309.9 295.8,311.8 				"/>
				<polygon class="st4" points="309.4,319.6 309.4,317.7 302.6,313.8 302.6,315.7 				"/>
				<polygon class="st5" points="316.1,323.4 316.1,321.6 309.4,317.7 309.4,319.6 				"/>
			</g>
			<g>
				<polygon class="st6" points="316.1,332.8 316.1,330.9 309.4,327 309.4,328.9 				"/>
				<polygon class="st7" points="302.6,323.2 302.6,325 309.4,328.9 309.4,327 				"/>
				<polygon class="st8" points="295.8,319.3 295.8,321.2 302.6,325 302.6,323.2 				"/>
				<polygon class="st3" points="289,315.4 289,317.3 295.8,321.2 295.8,319.3 				"/>
				<polygon class="st4" points="282.2,311.5 282.2,313.4 289,317.3 289,315.4 				"/>
				<polygon class="st5" points="275.4,307.7 275.4,309.5 282.2,313.4 282.2,311.5 				"/>
			</g>
			<g>
				<polygon class="st6" points="275.4,317 275.4,318.9 282.2,322.8 282.2,320.9 				"/>
				<polygon class="st7" points="289,326.6 289,324.8 282.2,320.9 282.2,322.8 				"/>
				<polygon class="st8" points="295.8,330.5 295.8,328.6 289,324.8 289,326.6 				"/>
				<polygon class="st3" points="302.6,334.4 302.6,332.5 295.8,328.6 295.8,330.5 				"/>
				<polygon class="st4" points="309.4,338.3 309.4,336.4 302.6,332.5 302.6,334.4 				"/>
				<polygon class="st5" points="316.1,342.1 316.1,340.3 309.4,336.4 309.4,338.3 				"/>
			</g>
			<g>
				<polygon class="st6" points="316.1,314.1 316.1,312.2 309.4,308.3 309.4,310.2 				"/>
				<polygon class="st7" points="302.6,304.4 302.6,306.3 309.4,310.2 309.4,308.3 				"/>
				<polygon class="st8" points="295.8,300.6 295.8,302.4 302.6,306.3 302.6,304.4 				"/>
				<polygon class="st3" points="289,296.7 289,298.6 295.8,302.4 295.8,300.6 				"/>
				<polygon class="st4" points="282.2,292.8 282.2,294.7 289,298.6 289,296.7 				"/>
				<polygon class="st5" points="275.4,288.9 275.4,290.8 282.2,294.7 282.2,292.8 				"/>
			</g>
		</g>
		<g>
			<g>
				<polygon class="st6" points="211.3,242.9 211.3,244.8 218.1,248.6 218.1,246.8 				"/>
				<polygon class="st7" points="224.8,252.5 224.8,250.7 218.1,246.8 218.1,248.6 				"/>
				<polygon class="st8" points="231.6,256.4 231.6,254.5 224.8,250.7 224.8,252.5 				"/>
				<polygon class="st3" points="238.4,260.3 238.4,258.4 231.6,254.5 231.6,256.4 				"/>
				<polygon class="st4" points="245.2,264.2 245.2,262.3 238.4,258.4 238.4,260.3 				"/>
				<polygon class="st5" points="252,268 252,266.2 245.2,262.3 245.2,264.2 				"/>
			</g>
			<g>
				<polygon class="st6" points="252,314.8 252,313 245.2,309.1 245.2,311 				"/>
				<polygon class="st7" points="238.4,305.2 238.4,307.1 245.2,311 245.2,309.1 				"/>
				<polygon class="st8" points="231.6,301.3 231.6,303.2 238.4,307.1 238.4,305.2 				"/>
				<polygon class="st3" points="224.8,297.5 224.8,299.3 231.6,303.2 231.6,301.3 				"/>
				<polygon class="st4" points="218.1,293.6 218.1,295.5 224.8,299.3 224.8,297.5 				"/>
				<polygon class="st5" points="211.3,289.7 211.3,291.6 218.1,295.5 218.1,293.6 				"/>
			</g>
			<g>
				<polygon class="st6" points="211.3,261.6 211.3,263.5 218.1,267.4 218.1,265.5 				"/>
				<polygon class="st7" points="224.8,271.2 224.8,269.4 218.1,265.5 218.1,267.4 				"/>
				<polygon class="st8" points="231.6,275.1 231.6,273.2 224.8,269.4 224.8,271.2 				"/>
				<polygon class="st3" points="238.4,279 238.4,277.1 231.6,273.2 231.6,275.1 				"/>
				<polygon class="st4" points="245.2,282.9 245.2,281 238.4,277.1 238.4,279 				"/>
				<polygon class="st5" points="252,286.8 252,284.9 245.2,281 245.2,282.9 				"/>
			</g>
			<g>
				<polygon class="st6" points="252,296.1 252,294.2 245.2,290.4 245.2,292.2 				"/>
				<polygon class="st7" points="238.4,286.5 238.4,288.4 245.2,292.2 245.2,290.4 				"/>
				<polygon class="st8" points="231.6,282.6 231.6,284.5 238.4,288.4 238.4,286.5 				"/>
				<polygon class="st3" points="224.8,278.7 224.8,280.6 231.6,284.5 231.6,282.6 				"/>
				<polygon class="st4" points="218.1,274.9 218.1,276.7 224.8,280.6 224.8,278.7 				"/>
				<polygon class="st5" points="211.3,271 211.3,272.9 218.1,276.7 218.1,274.9 				"/>
			</g>
			<g>
				<polygon class="st6" points="211.3,280.3 211.3,282.2 218.1,286.1 218.1,284.2 				"/>
				<polygon class="st7" points="224.8,290 224.8,288.1 218.1,284.2 218.1,286.1 				"/>
				<polygon class="st8" points="231.6,293.8 231.6,292 224.8,288.1 224.8,290 				"/>
				<polygon class="st3" points="238.4,297.7 238.4,295.8 231.6,292 231.6,293.8 				"/>
				<polygon class="st4" points="245.2,301.6 245.2,299.7 238.4,295.8 238.4,297.7 				"/>
				<polygon class="st5" points="252,305.5 252,303.6 245.2,299.7 245.2,301.6 				"/>
			</g>
			<g>
				<polygon class="st6" points="252,277.4 252,275.5 245.2,271.6 245.2,273.5 				"/>
				<polygon class="st7" points="238.4,267.8 238.4,269.6 245.2,273.5 245.2,271.6 				"/>
				<polygon class="st8" points="231.6,263.9 231.6,265.8 238.4,269.6 238.4,267.8 				"/>
				<polygon class="st3" points="224.8,260 224.8,261.9 231.6,265.8 231.6,263.9 				"/>
				<polygon class="st4" points="218.1,256.1 218.1,258 224.8,261.9 224.8,260 				"/>
				<polygon class="st5" points="211.3,252.3 211.3,254.1 218.1,258 218.1,256.1 				"/>
			</g>
		</g>
		<g>
			<g>
				<polygon class="st6" points="83,169.5 83,171.4 89.7,175.3 89.7,173.4 				"/>
				<polygon class="st7" points="96.5,179.2 96.5,177.3 89.7,173.4 89.7,175.3 				"/>
				<polygon class="st8" points="103.3,183 103.3,181.2 96.5,177.3 96.5,179.2 				"/>
				<polygon class="st3" points="110.1,186.9 110.1,185 103.3,181.2 103.3,183 				"/>
				<polygon class="st4" points="116.9,190.8 116.9,188.9 110.1,185 110.1,186.9 				"/>
				<polygon class="st5" points="123.7,194.7 123.7,192.8 116.9,188.9 116.9,190.8 				"/>
			</g>
			<g>
				<polygon class="st6" points="123.7,241.5 123.7,239.6 116.9,235.7 116.9,237.6 				"/>
				<polygon class="st7" points="110.1,231.9 110.1,233.7 116.9,237.6 116.9,235.7 				"/>
				<polygon class="st8" points="103.3,228 103.3,229.8 110.1,233.7 110.1,231.9 				"/>
				<polygon class="st3" points="96.5,224.1 96.5,226 103.3,229.8 103.3,228 				"/>
				<polygon class="st4" points="89.7,220.2 89.7,222.1 96.5,226 96.5,224.1 				"/>
				<polygon class="st5" points="83,216.3 83,218.2 89.7,222.1 89.7,220.2 				"/>
			</g>
			<g>
				<polygon class="st6" points="83,188.3 83,190.1 89.7,194 89.7,192.1 				"/>
				<polygon class="st7" points="96.5,197.9 96.5,196 89.7,192.1 89.7,194 				"/>
				<polygon class="st8" points="103.3,201.8 103.3,199.9 96.5,196 96.5,197.9 				"/>
				<polygon class="st3" points="110.1,205.6 110.1,203.8 103.3,199.9 103.3,201.8 				"/>
				<polygon class="st4" points="116.9,209.5 116.9,207.6 110.1,203.8 110.1,205.6 				"/>
				<polygon class="st5" points="123.7,213.4 123.7,211.5 116.9,207.6 116.9,209.5 				"/>
			</g>
			<g>
				<polygon class="st6" points="123.7,222.8 123.7,220.9 116.9,217 116.9,218.9 				"/>
				<polygon class="st7" points="110.1,213.1 110.1,215 116.9,218.9 116.9,217 				"/>
				<polygon class="st8" points="103.3,209.3 103.3,211.1 110.1,215 110.1,213.1 				"/>
				<polygon class="st3" points="96.5,205.4 96.5,207.3 103.3,211.1 103.3,209.3 				"/>
				<polygon class="st4" points="89.7,201.5 89.7,203.4 96.5,207.3 96.5,205.4 				"/>
				<polygon class="st5" points="83,197.6 83,199.5 89.7,203.4 89.7,201.5 				"/>
			</g>
			<g>
				<polygon class="st6" points="83,207 83,208.9 89.7,212.7 89.7,210.9 				"/>
				<polygon class="st7" points="96.5,216.6 96.5,214.7 89.7,210.9 89.7,212.7 				"/>
				<polygon class="st8" points="103.3,220.5 103.3,218.6 96.5,214.7 96.5,216.6 				"/>
				<polygon class="st3" points="110.1,224.4 110.1,222.5 103.3,218.6 103.3,220.5 				"/>
				<polygon class="st4" points="116.9,228.2 116.9,226.4 110.1,222.5 110.1,224.4 				"/>
				<polygon class="st5" points="123.7,232.1 123.7,230.2 116.9,226.4 116.9,228.2 				"/>
			</g>
			<g>
				<polygon class="st6" points="123.7,204 123.7,202.2 116.9,198.3 116.9,200.2 				"/>
				<polygon class="st7" points="110.1,194.4 110.1,196.3 116.9,200.2 116.9,198.3 				"/>
				<polygon class="st8" points="103.3,190.5 103.3,192.4 110.1,196.3 110.1,194.4 				"/>
				<polygon class="st3" points="96.5,186.7 96.5,188.5 103.3,192.4 103.3,190.5 				"/>
				<polygon class="st4" points="89.7,182.8 89.7,184.7 96.5,188.5 96.5,186.7 				"/>
				<polygon class="st5" points="83,178.9 83,180.8 89.7,184.7 89.7,182.8 				"/>
			</g>
		</g>
		<g>
			<g>
				<polygon class="st6" points="18.8,132.9 18.8,134.7 25.6,138.6 25.6,136.7 				"/>
				<polygon class="st7" points="32.4,142.5 32.4,140.6 25.6,136.7 25.6,138.6 				"/>
				<polygon class="st8" points="39.1,146.4 39.1,144.5 32.4,140.6 32.4,142.5 				"/>
				<polygon class="st3" points="45.9,150.2 45.9,148.4 39.1,144.5 39.1,146.4 				"/>
				<polygon class="st4" points="52.7,154.1 52.7,152.2 45.9,148.4 45.9,150.2 				"/>
				<polygon class="st5" points="59.5,158 59.5,156.1 52.7,152.2 52.7,154.1 				"/>
			</g>
			<g>
				<polygon class="st6" points="59.5,204.8 59.5,202.9 52.7,199.1 52.7,200.9 				"/>
				<polygon class="st7" points="45.9,195.2 45.9,197 52.7,200.9 52.7,199.1 				"/>
				<polygon class="st8" points="39.1,191.3 39.1,193.2 45.9,197 45.9,195.2 				"/>
				<polygon class="st3" points="32.4,187.4 32.4,189.3 39.1,193.2 39.1,191.3 				"/>
				<polygon class="st4" points="25.6,183.5 25.6,185.4 32.4,189.3 32.4,187.4 				"/>
				<polygon class="st5" points="18.8,179.7 18.8,181.5 25.6,185.4 25.6,183.5 				"/>
			</g>
			<g>
				<polygon class="st6" points="18.8,151.6 18.8,153.5 25.6,157.3 25.6,155.5 				"/>
				<polygon class="st7" points="32.4,161.2 32.4,159.3 25.6,155.5 25.6,157.3 				"/>
				<polygon class="st8" points="39.1,165.1 39.1,163.2 32.4,159.3 32.4,161.2 				"/>
				<polygon class="st3" points="45.9,169 45.9,167.1 39.1,163.2 39.1,165.1 				"/>
				<polygon class="st4" points="52.7,172.8 52.7,171 45.9,167.1 45.9,169 				"/>
				<polygon class="st5" points="59.5,176.7 59.5,174.8 52.7,171 52.7,172.8 				"/>
			</g>
			<g>
				<polygon class="st6" points="59.5,186.1 59.5,184.2 52.7,180.3 52.7,182.2 				"/>
				<polygon class="st7" points="45.9,176.5 45.9,178.3 52.7,182.2 52.7,180.3 				"/>
				<polygon class="st8" points="39.1,172.6 39.1,174.4 45.9,178.3 45.9,176.5 				"/>
				<polygon class="st3" points="32.4,168.7 32.4,170.6 39.1,174.4 39.1,172.6 				"/>
				<polygon class="st4" points="25.6,164.8 25.6,166.7 32.4,170.6 32.4,168.7 				"/>
				<polygon class="st5" points="18.8,160.9 18.8,162.8 25.6,166.7 25.6,164.8 				"/>
			</g>
			<g>
				<polygon class="st6" points="18.8,170.3 18.8,172.2 25.6,176.1 25.6,174.2 				"/>
				<polygon class="st7" points="32.4,179.9 32.4,178.1 25.6,174.2 25.6,176.1 				"/>
				<polygon class="st8" points="39.1,183.8 39.1,181.9 32.4,178.1 32.4,179.9 				"/>
				<polygon class="st3" points="45.9,187.7 45.9,185.8 39.1,181.9 39.1,183.8 				"/>
				<polygon class="st4" points="52.7,191.6 52.7,189.7 45.9,185.8 45.9,187.7 				"/>
				<polygon class="st5" points="59.5,195.4 59.5,193.6 52.7,189.7 52.7,191.6 				"/>
			</g>
			<g>
				<polygon class="st6" points="59.5,167.4 59.5,165.5 52.7,161.6 52.7,163.5 				"/>
				<polygon class="st7" points="45.9,157.7 45.9,159.6 52.7,163.5 52.7,161.6 				"/>
				<polygon class="st8" points="39.1,153.9 39.1,155.7 45.9,159.6 45.9,157.7 				"/>
				<polygon class="st3" points="32.4,150 32.4,151.9 39.1,155.7 39.1,153.9 				"/>
				<polygon class="st4" points="25.6,146.1 25.6,148 32.4,151.9 32.4,150 				"/>
				<polygon class="st5" points="18.8,142.2 18.8,144.1 25.6,148 25.6,146.1 				"/>
			</g>
		</g>
	</g>
	<g>
		
			<linearGradient class = "Flame Robot" id="SVGID_5_" gradientUnits="userSpaceOnUse" x1="-1827.8497" y1="256.2033" x2="-1827.8497" y2="296.8954" gradientTransform="matrix(1 0 0 1 1904.5353 0)">
			<stop  offset="0" style="stop-color:#81C8DF"/>
			<stop  offset="1" style="stop-color:#81C8DF;stop-opacity:0"/>
		</linearGradient>
		<path class="st16 Robot3 Flame" d="M85.3,264.8c0-4.8-3.9-8.6-8.6-8.6c-4.8,0-8.6,3.9-8.6,8.6c0,1.6,8.6,32.1,8.6,32.1S85.3,266.5,85.3,264.8z"
			/>
		<path class="st17 Robot3" d="M82.7,262.2c0-3.3-2.7-6-6-6s-6,2.7-6,6c0,1.1,0.3,2.2,0.9,3.1h0l5.1,8.4l5.1-8.4h0
			C82.4,264.4,82.7,263.4,82.7,262.2z"/>
		<path class="st18 Robot3" d="M90.4,248.4c0,7.6-6.2,13.8-13.8,13.8s-13.8-6.2-13.8-13.8c0-1.6,1.3-3.2,3.6-4.5c2.7-1.5,6.3-2.3,10.1-2.3
			s7.4,0.8,10.1,2.3C89.1,245.2,90.4,246.8,90.4,248.4z"/>
		<path class="st19 Robot3" d="M86,215.5v31.8c0,0.4,0.3,0.7,0.8,1c0.6,0.3,1.4,0.5,2.2,0.5c0.8,0,1.6-0.2,2.2-0.5c0.5-0.3,0.8-0.6,0.8-1
			v-31.8H86z"/>
		<circle class="st18 Robot3" cx="89" cy="212.6" r="5.3"/>
		<path class="st18 Robot3" d="M76.7,255.3c-3.8,0-7.4-0.8-10.1-2.3c-2.3-1.3-3.6-2.9-3.6-4.5s1.3-3.2,3.6-4.5c2.7-1.5,6.3-2.3,10.1-2.3
			s7.4,0.8,10.1,2.3c2.3,1.3,3.6,2.9,3.6,4.5s-1.3,3.2-3.6,4.5C84.1,254.4,80.5,255.3,76.7,255.3z"/>
		<rect x="62.9" y="219.7" class="st18 Robot3" width="27.5" height="28.7"/>
		<path class="st20 Robot3" d="M76.7,226.5c-3.8,0-7.4-0.8-10.1-2.3c-2.3-1.3-3.6-2.9-3.6-4.5s1.3-3.2,3.6-4.5c2.7-1.5,6.3-2.3,10.1-2.3
			s7.4,0.8,10.1,2.3c2.3,1.3,3.6,2.9,3.6,4.5s-1.3,3.2-3.6,4.5C84.1,225.7,80.5,226.5,76.7,226.5z"/>
		<path class="st18 Robot3" d="M67.4,207.3v9.7c0,1.1,0.9,2.2,2.5,3.1c1.8,1,4.2,1.6,6.9,1.6c2.6,0,5-0.6,6.9-1.6c1.6-0.9,2.5-2,2.5-3.1
			v-9.7H67.4z"/>
		<g>
			<path class="st19 Robot3" d="M76.7,207.3v14.4c2.6,0,5-0.6,6.9-1.6c1.6-0.9,2.5-2,2.5-3.1v-9.7H76.7z"/>
		</g>
		<path class="st20 Robot3" d="M67.4,207.3c0-5.2,4.2-9.3,9.3-9.3s9.3,4.2,9.3,9.3c0,1.1-0.9,2.2-2.5,3.1c-1.8,1-4.2,1.6-6.9,1.6
			s-5-0.6-6.9-1.6C68.3,209.5,67.4,208.4,67.4,207.3z"/>
		<path class="st18 Robot3" d="M76.7,212c-2.6,0-5-0.6-6.9-1.6c-1.6-0.9-2.5-2-2.5-3.1s0.9-2.2,2.5-3.1c1.8-1,4.2-1.6,6.9-1.6
			s5,0.6,6.9,1.6c1.6,0.9,2.5,2,2.5,3.1s-0.9,2.2-2.5,3.1C81.7,211.4,79.3,212,76.7,212z"/>
		<path class="st19 Robot3" d="M61.3,229.6v31.8c0,0.4,0.3,0.7,0.8,1c0.6,0.3,1.4,0.5,2.2,0.5c0.8,0,1.6-0.2,2.2-0.5c0.5-0.3,0.8-0.6,0.8-1
			v-31.8H61.3z"/>
		<circle class="st18 Robot3" cx="64.4" cy="226.8" r="5.3"/>
	</g>
	<g>
		<polygon class="st1" points="125,174.4 100.6,160.5 128.8,144.3 153.2,158.2 		"/>
		<path class="st2" d="M128.8,142.6l-4.7,2.7l-3,1.7l-1.7,1l-0.8,0.5l-3.9,2.2l-3,1.7l-1.7,1l-3,1.7l-1.7,1l-3,1.7l-4.7,2.7
			l27.4,15.6l4.7-2.7l3-1.7l1.7-1l3-1.7l1.7-1l3-1.7l1.7-1l0.8-0.5l3.9-2.2l3-1.7l4.7-2.7L128.8,142.6z M125,172.6l-21.3-12.2l1.7-1
			l21.3,12.2L125,172.6z M129.7,169.9l-21.3-12.2l1.7-1l21.3,12.2L129.7,169.9z M134.4,167.3l-21.3-12.2l1.7-1l21.3,12.2
			L134.4,167.3z M139.1,164.6l-21.3-12.2l1.7-1l21.3,12.2L139.1,164.6z M143.8,161.9l-21.3-12.2l1.7-1l21.3,12.2L143.8,161.9z
			 M148.5,159.2L127.2,147l1.7-1l21.3,12.2L148.5,159.2z"/>
		<polygon class="st1" points="203.8,102.6 228.1,116.5 199.9,132.6 175.6,118.7 		"/>
		<path class="st2" d="M203.8,100.9l-4.7,2.7l-3,1.7l-1.7,1l-3,1.7l-1.7,1l-3,1.7l-1.7,1l-0.8,0.5l-3.9,2.2l-3,1.7l-4.7,2.7
			l27.4,15.6l4.7-2.7l3-1.7l1.7-1l0.8-0.5l3.9-2.2l3-1.7l1.7-1l3-1.7l1.7-1l3-1.7l4.7-2.7L203.8,100.9z M199.9,130.9l-21.3-12.2
			l1.7-1l21.3,12.2L199.9,130.9z M204.6,128.2L183.3,116l1.7-1l21.3,12.2L204.6,128.2z M209.3,125.5L188,113.4l1.7-1l21.3,12.2
			L209.3,125.5z M214,122.8l-21.3-12.2l1.7-1l21.3,12.2L214,122.8z M218.7,120.2L197.4,108l1.7-1l21.3,12.2L218.7,120.2z
			 M223.4,117.5l-21.3-12.2l1.7-1l21.3,12.2L223.4,117.5z"/>
	</g>
	<g>
		<polygon class="st1" points="189.1,211 164.8,197.1 193,181 217.3,194.9 		"/>
		<path class="st2" d="M193,179.3l-4.7,2.7l-3,1.7l-1.7,1l-0.8,0.5l-3.9,2.2l-3,1.7l-1.7,1l-3,1.7l-1.7,1l-3,1.7l-4.7,2.7l27.4,15.6
			l4.7-2.7l3-1.7l1.7-1l3-1.7l1.7-1l3-1.7l1.7-1l0.8-0.5l3.9-2.2l3-1.7l4.7-2.7L193,179.3z M189.1,209.3l-21.3-12.2l1.7-1l21.3,12.2
			L189.1,209.3z M193.8,206.6l-21.3-12.2l1.7-1l21.3,12.2L193.8,206.6z M198.5,203.9l-21.3-12.2l1.7-1l21.3,12.2L198.5,203.9z
			 M203.2,201.2l-21.3-12.2l1.7-1l21.3,12.2L203.2,201.2z M207.9,198.6l-21.3-12.2l1.7-1l21.3,12.2L207.9,198.6z M212.6,195.9
			l-21.3-12.2l1.7-1l21.3,12.2L212.6,195.9z"/>
		<polygon class="st1" points="267.9,139.3 292.3,153.2 264.1,169.3 239.7,155.4 		"/>
		<path class="st2" d="M267.9,137.5l-4.7,2.7l-3,1.7l-1.7,1l-3,1.7l-1.7,1l-3,1.7l-1.7,1l-0.8,0.5l-3.9,2.2l-3,1.7l-4.7,2.7
			l27.4,15.6l4.7-2.7l3-1.7l1.7-1l0.8-0.5l3.9-2.2l3-1.7l1.7-1l3-1.7l1.7-1l3-1.7l4.7-2.7L267.9,137.5z M264.1,167.6l-21.3-12.2
			l1.7-1l21.3,12.2L264.1,167.6z M268.8,164.9l-21.3-12.2l1.7-1l21.3,12.2L268.8,164.9z M273.5,162.2L252.2,150l1.7-1l21.3,12.2
			L273.5,162.2z M278.2,159.5l-21.3-12.2l1.7-1l21.3,12.2L278.2,159.5z M282.9,156.8l-21.3-12.2l1.7-1l21.3,12.2L282.9,156.8z
			 M287.6,154.1L266.3,142l1.7-1l21.3,12.2L287.6,154.1z"/>
	</g>
	<g>
		<polygon class="st1" points="60.8,137.7 36.5,123.8 64.7,107.6 89,121.5 		"/>
		<path class="st2" d="M64.7,105.9l-4.7,2.7l-3,1.7l-1.7,1l-0.8,0.5l-3.9,2.2l-3,1.7l-1.7,1l-3,1.7l-1.7,1l-3,1.7l-4.7,2.7
			l27.4,15.6l4.7-2.7l3-1.7l1.7-1l3-1.7l1.7-1l3-1.7l1.7-1l0.8-0.5l3.9-2.2l3-1.7l4.7-2.7L64.7,105.9z M60.8,136l-21.3-12.2l1.7-1
			L62.5,135L60.8,136z M65.5,133.3l-21.3-12.2l1.7-1l21.3,12.2L65.5,133.3z M70.2,130.6l-21.3-12.2l1.7-1l21.3,12.2L70.2,130.6z
			 M74.9,127.9l-21.3-12.2l1.7-1l21.3,12.2L74.9,127.9z M79.6,125.2L58.3,113l1.7-1l21.3,12.2L79.6,125.2z M84.3,122.5L63,110.3
			l1.7-1L86,121.5L84.3,122.5z"/>
		<polygon class="st1" points="139.6,65.9 164,79.8 135.7,96 111.4,82.1 		"/>
		<path class="st2" d="M139.6,64.2l-4.7,2.7l-3,1.7l-1.7,1l-3,1.7l-1.7,1l-3,1.7l-1.7,1l-0.8,0.5l-3.9,2.2l-3,1.7l-4.7,2.7
			l27.4,15.6l4.7-2.7l3-1.7l1.7-1l0.8-0.5l3.9-2.2l3-1.7l1.7-1l3-1.7l1.7-1l3-1.7l4.7-2.7L139.6,64.2z M135.7,94.2l-21.3-12.2l1.7-1
			l21.3,12.2L135.7,94.2z M140.4,91.5l-21.3-12.2l1.7-1l21.3,12.2L140.4,91.5z M145.1,88.9l-21.3-12.2l1.7-1l21.3,12.2L145.1,88.9z
			 M149.8,86.2L128.5,74l1.7-1l21.3,12.2L149.8,86.2z M154.5,83.5l-21.3-12.2l1.7-1l21.3,12.2L154.5,83.5z M159.2,80.8l-21.3-12.2
			l1.7-1l21.3,12.2L159.2,80.8z"/>
	</g>
	<g>
		<polygon class="st1" points="75.5,29.3 99.8,43.2 71.6,59.3 47.2,45.4 		"/>
		<path class="st2" d="M75.5,27.6l-4.7,2.7l-3,1.7l-1.7,1l-3,1.7l-1.7,1l-3,1.7l-1.7,1l-0.8,0.5L51.9,41l-3,1.7l-4.7,2.7L71.6,61
			l4.7-2.7l3-1.7l1.7-1l0.8-0.5l3.9-2.2l3-1.7l1.7-1l3-1.7l1.7-1l3-1.7l4.7-2.7L75.5,27.6z M71.6,57.6L50.3,45.4l1.7-1l21.3,12.2
			L71.6,57.6z M76.3,54.9L55,42.7l1.7-1L78,53.9L76.3,54.9z M81,52.2L59.7,40l1.7-1l21.3,12.2L81,52.2z M85.7,49.5L64.4,37.3l1.7-1
			l21.3,12.2L85.7,49.5z M90.4,46.8L69.1,34.7l1.7-1l21.3,12.2L90.4,46.8z M95.1,44.1L73.8,32l1.7-1l21.3,12.2L95.1,44.1z"/>
	</g>
	<g>
		<g>
			<polygon class="st1" points="0.5,71 0,71.3 0,99.1 24.9,84.9 			"/>
			<g>
				<polygon class="st1" points="0,0 0,18.4 7.4,22.6 35.6,6.5 24.3,0 				"/>
			</g>
		</g>
		<g>
			<polygon class="st21" points="17.1,87.6 0,77.8 0,79.7 15.5,88.6 			"/>
			<polygon class="st21" points="12.4,90.3 0,83.2 0,85.1 10.7,91.2 			"/>
			<polygon class="st21" points="3,95.7 0,93.9 0,95.9 1.3,96.6 			"/>
			<polygon class="st21" points="7.7,93 0,88.6 0,90.5 6,93.9 			"/>
			<polygon class="st21" points="21.8,84.9 0.5,72.7 0,73 0,74.3 20.2,85.9 			"/>
			<polygon class="st2" points="0.5,72.7 21.8,84.9 20.2,85.9 0,74.3 0,77.8 17.1,87.6 15.5,88.6 0,79.7 0,83.2 12.4,90.3 
				10.7,91.2 0,85.1 0,88.6 7.7,93 6,93.9 0,90.5 0,93.9 3,95.7 1.3,96.6 0,95.9 0,100.8 1.3,100.1 4.4,98.4 6,97.4 9.1,95.7 
				10.8,94.7 13.8,93 15.5,92 16.3,91.5 20.2,89.3 23.2,87.6 27.9,84.9 0.5,69.3 0,69.6 0,73 			"/>
			<g>
				<polygon class="st21" points="0.2,0.6 21.5,12.8 23.2,11.8 2.5,0 1.3,0 				"/>
				<polygon class="st21" points="26.2,10.1 27.9,9.2 11.9,0 8.5,0 				"/>
				<polygon class="st21" points="30.9,7.4 32.6,6.5 21.3,0 17.9,0 				"/>
				<polygon class="st2" points="21.3,0 32.6,6.5 30.9,7.4 17.9,0 11.9,0 27.9,9.2 26.2,10.1 8.5,0 2.5,0 23.2,11.8 21.5,12.8 
					0.2,0.6 1.3,0 0,0 0,4 18.5,14.5 16.8,15.5 0,5.9 0,9.4 13.8,17.2 12.1,18.2 0,11.3 0,14.7 9.1,19.9 7.4,20.9 0,16.6 0,20.1 
					7.4,24.3 12.1,21.6 15.1,19.9 16.8,19 17.6,18.5 21.5,16.3 24.5,14.5 26.2,13.6 29.2,11.8 30.9,10.9 33.9,9.2 38.6,6.5 27.3,0 
									"/>
			</g>
		</g>
	</g>
	<polygon class="st12" points="211.3,235.1 333.4,165.3 374.1,188.6 252,258.4 	"/>
	<g>
		<polygon class="st1" points="253.3,247.7 229,233.8 257.2,217.7 281.5,231.6 		"/>
		<path class="st2" d="M257.2,215.9l-4.7,2.7l-3,1.7l-1.7,1l-0.8,0.5l-3.9,2.2l-3,1.7l-1.7,1l-3,1.7l-1.7,1l-3,1.7l-4.7,2.7
			l27.4,15.6l4.7-2.7l3-1.7l1.7-1l3-1.7l1.7-1l3-1.7l1.7-1l0.8-0.5l3.9-2.2l3-1.7l4.7-2.7L257.2,215.9z M253.3,246L232,233.8l1.7-1
			L255,245L253.3,246z M258,243.3l-21.3-12.2l1.7-1l21.3,12.2L258,243.3z M262.7,240.6l-21.3-12.2l1.7-1l21.3,12.2L262.7,240.6z
			 M267.4,237.9l-21.3-12.2l1.7-1l21.3,12.2L267.4,237.9z M272.1,235.2l-21.3-12.2l1.7-1l21.3,12.2L272.1,235.2z M276.8,232.5
			l-21.3-12.2l1.7-1l21.3,12.2L276.8,232.5z"/>
		<polygon class="st1" points="332.1,176 356.4,189.9 328.2,206 303.9,192.1 		"/>
		<path class="st2" d="M332.1,174.2l-4.7,2.7l-3,1.7l-1.7,1l-3,1.7l-1.7,1l-3,1.7l-1.7,1l-0.8,0.5l-3.9,2.2l-3,1.7l-4.7,2.7
			l27.4,15.6l4.7-2.7l3-1.7l1.7-1l0.8-0.5l3.9-2.2l3-1.7l1.7-1l3-1.7l1.7-1l3-1.7l4.7-2.7L332.1,174.2z M328.2,204.3l-21.3-12.2
			l1.7-1l21.3,12.2L328.2,204.3z M332.9,201.6l-21.3-12.2l1.7-1l21.3,12.2L332.9,201.6z M337.6,198.9l-21.3-12.2l1.7-1l21.3,12.2
			L337.6,198.9z M342.3,196.2L321,184l1.7-1l21.3,12.2L342.3,196.2z M347,193.5l-21.3-12.2l1.7-1l21.3,12.2L347,193.5z M351.7,190.8
			l-21.3-12.2l1.7-1l21.3,12.2L351.7,190.8z"/>
	</g>
	<polygon class="st12" points="275.4,271.8 397.6,202 438.3,225.3 316.1,295 	"/>
	<g>
		<polygon class="st1" points="317.5,284.4 293.1,270.5 321.3,254.4 345.7,268.3 		"/>
		<path class="st2" d="M321.3,252.6l-4.7,2.7l-3,1.7l-1.7,1l-0.8,0.5l-3.9,2.2l-3,1.7l-1.7,1l-3,1.7l-1.7,1l-3,1.7l-4.7,2.7
			l27.4,15.6l4.7-2.7l3-1.7l1.7-1l3-1.7l1.7-1l3-1.7l1.7-1l0.8-0.5l3.9-2.2l3-1.7l4.7-2.7L321.3,252.6z M317.5,282.7l-21.3-12.2
			l1.7-1l21.3,12.2L317.5,282.7z M322.2,280l-21.3-12.2l1.7-1l21.3,12.2L322.2,280z M326.9,277.3l-21.3-12.2l1.7-1l21.3,12.2
			L326.9,277.3z M331.6,274.6l-21.3-12.2l1.7-1l21.3,12.2L331.6,274.6z M336.3,271.9L315,259.7l1.7-1l21.3,12.2L336.3,271.9z
			 M341,269.2L319.7,257l1.7-1l21.3,12.2L341,269.2z"/>
		<polygon class="st1" points="396.3,212.6 420.6,226.5 392.4,242.7 368.1,228.8 		"/>
		<path class="st2" d="M396.3,210.9l-4.7,2.7l-3,1.7l-1.7,1l-3,1.7l-1.7,1l-3,1.7l-1.7,1l-0.8,0.5l-3.9,2.2l-3,1.7l-4.7,2.7
			l27.4,15.6l4.7-2.7l3-1.7l1.7-1l0.8-0.5l3.9-2.2l3-1.7l1.7-1l3-1.7l1.7-1l3-1.7l4.7-2.7L396.3,210.9z M392.4,240.9l-21.3-12.2
			l1.7-1l21.3,12.2L392.4,240.9z M397.1,238.3l-21.3-12.2l1.7-1l21.3,12.2L397.1,238.3z M401.8,235.6l-21.3-12.2l1.7-1l21.3,12.2
			L401.8,235.6z M406.5,232.9l-21.3-12.2l1.7-1l21.3,12.2L406.5,232.9z M411.2,230.2L389.9,218l1.7-1l21.3,12.2L411.2,230.2z
			 M415.9,227.5l-21.3-12.2l1.7-1l21.3,12.2L415.9,227.5z"/>
	</g>
	<polygon class="st12" points="339.6,308.4 461.7,238.7 502.4,261.9 380.3,331.7 	"/>
	<g>
		<polygon class="st1" points="381.6,321.1 357.3,307.2 385.5,291 409.8,304.9 		"/>
		<path class="st2" d="M385.5,289.3l-4.7,2.7l-3,1.7l-1.7,1l-0.8,0.5l-3.9,2.2l-3,1.7l-1.7,1l-3,1.7l-1.7,1l-3,1.7l-4.7,2.7
			l27.4,15.6l4.7-2.7l3-1.7l1.7-1l3-1.7l1.7-1l3-1.7l1.7-1l0.8-0.5l3.9-2.2l3-1.7l4.7-2.7L385.5,289.3z M381.6,319.3l-21.3-12.2
			l1.7-1l21.3,12.2L381.6,319.3z M386.3,316.7L365,304.5l1.7-1l21.3,12.2L386.3,316.7z M391,314l-21.3-12.2l1.7-1l21.3,12.2L391,314
			z M395.7,311.3l-21.3-12.2l1.7-1l21.3,12.2L395.7,311.3z M400.4,308.6l-21.3-12.2l1.7-1l21.3,12.2L400.4,308.6z M405.1,305.9
			l-21.3-12.2l1.7-1l21.3,12.2L405.1,305.9z"/>
		<polygon class="st1" points="460.4,249.3 484.8,263.2 456.5,279.4 432.2,265.4 		"/>
		<path class="st2" d="M460.4,247.6l-4.7,2.7l-3,1.7l-1.7,1l-3,1.7l-1.7,1l-3,1.7l-1.7,1l-0.8,0.5l-3.9,2.2l-3,1.7l-4.7,2.7
			l27.4,15.6l4.7-2.7l3-1.7l1.7-1l0.8-0.5l3.9-2.2l3-1.7l1.7-1l3-1.7l1.7-1l3-1.7l4.7-2.7L460.4,247.6z M456.5,277.6l-21.3-12.2
			l1.7-1l21.3,12.2L456.5,277.6z M461.3,274.9l-21.3-12.2l1.7-1l21.3,12.2L461.3,274.9z M466,272.2l-21.3-12.2l1.7-1l21.3,12.2
			L466,272.2z M470.7,269.6l-21.3-12.2l1.7-1l21.3,12.2L470.7,269.6z M475.4,266.9L454,254.7l1.7-1l21.3,12.2L475.4,266.9z
			 M480.1,264.2L458.7,252l1.7-1l21.3,12.2L480.1,264.2z"/>
	</g>
	<g>
		<g>
			<polygon class="st1" points="474,341.6 449.7,327.7 421.4,343.8 432.2,350 459.3,350 			"/>
		</g>
		<g>
			<path class="st2" d="M424.5,343.8l1.7-1l12.5,7.1h6l-15.5-8.8l1.7-1L448,350h6l-20.2-11.5l1.7-1l21.3,12.2l-0.6,0.3h6l0.6-0.3
				l1.7-1l0.8-0.5l3.9-2.2l3-1.7l4.7-2.7L449.7,326l-4.7,2.7l-3,1.7l-1.7,1l-0.8,0.5l-3.9,2.2l-3,1.7l-1.7,1l-3,1.7l-1.7,1l-3,1.7
				l-4.7,2.7l10.8,6.2h6L424.5,343.8z M449.7,329.4l21.3,12.2l-1.7,1L448,330.4L449.7,329.4z M445,332.1l21.3,12.2l-1.7,1
				l-21.3-12.2L445,332.1z M440.3,334.8l21.3,12.2l-1.7,1l-21.3-12.2L440.3,334.8z"/>
		</g>
		<polygon class="st1" points="524.6,286 548.9,299.9 520.7,316 496.4,302.1 		"/>
		<path class="st2" d="M524.6,284.3l-4.7,2.7l-3,1.7l-1.7,1l-3,1.7l-1.7,1l-3,1.7l-1.7,1l-0.8,0.5l-3.9,2.2l-3,1.7l-4.7,2.7
			l27.4,15.6l4.7-2.7l3-1.7l1.7-1l0.8-0.5l3.9-2.2l3-1.7l1.7-1l3-1.7l1.7-1l3-1.7l4.7-2.7L524.6,284.3z M520.7,314.3l-21.3-12.2
			l1.7-1l21.3,12.2L520.7,314.3z M525.4,311.6l-21.3-12.2l1.7-1l21.3,12.2L525.4,311.6z M530.1,308.9l-21.3-12.2l1.7-1l21.3,12.2
			L530.1,308.9z M534.8,306.2l-21.3-12.2l1.7-1l21.3,12.2L534.8,306.2z M539.5,303.5l-21.3-12.2l1.7-1l21.3,12.2L539.5,303.5z
			 M544.2,300.9l-21.3-12.2l1.7-1l21.3,12.2L544.2,300.9z"/>
	</g>
	<g>
		<polygon class="st1" points="327.8,58.9 303.5,45 331.7,28.8 356,42.7 		"/>
		<path class="st2" d="M331.7,27.1l-4.7,2.7l-3,1.7l-1.7,1l-0.8,0.5l-3.9,2.2l-3,1.7l-1.7,1l-3,1.7l-1.7,1l-3,1.7l-4.7,2.7
			l27.4,15.6l4.7-2.7l3-1.7l1.7-1l3-1.7l1.7-1l3-1.7l1.7-1l0.8-0.5l3.9-2.2l3-1.7l4.7-2.7L331.7,27.1z M327.8,57.1L306.5,45l1.7-1
			l21.3,12.2L327.8,57.1z M332.5,54.4l-21.3-12.2l1.7-1l21.3,12.2L332.5,54.4z M337.2,51.8l-21.3-12.2l1.7-1l21.3,12.2L337.2,51.8z
			 M341.9,49.1l-21.3-12.2l1.7-1l21.3,12.2L341.9,49.1z M346.6,46.4l-21.3-12.2l1.7-1l21.3,12.2L346.6,46.4z M351.3,43.7L330,31.5
			l1.7-1L353,42.7L351.3,43.7z"/>
		<g>
			<polygon class="st1" points="239.3,8.3 263.7,22.2 291.9,6 281.3,0 253.8,0 			"/>
			<polygon class="st1" points="384.1,0 378.4,3.2 402.8,17.1 431,1 429.2,0 			"/>
		</g>
		<g>
			<path class="st2" d="M288.9,6l-1.7,1l-12.2-7h-6l15.3,8.7l-1.7,1l-17-9.7h-6l20,11.4l-1.7,1L256.5,0.2l0.4-0.2h-6l-0.4,0.2
				l-1.7,1l-3,1.7l-1.7,1l-3,1.7l-4.7,2.7l27.4,15.6l4.7-2.7l3-1.7l1.7-1l3-1.7l1.7-1l3-1.7l1.7-1l0.8-0.5l3.9-2.2l3-1.7l4.7-2.7
				l-10.6-6h-6L288.9,6z M263.7,20.4L242.4,8.3l1.7-1l21.3,12.2L263.7,20.4z M268.4,17.8L247.1,5.6l1.7-1L270,16.8L268.4,17.8z
				 M273.1,15.1L251.8,2.9l1.7-1l21.3,12.2L273.1,15.1z"/>
			<path class="st2" d="M426.2,0l1.8,1l-1.7,1l-3.4-2h-6l6.5,3.7l-1.7,1L413.4,0h-6l11.2,6.4l-1.7,1L404,0h-6l15.9,9.1l-1.7,1
				L394.6,0h-6l20.6,11.8l-1.7,1L386.2,0.5l1-0.5h-6l-1,0.5l-4.7,2.7l27.4,15.6l4.7-2.7l3-1.7l1.7-1L413,13l3.9-2.2l3-1.7l1.7-1
				l3-1.7l1.7-1l3-1.7L434,1l-1.8-1H426.2z M402.8,15.4L381.4,3.2l1.7-1l21.3,12.2L402.8,15.4z"/>
		</g>
	</g>
	<g>
		<polygon class="st1" points="392,95.5 367.7,81.6 395.9,65.5 420.2,79.4 		"/>
		<path class="st2" d="M395.9,63.8l-4.7,2.7l-3,1.7l-1.7,1l-0.8,0.5l-3.9,2.2l-3,1.7l-1.7,1l-3,1.7l-1.7,1l-3,1.7l-4.7,2.7L392,97.3
			l4.7-2.7l3-1.7l1.7-1l3-1.7l1.7-1l3-1.7l1.7-1l0.8-0.5l3.9-2.2l3-1.7l4.7-2.7L395.9,63.8z M392,93.8l-21.3-12.2l1.7-1l21.3,12.2
			L392,93.8z M396.7,91.1l-21.3-12.2l1.7-1l21.3,12.2L396.7,91.1z M401.4,88.4l-21.3-12.2l1.7-1l21.3,12.2L401.4,88.4z M406.1,85.7
			l-21.3-12.2l1.7-1l21.3,12.2L406.1,85.7z M410.8,83.1l-21.3-12.2l1.7-1l21.3,12.2L410.8,83.1z M415.5,80.4l-21.3-12.2l1.7-1
			l21.3,12.2L415.5,80.4z"/>
		<polygon class="st1" points="470.8,23.8 495.1,37.7 466.9,53.8 442.6,39.9 		"/>
		<path class="st2" d="M470.8,22l-4.7,2.7l-3,1.7l-1.7,1l-3,1.7l-1.7,1l-3,1.7l-1.7,1l-0.8,0.5l-3.9,2.2l-3,1.7l-4.7,2.7l27.4,15.6
			l4.7-2.7l3-1.7l1.7-1l0.8-0.5l3.9-2.2l3-1.7l1.7-1l3-1.7l1.7-1l3-1.7l4.7-2.7L470.8,22z M466.9,52.1l-21.3-12.2l1.7-1l21.3,12.2
			L466.9,52.1z M471.6,49.4l-21.3-12.2l1.7-1l21.3,12.2L471.6,49.4z M476.3,46.7L455,34.5l1.7-1L478,45.7L476.3,46.7z M481,44
			l-21.3-12.2l1.7-1l21.3,12.2L481,44z M485.7,41.3l-21.3-12.2l1.7-1l21.3,12.2L485.7,41.3z M490.4,38.6l-21.3-12.2l1.7-1l21.3,12.2
			L490.4,38.6z"/>
	</g>
	<g>
		<polygon class="st1" points="456.2,132.2 431.8,118.3 460,102.2 484.4,116.1 		"/>
		<path class="st2" d="M460,100.4l-4.7,2.7l-3,1.7l-1.7,1l-0.8,0.5l-3.9,2.2l-3,1.7l-1.7,1l-3,1.7l-1.7,1l-3,1.7l-4.7,2.7l27.4,15.6
			l4.7-2.7l3-1.7l1.7-1l3-1.7l1.7-1l3-1.7l1.7-1l0.8-0.5l3.9-2.2l3-1.7l4.7-2.7L460,100.4z M456.2,130.5l-21.3-12.2l1.7-1l21.3,12.2
			L456.2,130.5z M460.9,127.8l-21.3-12.2l1.7-1l21.3,12.2L460.9,127.8z M465.6,125.1l-21.3-12.2l1.7-1l21.3,12.2L465.6,125.1z
			 M470.3,122.4l-21.3-12.2l1.7-1l21.3,12.2L470.3,122.4z M475,119.7l-21.3-12.2l1.7-1l21.3,12.2L475,119.7z M479.7,117l-21.3-12.2
			l1.7-1l21.3,12.2L479.7,117z"/>
		<polygon class="st1" points="535,60.5 559.3,74.4 531.1,90.5 506.8,76.6 		"/>
		<path class="st2" d="M535,58.7l-4.7,2.7l-3,1.7l-1.7,1l-3,1.7l-1.7,1l-3,1.7l-1.7,1l-0.8,0.5l-3.9,2.2l-3,1.7l-4.7,2.7l27.4,15.6
			l4.7-2.7l3-1.7l1.7-1l0.8-0.5l3.9-2.2l3-1.7l1.7-1l3-1.7l1.7-1l3-1.7l4.7-2.7L535,58.7z M531.1,88.8l-21.3-12.2l1.7-1l21.3,12.2
			L531.1,88.8z M535.8,86.1l-21.3-12.2l1.7-1l21.3,12.2L535.8,86.1z M540.5,83.4l-21.3-12.2l1.7-1l21.3,12.2L540.5,83.4z
			 M545.2,80.7l-21.3-12.2l1.7-1l21.3,12.2L545.2,80.7z M549.9,78l-21.3-12.2l1.7-1L551.6,77L549.9,78z M554.6,75.3l-21.3-12.2
			l1.7-1l21.3,12.2L554.6,75.3z"/>
	</g>
	<g>
		<polygon class="st1" points="520.3,168.9 496,155 524.2,138.8 548.5,152.8 		"/>
		<path class="st2" d="M524.2,137.1l-4.7,2.7l-3,1.7l-1.7,1L514,143l-3.9,2.2l-3,1.7l-1.7,1l-3,1.7l-1.7,1l-3,1.7L493,155l27.4,15.6
			l4.7-2.7l3-1.7l1.7-1l3-1.7l1.7-1l3-1.7l1.7-1l0.8-0.5l3.9-2.2l3-1.7l4.7-2.7L524.2,137.1z M520.3,167.2L499,155l1.7-1l21.3,12.2
			L520.3,167.2z M525,164.5l-21.3-12.2l1.7-1l21.3,12.2L525,164.5z M529.7,161.8l-21.3-12.2l1.7-1l21.3,12.2L529.7,161.8z
			 M534.4,159.1l-21.3-12.2l1.7-1l21.3,12.2L534.4,159.1z M539.1,156.4l-21.3-12.2l1.7-1l21.3,12.2L539.1,156.4z M543.8,153.7
			l-21.3-12.2l1.7-1l21.3,12.2L543.8,153.7z"/>
	</g>
	<g>
		<g>
			<polygon class="st1" points="570.9,113.3 574.4,115.2 574.4,111.3 			"/>
			<polygon class="st1" points="560.1,191.6 574.4,199.7 574.4,183.4 			"/>
		</g>
		<g>
			<polygon class="st2" points="573.9,113.3 574.4,113 574.4,109.6 572.6,110.6 567.9,113.3 574.4,117 574.4,113.5 			"/>
			<polygon class="st2" points="571.2,183.5 569.5,184.5 566.5,186.2 564.8,187.1 561.8,188.9 557.1,191.6 574.4,201.4 574.4,198 
				563.2,191.6 564.8,190.6 574.4,196 574.4,192.6 567.9,188.9 569.6,187.9 574.4,190.7 574.4,187.2 572.6,186.2 574.3,185.2 
				574.4,185.3 574.4,181.7 574.3,181.8 			"/>
		</g>
	</g>
	<polygon class="st19" points="452,350 574.4,279.4 574.4,350 	"/>
	<g>
		<g>
			<polygon class="st17 Light" points="147.1,206.2 147.1,208.1 153.9,212 153.9,210.1 			"/>
			<polygon class="st22 Light" points="160.7,215.8 160.7,214 153.9,210.1 153.9,212 			"/>
			<polygon class="st20 Light" points="167.5,219.7 167.5,217.8 160.7,214 160.7,215.8 			"/>
			<polygon class="st23 Light" points="174.3,223.6 174.3,221.7 167.5,217.8 167.5,219.7 			"/>
			<polygon class="st18 Light" points="181,227.5 181,225.6 174.3,221.7 174.3,223.6 			"/>
			<polygon class="st24 Light" points="187.8,231.4 187.8,229.5 181,225.6 181,227.5 			"/>
		</g>
		<g>
			<polygon class="st17 Light" points="187.8,278.2 187.8,276.3 181,272.4 181,274.3 			"/>
			<polygon class="st22 Light" points="174.3,268.5 174.3,270.4 181,274.3 181,272.4 			"/>
			<polygon class="st20 Light" points="167.5,264.7 167.5,266.5 174.3,270.4 174.3,268.5 			"/>
			<polygon class="st23 Light" points="160.7,260.8 160.7,262.6 167.5,266.5 167.5,264.7 			"/>
			<polygon class="st18 Light" points="153.9,256.9 153.9,258.8 160.7,262.6 160.7,260.8 			"/>
			<polygon class="st24 Light" points="147.1,253 147.1,254.9 153.9,258.8 153.9,256.9 			"/>
		</g>
		<g>
			<polygon class="st17 Light" points="147.1,224.9 147.1,226.8 153.9,230.7 153.9,228.8 			"/>
			<polygon class="st22 Light" points="160.7,234.6 160.7,232.7 153.9,228.8 153.9,230.7 			"/>
			<polygon class="st20 Light" points="167.5,238.4 167.5,236.6 160.7,232.7 160.7,234.6 			"/>
			<polygon class="st23 Light" points="174.3,242.3 174.3,240.4 167.5,236.6 167.5,238.4 			"/>
			<polygon class="st18 Light" points="181,246.2 181,244.3 174.3,240.4 174.3,242.3 			"/>
			<polygon class="st24 Light" points="187.8,250.1 187.8,248.2 181,244.3 181,246.2 			"/>
		</g>
		<g>
			<polygon class="st17 Light" points="187.8,259.4 187.8,257.6 181,253.7 181,255.6 			"/>
			<polygon class="st22 Light" points="174.3,249.8 174.3,251.7 181,255.6 181,253.7 			"/>
			<polygon class="st20 Light" points="167.5,245.9 167.5,247.8 174.3,251.7 174.3,249.8 			"/>
			<polygon class="st23 Light" points="160.7,242.1 160.7,243.9 167.5,247.8 167.5,245.9 			"/>
			<polygon class="st18 Light" points="153.9,238.2 153.9,240.1 160.7,243.9 160.7,242.1 			"/>
			<polygon class="st24 Light" points="147.1,234.3 147.1,236.2 153.9,240.1 153.9,238.2 			"/>
		</g>
		<g>
			<polygon class="st17 Light" points="147.1,243.7 147.1,245.5 153.9,249.4 153.9,247.5 			"/>
			<polygon class="st22 Light" points="160.7,253.3 160.7,251.4 153.9,247.5 153.9,249.4 			"/>
			<polygon class="st20 Light" points="167.5,257.2 167.5,255.3 160.7,251.4 160.7,253.3 			"/>
			<polygon class="st23 Light" points="174.3,261 174.3,259.2 167.5,255.3 167.5,257.2 			"/>
			<polygon class="st18 Light" points="181,264.9 181,263 174.3,259.2 174.3,261 			"/>
			<polygon class="st24 Light" points="187.8,268.8 187.8,266.9 181,263 181,264.9 			"/>
		</g>
		<g>
			<polygon class="st17 Light" points="187.8,240.7 187.8,238.8 181,235 181,236.8 			"/>
			<polygon class="st22 Light" points="174.3,231.1 174.3,233 181,236.8 181,235 			"/>
			<polygon class="st20 Light" points="167.5,227.2 167.5,229.1 174.3,233 174.3,231.1 			"/>
			<polygon class="st23 Light" points="160.7,223.3 160.7,225.2 167.5,229.1 167.5,227.2 			"/>
			<polygon class="st18 Light" points="153.9,219.5 153.9,221.3 160.7,225.2 160.7,223.3 			"/>
			<polygon class="st24 Light" points="147.1,215.6 147.1,217.5 153.9,221.3 153.9,219.5 			"/>
		</g>
	</g>
	<g>
		<path class="st23" d="M150.1,271.2c0-6.7,4.1-14.5,9.1-17.4l17.6-10l-17.6-10l-17.6,10c-5,2.9-9.1,10.7-9.1,17.4v22.8
			c0,5.7-3.5,12.4-7.8,14.9c-1.9,1.1-3.7,1.2-5.1,0.4l17.6,10c1.4,0.8,3.1,0.7,5.1-0.4c4.3-2.5,7.8-9.1,7.8-14.9L150.1,271.2z"/>
		<path class="st24" d="M115.1,288.4c1.2,0.7,1.9,2.3,1.9,4.5v0c0,3.1,1,5.4,2.7,6.3l17.6,10c-1.7-0.9-2.7-3.2-2.7-6.3v0
			c0-2.2-0.7-3.8-1.9-4.5L115.1,288.4z"/>
		<path class="st23 Paper" d="M102.2,311.7c2-1.2,3.7-4.3,3.7-7v-5.4c0-4.1,2.5-8.8,5.5-10.6c1.4-0.8,2.7-0.9,3.6-0.3l17.6,10
			c-1-0.6-2.2-0.5-3.6,0.3c-3.1,1.8-5.5,6.5-5.5,10.6v5.4c0,2.7-1.6,5.8-3.7,7h0l-11.6,6.6l-17.6-10L102.2,311.7L102.2,311.7z"/>
	</g>
</g>
</svg>
